<svg width="293" height="465" viewBox="0 0 293 465" fill="none" xmlns="http://www.w3.org/2000/svg">
<g filter="url(#filter0_d_3365_3227)">
<path d="M0 30C0 13.4315 13.4315 0 30 0H228C244.569 0 258 13.4315 258 30V465H0V30Z" fill="white"/>
</g>
<path d="M23.5957 68.9121V81.1895H22.2969V68.9121H23.5957ZM17.0469 69.8281C18.8652 69.8281 20.2051 71.4961 20.2051 74.1211C20.2051 76.7598 18.8652 78.4277 17.0469 78.4277C15.2012 78.4277 13.875 76.7598 13.875 74.1211C13.875 71.4961 15.2012 69.8281 17.0469 69.8281ZM17.0469 70.9902C15.9121 70.9902 15.1328 72.1934 15.1328 74.1211C15.1328 76.0625 15.9121 77.2656 17.0469 77.2656C18.168 77.2656 18.9473 76.0625 18.9473 74.1211C18.9473 72.1934 18.168 70.9902 17.0469 70.9902ZM38.8824 68.9121V81.1621H37.6383V68.9121H38.8824ZM36.3941 69.1719V80.5469H35.1637V74.3125H33.2633V73.2461H35.1637V69.1719H36.3941ZM32.0602 72.3301C32.0602 74.4219 32.9078 76.5137 34.6305 77.5117L33.8512 78.4688C32.6822 77.7715 31.8756 76.5342 31.4586 75.0508C31.0143 76.6504 30.1803 78.0107 28.984 78.7559L28.191 77.7852C29.9273 76.7324 30.816 74.5039 30.816 72.3301V71.3457H28.5602V70.293H34.1656V71.3457H32.0602V72.3301ZM51.3383 74.7773V75.8164H46.3891V77.1289H49.9711V81.0117H41.5082V77.1289H45.1039V75.8164H40.1684V74.7773H51.3383ZM50.2855 69.2949V70.3477H48.5082V72.6855H50.2309V73.7383H41.2484V72.6855H42.9848V70.3477H41.1938V69.2949H50.2855ZM42.7934 78.1543V79.959H48.7133V78.1543H42.7934ZM44.2699 72.6855H47.2094V70.3477H44.2699V72.6855ZM62.509 68.9121V81.1621H61.2648V68.9121H62.509ZM60.0207 69.1445V80.5605H58.7766V74.6543H57.3957C57.2863 77.0469 56.2609 78.5371 54.7434 78.5234C53.1437 78.5371 52.1047 76.8555 52.1047 74.2031C52.1047 71.5508 53.1437 69.8828 54.7434 69.8965C56.2336 69.8828 57.2453 71.2979 57.3957 73.6016H58.7766V69.1445H60.0207ZM54.7434 71.1133C53.8547 71.1133 53.3078 72.248 53.3078 74.2031C53.3078 76.1582 53.8547 77.293 54.7434 77.293C55.6457 77.293 56.2062 76.1582 56.2062 74.2031C56.2062 72.248 55.6457 71.1133 54.7434 71.1133ZM77.3992 68.9121V81.1621H76.1551V74.832H74.5691V80.5332H73.3797V69.1582H74.5691V73.7656H76.1551V68.9121H77.3992ZM71.8895 70.3887V71.4414H68.5945V77.1152C70.0984 77.1016 71.2332 77.0332 72.5457 76.7871L72.6414 77.8535C71.1648 78.1543 69.907 78.209 68.116 78.2227H67.2957V70.3887H71.8895ZM84.7418 70.9355V71.9883H78.6578V70.9355H81.0641V69.2676H82.3492V70.9355H84.7418ZM81.7066 72.7266C83.2652 72.7266 84.359 73.8887 84.3727 75.543C84.359 77.2109 83.2652 78.3867 81.7066 78.3867C80.1754 78.3867 79.0406 77.2109 79.0543 75.543C79.0406 73.8887 80.1754 72.7266 81.7066 72.7266ZM81.7066 73.8066C80.818 73.8066 80.2027 74.5312 80.2027 75.543C80.2027 76.582 80.818 77.2793 81.7066 77.2793C82.5816 77.2793 83.2242 76.582 83.2242 75.543C83.2242 74.5312 82.5816 73.8066 81.7066 73.8066ZM89.1715 68.9121V81.1621H87.941V75.0781H86.5328V80.5879H85.3023V69.1855H86.5328V74.0117H87.941V68.9121H89.1715ZM100.466 69.8008V70.8535H99.2902V74.5586C99.8098 74.5176 100.309 74.4697 100.794 74.4082L100.849 75.3926C98.4973 75.7617 95.7492 75.8027 93.7805 75.8027L93.6164 74.7227C94.0744 74.7227 94.5803 74.7227 95.1066 74.709V70.8535H93.9582V69.8008H100.466ZM103.816 68.9121V76.4453H102.517V74.3125H100.644V73.2734H102.517V72.084H100.644V71.0449H102.517V68.9121H103.816ZM99.7141 76.6777C102.298 76.6777 103.857 77.4844 103.857 78.9199C103.857 80.3145 102.298 81.1484 99.7141 81.1348C97.1301 81.1484 95.5578 80.3145 95.5715 78.9199C95.5578 77.4844 97.1301 76.6777 99.7141 76.6777ZM99.7141 77.6895C97.9094 77.6895 96.8566 78.127 96.8566 78.9199C96.8566 79.6992 97.9094 80.1367 99.7141 80.1367C101.505 80.1367 102.571 79.6992 102.571 78.9199C102.571 78.127 101.505 77.6895 99.7141 77.6895ZM96.3645 74.6953C96.9182 74.6816 97.4787 74.6611 98.0461 74.627V70.8535H96.3645V74.6953ZM114.945 68.9121V73.793H116.846V74.873H114.945V81.1484H113.646V68.9121H114.945ZM111.746 70.1973C111.732 73.7383 110.174 76.8965 106.141 78.8926L105.416 77.8809C108.485 76.3496 110.153 74.1348 110.42 71.2773H106.031V70.1973H111.746ZM123.259 70.9355V71.9883H117.175V70.9355H119.581V69.2676H120.866V70.9355H123.259ZM120.223 72.7266C121.782 72.7266 122.876 73.8887 122.889 75.543C122.876 77.2109 121.782 78.3867 120.223 78.3867C118.692 78.3867 117.557 77.2109 117.571 75.543C117.557 73.8887 118.692 72.7266 120.223 72.7266ZM120.223 73.8066C119.335 73.8066 118.72 74.5312 118.72 75.543C118.72 76.582 119.335 77.2793 120.223 77.2793C121.098 77.2793 121.741 76.582 121.741 75.543C121.741 74.5312 121.098 73.8066 120.223 73.8066ZM127.688 68.9121V81.1621H126.458V75.0781H125.05V80.5879H123.819V69.1855H125.05V74.0117H126.458V68.9121H127.688ZM140.171 75.8164V76.8691H135.195V81.1484H133.923V76.8691H129.002V75.8164H140.171ZM139.119 69.6367V70.6758H135.332C135.352 72.1934 137.239 73.5469 139.556 73.8613L139.078 74.8867C137.068 74.5723 135.332 73.5811 134.593 72.1797C133.835 73.5811 132.105 74.5723 130.123 74.8867L129.63 73.8613C131.921 73.5469 133.807 72.1934 133.855 70.6758H130.041V69.6367H139.119ZM144.534 72.2617C144.534 74.2168 145.354 76.3086 146.995 77.3066L146.27 78.3047C145.121 77.6143 144.342 76.3906 143.932 74.9688C143.474 76.5273 142.633 77.8535 141.444 78.5781L140.637 77.6074C142.373 76.5684 143.276 74.4082 143.276 72.3164V70.0332H144.534V72.2617ZM151.342 68.9121V81.1621H150.098V68.9121H151.342ZM148.799 69.1445V80.5605H147.569V74.2988H145.668V73.2188H147.569V69.1445H148.799ZM163.812 78.5508V79.6309H152.601V78.5508H155.28V75.3516C154.276 74.7979 153.667 73.916 153.667 72.8223C153.667 70.8945 155.554 69.623 158.179 69.623C160.818 69.623 162.704 70.8945 162.704 72.8223C162.704 73.9023 162.116 74.7705 161.132 75.3242V78.5508H163.812ZM158.179 70.6621C156.251 70.6621 154.925 71.4961 154.925 72.8223C154.925 74.1348 156.251 74.9961 158.179 74.9961C160.093 74.9961 161.446 74.1348 161.446 72.8223C161.446 71.4961 160.093 70.6621 158.179 70.6621ZM156.566 78.5508H159.82V75.8164C159.321 75.9463 158.767 76.0078 158.179 76.0078C157.605 76.0078 157.058 75.9463 156.566 75.8301V78.5508Z" fill="black"/>
<path d="M16.4277 239.448C16.4277 240.678 17.2188 241.772 18.5469 242.202L18.0391 242.925C17.0771 242.578 16.3691 241.904 15.9883 241.03C15.6074 242.031 14.8457 242.807 13.791 243.188L13.293 242.446C14.6895 241.968 15.5 240.805 15.5098 239.487V238.628H16.4277V239.448ZM20.6172 238.139V243.305H19.6895V240.678H17.8438V239.917H19.6895V238.139H20.6172ZM17.6875 243.55C19.5234 243.55 20.6465 244.155 20.6465 245.219C20.6465 246.274 19.5234 246.88 17.6875 246.87C15.8516 246.88 14.7188 246.274 14.7285 245.219C14.7188 244.155 15.8516 243.55 17.6875 243.55ZM17.6875 244.272C16.4082 244.272 15.6465 244.614 15.6465 245.219C15.6465 245.805 16.4082 246.137 17.6875 246.137C18.9668 246.137 19.7285 245.805 19.7285 245.219C19.7285 244.614 18.9668 244.272 17.6875 244.272ZM28.95 238.139V242.69H28.032V241.645H26.118V242.368H22.0848V238.54H23.0125V239.721H25.2V238.54H26.118V239.341H28.032V238.139H28.95ZM28.95 243.081V245.229H24.1746V246.04H29.2625V246.782H23.2469V244.536H28.032V243.803H23.2273V243.081H28.95ZM23.0125 241.626H25.2V240.434H23.0125V241.626ZM26.118 240.932H28.032V240.053H26.118V240.932Z" fill="black"/>
<path d="M46.8753 377.217H38V378.695H46.8753V380.912L49.8239 377.956L46.8753 375V377.217Z" fill="white"/>
<path d="M20.8418 92.0801V100.83H19.9629V92.0801H20.8418ZM19.0547 92.3047V100.4H18.1758V97.4219H16.6816V96.6602H18.1758V95.2344H16.8281C16.4033 96.7041 15.4707 97.9785 13.8203 98.9648L13.2734 98.3008C15.1289 97.1973 16.0225 95.7275 16.1836 93.9258H13.7031V93.1641H17.1016C17.1016 93.6133 17.0674 94.0479 16.9941 94.4727H18.1758V92.3047H19.0547ZM24.7703 93.3984C24.7703 94.3945 25.5711 95.3809 26.8699 95.7715L26.4305 96.5039C25.4295 96.1963 24.6971 95.5469 24.3211 94.7363C23.9207 95.6396 23.1492 96.3721 22.1238 96.709L21.6648 95.9766C22.9832 95.5371 23.8426 94.4531 23.8426 93.3887V93.252H21.9383V92.5H26.6551V93.252H24.7703V93.3984ZM28.95 92.0801V96.582H28.032V94.7363H26.4012V93.9844H28.032V92.0801H28.95ZM28.95 96.9824V99.1699H24.1746V100H29.2625V100.732H23.2469V98.4668H28.032V97.7246H23.2273V96.9824H28.95ZM36.8824 92.0801V94.1406H38.152V94.9121H36.8824V97.0215H35.9547V92.0801H36.8824ZM34.4703 92.627C34.4605 94.873 32.9469 96.4453 30.3395 97.1484L29.9684 96.4062C32.0582 95.8545 33.2936 94.7559 33.4645 93.3887H30.3785V92.627H34.4703ZM36.8824 97.3926V100.713H31.277V97.3926H36.8824ZM32.2047 98.1641V99.9707H35.9645V98.1641H32.2047Z" fill="black"/>
<rect x="43" y="252" width="38.4277" height="59.1196" rx="5" fill="#F4F4F4"/>
<path d="M43 289.689H81.4277V306.12C81.4277 308.881 79.1892 311.12 76.4277 311.12H48C45.2386 311.12 43 308.881 43 306.12V289.689Z" fill="black"/>
<rect x="177" y="252" width="38.4277" height="59.1196" rx="5" fill="#F4F4F4"/>
<rect x="110" y="252" width="38.4277" height="59.1196" rx="5" fill="#F4F4F4"/>
<path d="M110 276.387H148.428V306.12C148.428 308.881 146.189 311.12 143.428 311.12H115C112.239 311.12 110 308.881 110 306.12V276.387Z" fill="black"/>
<path d="M177.496 305.208H215.924V306.119C215.924 308.881 213.685 311.119 210.924 311.119H182.496C179.735 311.119 177.496 308.881 177.496 306.119V305.208Z" fill="black"/>
<path d="M122.027 266.271C120.689 266.271 119.684 265.45 119.635 264.327H120.68C120.738 264.933 121.314 265.372 122.027 265.372C122.887 265.372 123.502 264.747 123.502 263.907C123.502 263.048 122.867 262.423 121.979 262.413C121.412 262.413 120.982 262.599 120.738 263.038H119.723L120.182 259.103H124.186V260.021H121.07L120.836 262.003H120.904C121.197 261.72 121.695 261.524 122.232 261.524C123.561 261.524 124.547 262.511 124.547 263.878C124.547 265.274 123.502 266.271 122.027 266.271ZM127.948 266.271C126.639 266.261 125.272 265.489 125.272 262.872C125.272 260.411 126.337 259.005 128.036 259.005C129.335 259.005 130.243 259.815 130.409 260.938H129.345C129.208 260.362 128.749 259.942 128.036 259.942C126.942 259.942 126.307 260.899 126.307 262.491H126.386C126.766 261.896 127.43 261.534 128.202 261.534C129.462 261.534 130.477 262.501 130.477 263.858C130.477 265.226 129.471 266.28 127.948 266.271ZM127.938 265.372C128.798 265.372 129.432 264.708 129.432 263.878C129.432 263.067 128.817 262.413 127.968 262.413C127.098 262.413 126.444 263.097 126.434 263.888C126.444 264.669 127.069 265.372 127.938 265.372ZM132.941 262.462C131.974 262.472 131.447 261.749 131.457 260.704C131.447 259.669 131.994 258.956 132.941 258.956C133.908 258.956 134.425 259.669 134.425 260.704C134.425 261.759 133.888 262.472 132.941 262.462ZM132.941 261.778C133.4 261.778 133.615 261.349 133.615 260.704C133.615 260.069 133.41 259.64 132.941 259.64C132.492 259.649 132.257 260.069 132.257 260.704C132.257 261.349 132.482 261.778 132.941 261.778ZM137.404 266.319C136.437 266.319 135.91 265.606 135.92 264.562C135.91 263.517 136.466 262.804 137.404 262.804C138.371 262.804 138.888 263.517 138.888 264.562C138.888 265.606 138.351 266.319 137.404 266.319ZM137.404 265.626C137.863 265.626 138.078 265.196 138.078 264.562C138.078 263.917 137.873 263.487 137.404 263.487C136.955 263.497 136.72 263.927 136.72 264.562C136.72 265.196 136.955 265.626 137.404 265.626ZM132.257 266.173L137.111 259.103H138L133.146 266.173H132.257Z" fill="black"/>
<path d="M52.4688 264.796V263.927L55.5938 259.103H56.9219V263.888H57.8887V264.796H56.9219V266.173H55.9062V264.796H52.4688ZM53.6016 263.888H55.9062V260.382H55.8281L53.6016 263.829V263.888ZM61.1434 266.271C59.6102 266.271 58.5359 265.44 58.5457 264.288C58.5359 263.38 59.1902 262.638 60.0203 262.511V262.472C59.2977 262.306 58.8094 261.661 58.8094 260.89C58.8094 259.806 59.7957 259.005 61.1434 259.005C62.4812 259.005 63.4578 259.806 63.4676 260.89C63.4578 261.661 62.9695 262.306 62.2566 262.472V262.511C63.077 262.638 63.7312 263.38 63.741 264.288C63.7312 265.44 62.657 266.271 61.1434 266.271ZM61.1434 265.382C62.0613 265.382 62.6473 264.903 62.6473 264.21C62.6473 263.478 62.0125 262.95 61.1434 262.95C60.2645 262.95 59.6199 263.478 59.6395 264.21C59.6199 264.903 60.2059 265.382 61.1434 265.382ZM61.1434 262.101C61.8855 262.101 62.4129 261.651 62.4129 260.987C62.4129 260.333 61.8953 259.884 61.1434 259.884C60.3621 259.884 59.8543 260.323 59.8543 260.987C59.8543 261.651 60.3914 262.101 61.1434 262.101ZM66.1754 262.462C65.2086 262.472 64.6812 261.749 64.691 260.704C64.6812 259.669 65.2281 258.956 66.1754 258.956C67.1422 258.956 67.6598 259.669 67.6598 260.704C67.6598 261.759 67.1227 262.472 66.1754 262.462ZM66.1754 261.778C66.6344 261.778 66.8492 261.349 66.8492 260.704C66.8492 260.069 66.6441 259.64 66.1754 259.64C65.7262 259.649 65.4918 260.069 65.4918 260.704C65.4918 261.349 65.7164 261.778 66.1754 261.778ZM70.6383 266.319C69.6715 266.319 69.1441 265.606 69.1539 264.562C69.1441 263.517 69.7008 262.804 70.6383 262.804C71.6051 262.804 72.1227 263.517 72.1227 264.562C72.1227 265.606 71.5855 266.319 70.6383 266.319ZM70.6383 265.626C71.0973 265.626 71.3121 265.196 71.3121 264.562C71.3121 263.917 71.107 263.487 70.6383 263.487C70.1891 263.497 69.9547 263.927 69.9547 264.562C69.9547 265.196 70.1891 265.626 70.6383 265.626ZM65.4918 266.173L70.3453 259.103H71.234L66.3805 266.173H65.4918Z" fill="black"/>
<path d="M192.234 266.271C190.926 266.261 189.559 265.489 189.559 262.872C189.559 260.411 190.623 259.005 192.322 259.005C193.621 259.005 194.529 259.815 194.695 260.938H193.631C193.494 260.362 193.035 259.942 192.322 259.942C191.229 259.942 190.594 260.899 190.594 262.491H190.672C191.053 261.896 191.717 261.534 192.488 261.534C193.748 261.534 194.764 262.501 194.764 263.858C194.764 265.226 193.758 266.28 192.234 266.271ZM192.225 265.372C193.084 265.372 193.719 264.708 193.719 263.878C193.719 263.067 193.104 262.413 192.254 262.413C191.385 262.413 190.73 263.097 190.721 263.888C190.73 264.669 191.355 265.372 192.225 265.372ZM197.227 262.462C196.261 262.472 195.733 261.749 195.743 260.704C195.733 259.669 196.28 258.956 197.227 258.956C198.194 258.956 198.712 259.669 198.712 260.704C198.712 261.759 198.175 262.472 197.227 262.462ZM197.227 261.778C197.686 261.778 197.901 261.349 197.901 260.704C197.901 260.069 197.696 259.64 197.227 259.64C196.778 259.649 196.544 260.069 196.544 260.704C196.544 261.349 196.768 261.778 197.227 261.778ZM201.69 266.319C200.723 266.319 200.196 265.606 200.206 264.562C200.196 263.517 200.753 262.804 201.69 262.804C202.657 262.804 203.175 263.517 203.175 264.562C203.175 265.606 202.637 266.319 201.69 266.319ZM201.69 265.626C202.149 265.626 202.364 265.196 202.364 264.562C202.364 263.917 202.159 263.487 201.69 263.487C201.241 263.497 201.007 263.927 201.007 264.562C201.007 265.196 201.241 265.626 201.69 265.626ZM196.544 266.173L201.397 259.103H202.286L197.432 266.173H196.544Z" fill="black"/>
<g filter="url(#filter1_i_3365_3227)">
<path d="M139.686 344.783C140.481 344.788 141.126 345.252 141.502 346.053H143.787V344.109H144.549V352.811H143.787V349.441H141.561C141.194 350.32 140.525 350.828 139.686 350.828C138.406 350.828 137.508 349.656 137.508 347.811C137.508 345.965 138.406 344.793 139.686 344.783ZM139.686 345.467C138.826 345.477 138.24 346.395 138.24 347.811C138.24 349.227 138.826 350.145 139.686 350.145C140.535 350.145 141.131 349.227 141.131 347.811C141.131 346.395 140.535 345.477 139.686 345.467ZM141.727 346.697C141.805 347.034 141.854 347.405 141.854 347.811C141.854 348.167 141.814 348.504 141.756 348.807H143.787V346.697H141.727ZM152.882 344.109V352.811H152.12V348.094H150.43V347.449H152.12V344.109H152.882ZM149.903 344.92V347.957H146.788V350.066C148.282 350.066 149.366 350.022 150.636 349.783L150.694 350.428C149.386 350.662 148.262 350.711 146.69 350.721H146.026V347.322H149.161V345.555H145.997V344.92H149.903ZM161.976 348.709V349.334H158.441V351.033H157.679V349.334H154.027V348.709H161.976ZM161.087 351.961V352.605H155.043V350.232H155.804V351.961H161.087ZM155.853 344.393V345.506H160.15V344.393H160.912V347.859H155.091V344.393H155.853ZM155.853 347.234H160.15V346.092H155.853V347.234ZM165.221 344.744C166.588 344.744 167.555 345.574 167.555 346.785C167.555 347.996 166.588 348.826 165.221 348.826C163.854 348.826 162.868 347.996 162.877 346.785C162.868 345.574 163.854 344.744 165.221 344.744ZM165.221 345.418C164.293 345.418 163.62 345.975 163.629 346.785C163.62 347.596 164.293 348.152 165.221 348.152C166.139 348.152 166.803 347.596 166.803 346.785C166.803 345.975 166.139 345.418 165.221 345.418ZM169.498 344.109V352.811H168.737V344.109H169.498ZM162.428 350.242C164.03 350.242 166.237 350.232 168.161 349.949L168.219 350.516C166.237 350.887 164.098 350.896 162.536 350.896L162.428 350.242ZM175.52 345.838C175.52 346.795 176.193 347.771 177.307 348.191L176.906 348.777C176.071 348.455 175.471 347.835 175.158 347.088C174.836 347.918 174.216 348.655 173.361 349.021L172.941 348.426C174.084 347.928 174.787 346.805 174.787 345.838V344.656H175.52V345.838ZM180.305 344.119V349.48H179.572V347.088H178.42V349.207H177.697V344.285H178.42V346.453H179.572V344.119H180.305ZM177.434 349.676C179.23 349.676 180.354 350.242 180.354 351.229C180.354 352.205 179.23 352.771 177.434 352.771C175.627 352.771 174.514 352.205 174.523 351.229C174.514 350.242 175.627 349.676 177.434 349.676ZM177.434 350.262C176.105 350.262 175.275 350.623 175.285 351.229C175.275 351.824 176.105 352.176 177.434 352.176C178.752 352.176 179.582 351.824 179.592 351.229C179.582 350.623 178.752 350.262 177.434 350.262ZM188.061 344.109V346.316H189.37V346.971H188.061V349.207H187.3V344.109H188.061ZM185.679 344.666C185.679 346.863 184.145 348.426 181.577 349.109L181.264 348.514C183.393 347.938 184.707 346.775 184.868 345.301H181.655V344.666H185.679ZM188.061 349.607V352.791H187.3V350.232H182.378V349.607H188.061ZM193.572 344.266C195.505 344.266 196.638 344.793 196.638 345.76C196.638 346.746 195.505 347.273 193.572 347.283C191.638 347.273 190.496 346.746 190.496 345.76C190.496 344.793 191.638 344.266 193.572 344.266ZM193.572 344.842C192.127 344.842 191.287 345.193 191.296 345.76C191.287 346.365 192.127 346.697 193.572 346.697C195.007 346.697 195.857 346.365 195.857 345.76C195.857 345.193 195.007 344.842 193.572 344.842ZM197.527 347.869V348.494H189.617V347.869H197.527ZM196.511 349.246V351.189H191.355V352.088H196.775V352.693H190.593V350.623H195.759V349.832H190.574V349.246H196.511ZM208.109 349.373V350.008H204.495V352.791H203.743V350.008H200.159V349.373H208.109ZM207.21 347.85V348.475H201.224V344.52H207.112V345.145H201.986V346.16H206.907V346.775H201.986V347.85H207.21ZM216.461 351.092V351.727H208.512V351.092H210.729V349.021H209.234V348.387H210.592V345.555H209.215V344.92H215.699V345.555H214.322V348.387H215.68V349.021H214.186V351.092H216.461ZM211.354 348.387H213.57V345.555H211.354V348.387ZM211.5 351.092H213.424V349.021H211.5V351.092ZM221.19 345.613V346.238H216.835V345.613H218.641V344.373H219.403V345.613H221.19ZM219.012 346.824C220.106 346.824 220.887 347.645 220.897 348.797C220.887 349.959 220.106 350.789 219.012 350.789C217.929 350.789 217.147 349.959 217.147 348.797C217.147 347.645 217.929 346.824 219.012 346.824ZM219.012 347.469C218.329 347.479 217.831 348.035 217.831 348.797C217.831 349.568 218.329 350.125 219.012 350.115C219.706 350.125 220.214 349.568 220.214 348.797C220.214 348.035 219.706 347.479 219.012 347.469ZM224.247 344.109V352.791H223.514V348.406H222.362V352.361H221.639V344.324H222.362V347.771H223.514V344.109H224.247ZM229.582 345.34C229.572 346.502 231.125 347.488 232.638 347.713L232.355 348.318C230.998 348.089 229.679 347.366 229.152 346.316C228.625 347.366 227.301 348.089 225.968 348.318L225.666 347.713C227.17 347.488 228.722 346.502 228.722 345.34V345.281H225.939V344.656H232.355V345.281H229.582V345.34ZM233.107 349.061V349.695H229.513V352.791H228.761V349.695H225.197V349.061H233.107ZM236.118 346.58C236.118 347.957 236.791 349.451 237.944 350.135L237.504 350.73C236.669 350.223 236.069 349.295 235.766 348.24C235.444 349.393 234.799 350.384 233.93 350.916L233.442 350.34C234.643 349.637 235.375 348.094 235.375 346.609V344.93H236.118V346.58ZM240.981 344.109V352.791H240.239V344.109H240.981ZM239.184 344.295V352.352H238.461V347.879H236.987V347.225H238.461V344.295H239.184ZM249.831 351.033V351.678H241.882V351.033H243.855V348.689C243.113 348.304 242.663 347.679 242.663 346.893C242.663 345.545 243.982 344.666 245.837 344.656C247.693 344.666 249.011 345.545 249.011 346.893C249.011 347.664 248.576 348.284 247.859 348.67V351.033H249.831ZM245.837 345.291C244.411 345.281 243.405 345.926 243.405 346.893C243.405 347.859 244.411 348.514 245.837 348.514C247.253 348.514 248.269 347.859 248.269 346.893C248.269 345.926 247.253 345.281 245.837 345.291ZM244.607 351.033H247.087V348.963C246.711 349.065 246.291 349.119 245.837 349.119C245.393 349.119 244.978 349.07 244.607 348.973V351.033Z" fill="black"/>
</g>
<path d="M67.8239 276.387V280.602H66.5865V278.548L63.3662 281.802C63.6146 282.162 63.8056 282.553 63.9391 282.974C64.0725 283.396 64.1392 283.827 64.1392 284.267C64.1392 285.42 63.7445 286.397 62.9551 287.199C62.1657 288.001 61.2039 288.403 60.0696 288.403C58.9354 288.403 57.9735 288.001 57.1841 287.199C56.3947 286.397 56 285.42 56 284.267C56 283.114 56.3947 282.137 57.1841 281.335C57.9735 280.532 58.9354 280.131 60.0696 280.131C60.5055 280.131 60.9272 280.2 61.3345 280.337C61.7418 280.474 62.1225 280.669 62.4766 280.921L65.6969 277.649H63.6805V276.387H67.8239ZM60.0733 281.389C59.2891 281.389 58.6204 281.669 58.0672 282.228C57.514 282.788 57.2374 283.466 57.2374 284.263C57.2374 285.06 57.5128 285.74 58.0635 286.302C58.6142 286.864 59.2817 287.145 60.066 287.145C60.8502 287.145 61.5189 286.865 62.0721 286.306C62.6252 285.746 62.9018 285.068 62.9018 284.271C62.9018 283.474 62.6265 282.794 62.0757 282.232C61.525 281.67 60.8575 281.389 60.0733 281.389Z" fill="#BBBBBB"/>
<path d="M129.308 320.133V320.885H125.773V321.725C127.379 321.812 128.332 322.354 128.332 323.268C128.332 324.264 127.199 324.82 125.314 324.811C123.41 324.82 122.277 324.264 122.277 323.268C122.277 322.354 123.229 321.812 124.855 321.725V320.885H121.33V320.133H129.308ZM125.314 322.428C123.976 322.428 123.214 322.73 123.214 323.268C123.214 323.795 123.976 324.107 125.314 324.098C126.632 324.107 127.404 323.795 127.404 323.268C127.404 322.73 126.632 322.428 125.314 322.428ZM128.595 316.48V317.223H125.939C126.071 318.067 127.301 318.785 128.898 318.941L128.566 319.674C127.052 319.498 125.797 318.858 125.324 317.926C124.836 318.858 123.586 319.498 122.072 319.674L121.75 318.941C123.322 318.785 124.557 318.067 124.689 317.223H122.062V316.48H128.595ZM132.778 317.389C132.778 318.619 133.569 319.713 134.897 320.143L134.389 320.865C133.427 320.519 132.719 319.845 132.338 318.971C131.957 319.972 131.196 320.748 130.141 321.129L129.643 320.387C131.039 319.908 131.85 318.746 131.86 317.428V316.568H132.778V317.389ZM136.967 316.08V321.246H136.039V318.619H134.194V317.857H136.039V316.08H136.967ZM134.037 321.49C135.873 321.49 136.996 322.096 136.996 323.16C136.996 324.215 135.873 324.82 134.037 324.811C132.202 324.82 131.069 324.215 131.079 323.16C131.069 322.096 132.202 321.49 134.037 321.49ZM134.037 322.213C132.758 322.213 131.996 322.555 131.996 323.16C131.996 323.746 132.758 324.078 134.037 324.078C135.317 324.078 136.079 323.746 136.079 323.16C136.079 322.555 135.317 322.213 134.037 322.213Z" fill="black"/>
<path d="M61.2047 316.09V318.033H62.484V318.805H61.2047V321.021H60.277V316.09H61.2047ZM61.2047 321.48V324.713H55.5992V321.48H61.2047ZM56.5074 322.203V323.971H60.3062V322.203H56.5074ZM55.6578 316.52V319.654C56.8443 319.645 58.0846 319.542 59.4273 319.273L59.5445 320.035C58.0699 320.338 56.732 320.416 55.443 320.426H54.7301V316.52H55.6578ZM65.7777 317.389C65.7777 318.619 66.5687 319.713 67.8969 320.143L67.3891 320.865C66.4271 320.519 65.7191 319.845 65.3383 318.971C64.9574 319.972 64.1957 320.748 63.141 321.129L62.643 320.387C64.0395 319.908 64.85 318.746 64.8598 317.428V316.568H65.7777V317.389ZM69.9672 316.08V321.246H69.0395V318.619H67.1937V317.857H69.0395V316.08H69.9672ZM67.0375 321.49C68.8734 321.49 69.9965 322.096 69.9965 323.16C69.9965 324.215 68.8734 324.82 67.0375 324.811C65.2016 324.82 64.0687 324.215 64.0785 323.16C64.0687 322.096 65.2016 321.49 67.0375 321.49ZM67.0375 322.213C65.7582 322.213 64.9965 322.555 64.9965 323.16C64.9965 323.746 65.7582 324.078 67.0375 324.078C68.3168 324.078 69.0785 323.746 69.0785 323.16C69.0785 322.555 68.3168 322.213 67.0375 322.213Z" fill="black"/>
<path d="M190.703 316.734C191.499 316.734 192.158 317.193 192.548 317.984H194.707V316.08H195.625V324.85H194.707V321.49H192.607C192.231 322.369 191.543 322.877 190.703 322.877C189.394 322.877 188.476 321.686 188.486 319.801C188.476 317.926 189.394 316.734 190.703 316.734ZM190.703 317.564C189.912 317.564 189.365 318.424 189.365 319.801C189.365 321.188 189.912 322.047 190.703 322.047C191.494 322.047 192.041 321.188 192.041 319.801C192.041 318.424 191.494 317.564 190.703 317.564ZM192.812 318.746C192.876 319.068 192.92 319.42 192.92 319.801C192.92 320.133 192.89 320.44 192.832 320.729H194.707V318.746H192.812ZM199.778 317.389C199.778 318.619 200.569 319.713 201.897 320.143L201.389 320.865C200.427 320.519 199.719 319.845 199.338 318.971C198.957 319.972 198.196 320.748 197.141 321.129L196.643 320.387C198.039 319.908 198.85 318.746 198.86 317.428V316.568H199.778V317.389ZM203.967 316.08V321.246H203.039V318.619H201.194V317.857H203.039V316.08H203.967ZM201.037 321.49C202.873 321.49 203.996 322.096 203.996 323.16C203.996 324.215 202.873 324.82 201.037 324.811C199.202 324.82 198.069 324.215 198.079 323.16C198.069 322.096 199.202 321.49 201.037 321.49ZM201.037 322.213C199.758 322.213 198.996 322.555 198.996 323.16C198.996 323.746 199.758 324.078 201.037 324.078C202.317 324.078 203.079 323.746 203.079 323.16C203.079 322.555 202.317 322.213 201.037 322.213Z" fill="black"/>
<path d="M195.252 288.402V287.011H193.883V285.851H195.252V284.131C194.314 283.989 193.537 283.551 192.922 282.817C192.307 282.083 192 281.234 192 280.271C192 279.19 192.375 278.273 193.124 277.518C193.874 276.764 194.778 276.387 195.835 276.387C196.893 276.387 197.797 276.764 198.546 277.518C199.296 278.273 199.671 279.19 199.671 280.271C199.671 281.234 199.363 282.083 198.748 282.817C198.134 283.551 197.357 283.989 196.418 284.131V285.851H197.788V287.011H196.418V288.402H195.252ZM195.832 282.997C196.571 282.997 197.201 282.733 197.722 282.206C198.244 281.678 198.504 281.039 198.504 280.288C198.504 279.537 198.245 278.896 197.726 278.367C197.207 277.837 196.578 277.572 195.839 277.572C195.1 277.572 194.47 277.836 193.948 278.363C193.427 278.891 193.166 279.53 193.166 280.281C193.166 281.032 193.426 281.672 193.945 282.202C194.464 282.732 195.093 282.997 195.832 282.997Z" fill="#BBBBBB"/>
<path d="M130.748 276.387V277.779V278.939V280.659C131.686 280.801 132.463 281.238 133.078 281.972C133.693 282.707 134 283.555 134 284.519C134 285.599 133.625 286.517 132.876 287.271C132.126 288.026 131.222 288.403 130.165 288.403C129.107 288.403 128.203 288.026 127.454 287.271C126.704 286.517 126.329 285.599 126.329 284.519C126.329 283.555 126.637 282.707 127.252 281.972C127.866 281.238 128.643 280.801 129.582 280.659V278.939V277.779V276.387H130.748ZM130.168 281.793C129.429 281.793 128.799 282.057 128.278 282.584C127.756 283.111 127.496 283.751 127.496 284.502C127.496 285.253 127.755 285.893 128.274 286.423C128.793 286.953 129.422 287.218 130.161 287.218C130.9 287.218 131.53 286.954 132.052 286.427C132.573 285.899 132.834 285.26 132.834 284.509C132.834 283.758 132.574 283.117 132.055 282.587C131.536 282.058 130.907 281.793 130.168 281.793Z" fill="#BBBBBB"/>
<g filter="url(#filter2_i_3365_3227)">
<path d="M139.686 203.107C140.481 203.112 141.126 203.575 141.502 204.376H143.787V202.433H144.549V211.134H143.787V207.765H141.561C141.194 208.644 140.525 209.152 139.686 209.152C138.406 209.152 137.508 207.98 137.508 206.134C137.508 204.288 138.406 203.116 139.686 203.107ZM139.686 203.79C138.826 203.8 138.24 204.718 138.24 206.134C138.24 207.55 138.826 208.468 139.686 208.468C140.535 208.468 141.131 207.55 141.131 206.134C141.131 204.718 140.535 203.8 139.686 203.79ZM141.727 205.021C141.805 205.358 141.854 205.729 141.854 206.134C141.854 206.49 141.814 206.827 141.756 207.13H143.787V205.021H141.727ZM152.882 202.433V211.134H152.12V206.417H150.43V205.773H152.12V202.433H152.882ZM149.903 203.243V206.281H146.788V208.39C148.282 208.39 149.366 208.346 150.636 208.107L150.694 208.751C149.386 208.986 148.262 209.034 146.69 209.044H146.026V205.646H149.161V203.878H145.997V203.243H149.903ZM161.976 207.032V207.657H158.441V209.357H157.679V207.657H154.027V207.032H161.976ZM161.087 210.284V210.929H155.043V208.556H155.804V210.284H161.087ZM155.853 202.716V203.829H160.15V202.716H160.912V206.183H155.091V202.716H155.853ZM155.853 205.558H160.15V204.415H155.853V205.558ZM165.221 203.068C166.588 203.068 167.555 203.898 167.555 205.109C167.555 206.32 166.588 207.15 165.221 207.15C163.854 207.15 162.868 206.32 162.877 205.109C162.868 203.898 163.854 203.068 165.221 203.068ZM165.221 203.741C164.293 203.741 163.62 204.298 163.629 205.109C163.62 205.919 164.293 206.476 165.221 206.476C166.139 206.476 166.803 205.919 166.803 205.109C166.803 204.298 166.139 203.741 165.221 203.741ZM169.498 202.433V211.134H168.737V202.433H169.498ZM162.428 208.566C164.03 208.566 166.237 208.556 168.161 208.273L168.219 208.839C166.237 209.21 164.098 209.22 162.536 209.22L162.428 208.566ZM175.52 204.161C175.52 205.118 176.193 206.095 177.307 206.515L176.906 207.101C176.071 206.779 175.471 206.158 175.158 205.411C174.836 206.241 174.216 206.979 173.361 207.345L172.941 206.749C174.084 206.251 174.787 205.128 174.787 204.161V202.98H175.52V204.161ZM180.305 202.443V207.804H179.572V205.411H178.42V207.531H177.697V202.609H178.42V204.777H179.572V202.443H180.305ZM177.434 207.999C179.23 207.999 180.354 208.566 180.354 209.552C180.354 210.529 179.23 211.095 177.434 211.095C175.627 211.095 174.514 210.529 174.523 209.552C174.514 208.566 175.627 207.999 177.434 207.999ZM177.434 208.585C176.105 208.585 175.275 208.947 175.285 209.552C175.275 210.148 176.105 210.499 177.434 210.499C178.752 210.499 179.582 210.148 179.592 209.552C179.582 208.947 178.752 208.585 177.434 208.585ZM188.061 202.433V204.64H189.37V205.294H188.061V207.531H187.3V202.433H188.061ZM185.679 202.99C185.679 205.187 184.145 206.749 181.577 207.433L181.264 206.837C183.393 206.261 184.707 205.099 184.868 203.624H181.655V202.99H185.679ZM188.061 207.931V211.115H187.3V208.556H182.378V207.931H188.061ZM193.572 202.589C195.505 202.589 196.638 203.116 196.638 204.083C196.638 205.07 195.505 205.597 193.572 205.607C191.638 205.597 190.496 205.07 190.496 204.083C190.496 203.116 191.638 202.589 193.572 202.589ZM193.572 203.165C192.127 203.165 191.287 203.517 191.296 204.083C191.287 204.689 192.127 205.021 193.572 205.021C195.007 205.021 195.857 204.689 195.857 204.083C195.857 203.517 195.007 203.165 193.572 203.165ZM197.527 206.193V206.818H189.617V206.193H197.527ZM196.511 207.57V209.513H191.355V210.411H196.775V211.017H190.593V208.947H195.759V208.156H190.574V207.57H196.511ZM208.109 207.697V208.331H204.495V211.115H203.743V208.331H200.159V207.697H208.109ZM207.21 206.173V206.798H201.224V202.843H207.112V203.468H201.986V204.484H206.907V205.099H201.986V206.173H207.21ZM216.461 209.415V210.05H208.512V209.415H210.729V207.345H209.234V206.71H210.592V203.878H209.215V203.243H215.699V203.878H214.322V206.71H215.68V207.345H214.186V209.415H216.461ZM211.354 206.71H213.57V203.878H211.354V206.71ZM211.5 209.415H213.424V207.345H211.5V209.415ZM221.19 203.937V204.562H216.835V203.937H218.641V202.697H219.403V203.937H221.19ZM219.012 205.148C220.106 205.148 220.887 205.968 220.897 207.12C220.887 208.282 220.106 209.113 219.012 209.113C217.929 209.113 217.147 208.282 217.147 207.12C217.147 205.968 217.929 205.148 219.012 205.148ZM219.012 205.792C218.329 205.802 217.831 206.359 217.831 207.12C217.831 207.892 218.329 208.448 219.012 208.439C219.706 208.448 220.214 207.892 220.214 207.12C220.214 206.359 219.706 205.802 219.012 205.792ZM224.247 202.433V211.115H223.514V206.73H222.362V210.685H221.639V202.648H222.362V206.095H223.514V202.433H224.247ZM229.582 203.663C229.572 204.825 231.125 205.812 232.638 206.036L232.355 206.642C230.998 206.412 229.679 205.69 229.152 204.64C228.625 205.69 227.301 206.412 225.968 206.642L225.666 206.036C227.17 205.812 228.722 204.825 228.722 203.663V203.605H225.939V202.98H232.355V203.605H229.582V203.663ZM233.107 207.384V208.019H229.513V211.115H228.761V208.019H225.197V207.384H233.107ZM236.118 204.904C236.118 206.281 236.791 207.775 237.944 208.458L237.504 209.054C236.669 208.546 236.069 207.618 235.766 206.564C235.444 207.716 234.799 208.707 233.93 209.24L233.442 208.663C234.643 207.96 235.375 206.417 235.375 204.933V203.253H236.118V204.904ZM240.981 202.433V211.115H240.239V202.433H240.981ZM239.184 202.618V210.675H238.461V206.202H236.987V205.548H238.461V202.618H239.184ZM249.831 209.357V210.001H241.882V209.357H243.855V207.013C243.113 206.627 242.663 206.002 242.663 205.216C242.663 203.868 243.982 202.99 245.837 202.98C247.693 202.99 249.011 203.868 249.011 205.216C249.011 205.988 248.576 206.608 247.859 206.993V209.357H249.831ZM245.837 203.615C244.411 203.605 243.405 204.249 243.405 205.216C243.405 206.183 244.411 206.837 245.837 206.837C247.253 206.837 248.269 206.183 248.269 205.216C248.269 204.249 247.253 203.605 245.837 203.615ZM244.607 209.357H247.087V207.286C246.711 207.389 246.291 207.443 245.837 207.443C245.393 207.443 244.978 207.394 244.607 207.296V209.357Z" fill="black"/>
</g>
<path d="M57.4795 178.396V179.158H49.501V178.396H53.0264V177.518H50.5459V174.266H51.4639V175.193H55.5166V174.266H56.4443V177.518H53.9443V178.396H57.4795ZM51.4639 176.775H55.5166V175.896H51.4639V176.775ZM56.5029 179.881V182.723H50.458V179.881H56.5029ZM51.376 180.613V181.971H55.6045V180.613H51.376Z" fill="black"/>
<path d="M153.146 174.08V177.566H154.504V178.338H153.146V182.82H152.218V174.08H153.146ZM150.861 174.998C150.851 177.527 149.738 179.783 146.857 181.209L146.339 180.486C148.532 179.393 149.723 177.811 149.914 175.77H146.779V174.998H150.861ZM158.657 174.227C160.629 174.227 161.782 174.754 161.782 175.73C161.782 176.707 160.629 177.244 158.657 177.244C156.684 177.244 155.532 176.707 155.532 175.73C155.532 174.754 156.684 174.227 158.657 174.227ZM158.657 174.91C157.26 174.91 156.489 175.213 156.498 175.73C156.489 176.268 157.26 176.551 158.657 176.551C160.053 176.551 160.825 176.268 160.825 175.73C160.825 175.213 160.053 174.91 158.657 174.91ZM162.651 177.781V178.523H154.672V177.781H162.651ZM161.645 179.197V181.248H156.547V182.029H161.889V182.742H155.639V180.574H160.727V179.891H155.629V179.197H161.645Z" fill="black"/>
<path d="M97.7027 174.734C98.4986 174.734 99.1578 175.193 99.5484 175.984H101.707V174.08H102.625V182.85H101.707V179.49H99.607C99.2311 180.369 98.5426 180.877 97.7027 180.877C96.3941 180.877 95.4762 179.686 95.4859 177.801C95.4762 175.926 96.3941 174.734 97.7027 174.734ZM97.7027 175.564C96.9117 175.564 96.3648 176.424 96.3648 177.801C96.3648 179.188 96.9117 180.047 97.7027 180.047C98.4937 180.047 99.0406 179.188 99.0406 177.801C99.0406 176.424 98.4937 175.564 97.7027 175.564ZM99.8121 176.746C99.8756 177.068 99.9195 177.42 99.9195 177.801C99.9195 178.133 99.8902 178.44 99.8316 178.729H101.707V176.746H99.8121ZM111.67 178.562V179.305H103.662V178.562H111.67ZM110.664 174.275V176.434H105.606V177.186H110.84V177.898H104.688V175.75H109.737V175.008H104.668V174.275H110.664ZM110.674 180.018V182.723H104.727V180.018H110.674ZM105.645 180.76V181.971H109.756V180.76H105.645Z" fill="black"/>
<path d="M200.783 175.018C200.783 175.501 200.739 175.975 200.656 176.434H202.697V174.07H203.615V182.82H202.697V179.539H200.343V178.777H202.697V177.176H200.48C199.982 178.802 198.849 180.208 196.789 181.219L196.3 180.477C198.556 179.368 199.674 177.781 199.855 175.76H196.701V175.018H200.783ZM208.657 174.178C210.629 174.178 211.782 174.715 211.782 175.682C211.782 176.658 210.629 177.195 208.657 177.195C206.684 177.195 205.532 176.658 205.532 175.682C205.532 174.715 206.684 174.178 208.657 174.178ZM208.657 174.871C207.26 174.881 206.489 175.164 206.498 175.682C206.489 176.229 207.26 176.502 208.657 176.502C210.053 176.502 210.825 176.229 210.825 175.682C210.825 175.164 210.053 174.881 208.657 174.871ZM212.651 177.713V178.445H209.116V179.197H211.645V181.248H206.547V182.029H211.889V182.742H205.639V180.574H210.727V179.891H205.629V179.197H208.188V178.445H204.672V177.713H212.651Z" fill="black"/>
<rect x="34" y="109.732" width="38.4277" height="59.1196" rx="5" fill="#F4F4F4"/>
<path d="M34 131.163H72.4277V163.852C72.4277 166.613 70.1892 168.852 67.4277 168.852H39C36.2386 168.852 34 166.613 34 163.852V131.163Z" fill="black"/>
<rect x="135" y="109.732" width="38.4277" height="59.1196" rx="5" fill="#F4F4F4"/>
<rect x="84" y="109.732" width="38.4277" height="59.1196" rx="5" fill="#F4F4F4"/>
<rect x="185" y="109.732" width="38.4277" height="59.1196" rx="5" fill="#F4F4F4"/>
<g clip-path="url(#clip0_3365_3227)">
<path d="M56.4414 137.511L55.9694 137.924C55.8317 138.052 55.6694 138.115 55.4825 138.115C55.2957 138.115 55.1334 138.061 54.9957 137.953C54.858 137.845 54.7646 137.707 54.7154 137.54C54.6662 137.373 54.6712 137.196 54.7302 137.009L54.9662 136.271L54.4646 135.976C54.3073 135.888 54.1966 135.76 54.1327 135.593C54.0688 135.426 54.0614 135.258 54.1106 135.091C54.1598 134.924 54.2581 134.794 54.4056 134.7C54.5531 134.607 54.7203 134.56 54.9072 134.56H55.4973L55.6743 134C55.7333 133.813 55.8341 133.663 55.9767 133.55C56.1193 133.437 56.2742 133.38 56.4414 133.38C56.6086 133.38 56.7635 133.437 56.9061 133.55C57.0487 133.663 57.1495 133.813 57.2085 134L57.3856 134.56H57.9757C58.1625 134.56 58.3273 134.607 58.4699 134.7C58.6125 134.794 58.7133 134.924 58.7723 135.091C58.8411 135.268 58.8411 135.44 58.7723 135.608C58.7034 135.775 58.5953 135.898 58.4477 135.976L57.9167 136.271L58.1527 137.009C58.2117 137.196 58.2166 137.375 58.1674 137.548C58.1183 137.72 58.0248 137.855 57.8871 137.953C57.7396 138.061 57.5749 138.115 57.393 138.115C57.211 138.115 57.0512 138.052 56.9135 137.924L56.4414 137.511ZM56.4414 136.33C56.6086 136.33 56.7488 136.274 56.8619 136.161C56.975 136.048 57.0315 135.908 57.0315 135.74C57.0315 135.573 56.975 135.433 56.8619 135.32C56.7488 135.207 56.6086 135.15 56.4414 135.15C56.2742 135.15 56.1341 135.207 56.021 135.32C55.9079 135.433 55.8513 135.573 55.8513 135.74C55.8513 135.908 55.9079 136.048 56.021 136.161C56.1341 136.274 56.2742 136.33 56.4414 136.33ZM53.9631 142.762C54.1893 143.353 54.1155 143.903 53.7418 144.415C53.368 144.926 52.8419 145.182 52.1633 145.182C51.8387 145.182 51.5314 145.098 51.2413 144.931C50.9511 144.764 50.7372 144.543 50.5995 144.267C49.7833 144.385 49.1071 144.176 48.5711 143.64C48.0351 143.104 47.8163 142.418 47.9146 141.582C47.6196 141.415 47.3934 141.186 47.236 140.896C47.0787 140.606 47 140.274 47 139.9C47 139.301 47.2729 138.816 47.8187 138.447C48.3646 138.079 48.8981 138.002 49.4194 138.219L50.334 138.602C50.5307 138.297 50.7913 138.049 51.1159 137.857C51.4404 137.666 51.7896 137.56 52.1633 137.54V136.33H53.0484V137.658C53.4123 137.766 53.7123 137.936 53.9483 138.167C54.1843 138.398 54.386 138.72 54.5531 139.133H55.8513V140.019H54.6417C54.622 140.392 54.5212 140.741 54.3392 141.066C54.1573 141.39 53.9139 141.651 53.609 141.848L53.9631 142.762ZM50.3045 143.116C50.3045 142.851 50.3266 142.593 50.3709 142.342C50.4151 142.091 50.4815 141.848 50.57 141.612C50.3438 141.72 50.1004 141.796 49.8398 141.84C49.5792 141.885 49.321 141.897 49.0653 141.877C49.0653 142.261 49.176 142.563 49.3972 142.785C49.6185 143.006 49.9209 143.116 50.3045 143.116ZM49.2128 140.697C49.5275 140.697 49.8054 140.658 50.0463 140.579C50.2873 140.5 50.5995 140.343 50.9831 140.107L49.2128 139.369C48.9276 139.251 48.6842 139.254 48.4826 139.377C48.281 139.5 48.1802 139.694 48.1802 139.96C48.1802 140.215 48.2638 140.402 48.431 140.52C48.5982 140.638 48.8588 140.697 49.2128 140.697ZM52.1633 144.002C52.4092 144.002 52.6083 143.916 52.7607 143.743C52.9132 143.571 52.9501 143.392 52.8714 143.205L52.0748 141.199C51.8879 141.513 51.7428 141.828 51.6396 142.143C51.5363 142.458 51.4847 142.743 51.4847 142.998C51.4847 143.323 51.5412 143.571 51.6543 143.743C51.7674 143.916 51.9371 144.002 52.1633 144.002ZM53.1369 140.727C53.2353 140.628 53.314 140.498 53.373 140.336C53.432 140.173 53.4615 140.004 53.4615 139.827C53.4615 139.512 53.3582 139.246 53.1517 139.03C52.9452 138.814 52.6894 138.706 52.3846 138.706C52.2075 138.706 52.0403 138.735 51.883 138.794C51.7256 138.853 51.5929 138.937 51.4847 139.045L52.6354 139.576L53.1369 140.727Z" fill="white"/>
</g>
<path d="M84 157.028H122.428V163.852C122.428 166.613 120.189 168.852 117.428 168.852H89C86.2386 168.852 84 166.613 84 163.852V157.028Z" fill="black"/>
<path d="M135 162.94H173.428V163.852C173.428 166.613 171.189 168.852 168.428 168.852H140C137.239 168.852 135 166.613 135 163.852V162.94Z" fill="black"/>
<path d="M185 157H223V164C223 166.761 220.761 169 218 169H190C187.239 169 185 166.761 185 164V157Z" fill="black"/>
<path d="M154.173 144.465C153.569 144.465 153.001 144.37 152.468 144.182C151.934 143.993 151.446 143.726 151.005 143.382L150.099 144.271C149.981 144.389 149.83 144.448 149.647 144.448C149.463 144.448 149.313 144.389 149.194 144.271C149.075 144.152 149.016 144.001 149.016 143.818C149.016 143.635 149.075 143.484 149.194 143.365L150.083 142.476C149.738 142.035 149.471 141.544 149.283 141.005C149.094 140.466 149 139.895 149 139.292C149 137.848 149.501 136.625 150.503 135.622C151.506 134.62 152.729 134.119 154.173 134.119H159.346V139.292C159.346 140.736 158.845 141.959 157.843 142.961C156.84 143.964 155.617 144.465 154.173 144.465ZM154.173 143.171C155.251 143.171 156.167 142.794 156.921 142.04C157.675 141.286 158.053 140.37 158.053 139.292V135.412H154.173C153.095 135.412 152.179 135.789 151.425 136.544C150.67 137.298 150.293 138.214 150.293 139.292C150.293 139.712 150.358 140.114 150.487 140.496C150.617 140.879 150.794 141.226 151.021 141.539L154.367 138.193C154.485 138.074 154.636 138.015 154.82 138.015C155.003 138.015 155.154 138.074 155.272 138.193C155.402 138.322 155.466 138.475 155.466 138.653C155.466 138.831 155.402 138.985 155.272 139.114L151.926 142.46C152.238 142.686 152.586 142.862 152.969 142.986C153.351 143.109 153.753 143.171 154.173 143.171Z" fill="#BBBBBB"/>
<path d="M203.321 145.204V142.75L201.399 144.642L200.572 143.815L203.321 141.066V139.883H202.138L199.389 142.632L198.562 141.805L200.453 139.883H198V138.701H200.453L198.562 136.779L199.389 135.952L202.138 138.701H203.321V137.518L200.572 134.769L201.399 133.942L203.321 135.833V133.38H204.503V135.833L206.425 133.942L207.252 134.769L204.503 137.518V138.701H205.686L208.435 135.952L209.262 136.779L207.37 138.701H209.824V139.883H207.37L209.262 141.805L208.435 142.632L205.686 139.883H204.503V141.066L207.252 143.815L206.425 144.642L204.503 142.75V145.204H203.321Z" fill="#BBBBBB"/>
<path d="M102.375 135.53V133.38H103.449V135.53H102.375ZM105.949 137.008L105.21 136.269L106.714 134.724L107.467 135.489L105.949 137.008ZM106.674 139.829V138.755H108.824V139.829H106.674ZM102.375 145.204V143.054H103.449V145.204H102.375ZM99.8754 136.981L98.3436 135.489L99.1095 134.737L100.628 136.255L99.8754 136.981ZM106.701 143.86L105.21 142.315L105.935 141.59L107.467 143.068L106.701 143.86ZM97 139.829V138.755H99.1498V139.829H97ZM99.1095 143.86L98.3571 143.094L99.8619 141.59L100.252 141.952L100.641 142.329L99.1095 143.86ZM102.912 142.517C102.016 142.517 101.255 142.203 100.628 141.576C100.001 140.949 99.6873 140.188 99.6873 139.292C99.6873 138.396 100.001 137.635 100.628 137.008C101.255 136.381 102.016 136.067 102.912 136.067C103.808 136.067 104.569 136.381 105.196 137.008C105.823 137.635 106.137 138.396 106.137 139.292C106.137 140.188 105.823 140.949 105.196 141.576C104.569 142.203 103.808 142.517 102.912 142.517ZM102.912 141.442C103.503 141.442 104.009 141.231 104.43 140.81C104.851 140.389 105.062 139.883 105.062 139.292C105.062 138.701 104.851 138.195 104.43 137.774C104.009 137.353 103.503 137.142 102.912 137.142C102.321 137.142 101.815 137.353 101.394 137.774C100.973 138.195 100.762 138.701 100.762 139.292C100.762 139.883 100.973 140.389 101.394 140.81C101.815 141.231 102.321 141.442 102.912 141.442Z" fill="#BBBBBB"/>
<path d="M46.1836 124.003C44.875 123.993 43.5078 123.221 43.5078 120.604C43.5078 118.143 44.5723 116.737 46.2715 116.737C47.5703 116.737 48.4785 117.548 48.6445 118.671H47.5801C47.4434 118.094 46.9844 117.675 46.2715 117.675C45.1777 117.675 44.543 118.632 44.543 120.223H44.6211C45.002 119.628 45.666 119.266 46.4375 119.266C47.6973 119.266 48.7129 120.233 48.7129 121.591C48.7129 122.958 47.707 124.012 46.1836 124.003ZM46.1738 123.104C47.0332 123.104 47.668 122.44 47.668 121.61C47.668 120.8 47.0527 120.145 46.2031 120.145C45.334 120.145 44.6797 120.829 44.6699 121.62C44.6797 122.401 45.3047 123.104 46.1738 123.104ZM52.0164 124.003C50.3758 124.003 49.4187 122.684 49.4187 120.37C49.4187 118.075 50.3953 116.737 52.0164 116.737C53.6375 116.737 54.6141 118.075 54.6141 120.37C54.6141 122.684 53.6473 124.003 52.0164 124.003ZM52.0164 123.075C52.9734 123.075 53.5398 122.137 53.5398 120.37C53.5398 118.612 52.9637 117.645 52.0164 117.645C51.0691 117.645 50.493 118.612 50.493 120.37C50.493 122.137 51.0594 123.075 52.0164 123.075ZM57.0484 120.194C56.0816 120.204 55.5543 119.481 55.5641 118.436C55.5543 117.401 56.1012 116.688 57.0484 116.688C58.0152 116.688 58.5328 117.401 58.5328 118.436C58.5328 119.491 57.9957 120.204 57.0484 120.194ZM57.0484 119.51C57.5074 119.51 57.7223 119.081 57.7223 118.436C57.7223 117.802 57.5172 117.372 57.0484 117.372C56.5992 117.382 56.3648 117.802 56.3648 118.436C56.3648 119.081 56.5895 119.51 57.0484 119.51ZM61.5113 124.052C60.5445 124.052 60.0172 123.339 60.027 122.294C60.0172 121.249 60.5738 120.536 61.5113 120.536C62.4781 120.536 62.9957 121.249 62.9957 122.294C62.9957 123.339 62.4586 124.052 61.5113 124.052ZM61.5113 123.358C61.9703 123.358 62.1852 122.928 62.1852 122.294C62.1852 121.649 61.9801 121.219 61.5113 121.219C61.0621 121.229 60.8277 121.659 60.8277 122.294C60.8277 122.928 61.0621 123.358 61.5113 123.358ZM56.3648 123.905L61.2184 116.835H62.107L57.2535 123.905H56.3648Z" fill="black"/>
<path d="M96.3105 116.835V123.905H95.2266V117.909H95.1875L93.498 119.012V117.987L95.2559 116.835H96.3105ZM100.366 124.003C99.0574 123.993 97.6902 123.221 97.6902 120.604C97.6902 118.143 98.7547 116.737 100.454 116.737C101.753 116.737 102.661 117.548 102.827 118.671H101.762C101.626 118.094 101.167 117.675 100.454 117.675C99.3602 117.675 98.7254 118.632 98.7254 120.223H98.8035C99.1844 119.628 99.8484 119.266 100.62 119.266C101.88 119.266 102.895 120.233 102.895 121.591C102.895 122.958 101.889 124.012 100.366 124.003ZM100.356 123.104C101.216 123.104 101.85 122.44 101.85 121.61C101.85 120.8 101.235 120.145 100.386 120.145C99.5164 120.145 98.8621 120.829 98.8523 121.62C98.8621 122.401 99.4871 123.104 100.356 123.104ZM105.359 120.194C104.392 120.204 103.865 119.481 103.875 118.436C103.865 117.401 104.412 116.688 105.359 116.688C106.326 116.688 106.843 117.401 106.843 118.436C106.843 119.491 106.306 120.204 105.359 120.194ZM105.359 119.51C105.818 119.51 106.033 119.081 106.033 118.436C106.033 117.802 105.828 117.372 105.359 117.372C104.91 117.382 104.675 117.802 104.675 118.436C104.675 119.081 104.9 119.51 105.359 119.51ZM109.822 124.052C108.855 124.052 108.328 123.339 108.337 122.294C108.328 121.249 108.884 120.536 109.822 120.536C110.789 120.536 111.306 121.249 111.306 122.294C111.306 123.339 110.769 124.052 109.822 124.052ZM109.822 123.358C110.281 123.358 110.496 122.928 110.496 122.294C110.496 121.649 110.291 121.219 109.822 121.219C109.373 121.229 109.138 121.659 109.138 122.294C109.138 122.928 109.373 123.358 109.822 123.358ZM104.675 123.905L109.529 116.835H110.418L105.564 123.905H104.675Z" fill="black"/>
<path d="M150.096 124.003C148.562 124.003 147.488 123.173 147.498 122.02C147.488 121.112 148.143 120.37 148.973 120.243V120.204C148.25 120.038 147.762 119.393 147.762 118.622C147.762 117.538 148.748 116.737 150.096 116.737C151.434 116.737 152.41 117.538 152.42 118.622C152.41 119.393 151.922 120.038 151.209 120.204V120.243C152.029 120.37 152.684 121.112 152.693 122.02C152.684 123.173 151.609 124.003 150.096 124.003ZM150.096 123.114C151.014 123.114 151.6 122.635 151.6 121.942C151.6 121.21 150.965 120.682 150.096 120.682C149.217 120.682 148.572 121.21 148.592 121.942C148.572 122.635 149.158 123.114 150.096 123.114ZM150.096 119.833C150.838 119.833 151.365 119.384 151.365 118.719C151.365 118.065 150.848 117.616 150.096 117.616C149.314 117.616 148.807 118.055 148.807 118.719C148.807 119.384 149.344 119.833 150.096 119.833ZM155.128 120.194C154.161 120.204 153.634 119.481 153.643 118.436C153.634 117.401 154.18 116.688 155.128 116.688C156.095 116.688 156.612 117.401 156.612 118.436C156.612 119.491 156.075 120.204 155.128 120.194ZM155.128 119.51C155.587 119.51 155.802 119.081 155.802 118.436C155.802 117.802 155.596 117.372 155.128 117.372C154.679 117.382 154.444 117.802 154.444 118.436C154.444 119.081 154.669 119.51 155.128 119.51ZM159.591 124.052C158.624 124.052 158.096 123.339 158.106 122.294C158.096 121.249 158.653 120.536 159.591 120.536C160.557 120.536 161.075 121.249 161.075 122.294C161.075 123.339 160.538 124.052 159.591 124.052ZM159.591 123.358C160.05 123.358 160.264 122.928 160.264 122.294C160.264 121.649 160.059 121.219 159.591 121.219C159.141 121.229 158.907 121.659 158.907 122.294C158.907 122.928 159.141 123.358 159.591 123.358ZM154.444 123.905L159.298 116.835H160.186L155.333 123.905H154.444Z" fill="black"/>
<path d="M197.311 116.835V123.905H196.227V117.909H196.188L194.498 119.012V117.987L196.256 116.835H197.311ZM201.366 124.003C200.057 123.993 198.69 123.221 198.69 120.604C198.69 118.143 199.755 116.737 201.454 116.737C202.753 116.737 203.661 117.548 203.827 118.671H202.762C202.626 118.094 202.167 117.675 201.454 117.675C200.36 117.675 199.725 118.632 199.725 120.223H199.804C200.184 119.628 200.848 119.266 201.62 119.266C202.88 119.266 203.895 120.233 203.895 121.591C203.895 122.958 202.889 124.012 201.366 124.003ZM201.356 123.104C202.216 123.104 202.85 122.44 202.85 121.61C202.85 120.8 202.235 120.145 201.386 120.145C200.516 120.145 199.862 120.829 199.852 121.62C199.862 122.401 200.487 123.104 201.356 123.104ZM206.359 120.194C205.392 120.204 204.865 119.481 204.875 118.436C204.865 117.401 205.412 116.688 206.359 116.688C207.326 116.688 207.843 117.401 207.843 118.436C207.843 119.491 207.306 120.204 206.359 120.194ZM206.359 119.51C206.818 119.51 207.033 119.081 207.033 118.436C207.033 117.802 206.828 117.372 206.359 117.372C205.91 117.382 205.675 117.802 205.675 118.436C205.675 119.081 205.9 119.51 206.359 119.51ZM210.822 124.052C209.855 124.052 209.328 123.339 209.337 122.294C209.328 121.249 209.884 120.536 210.822 120.536C211.789 120.536 212.306 121.249 212.306 122.294C212.306 123.339 211.769 124.052 210.822 124.052ZM210.822 123.358C211.281 123.358 211.496 122.928 211.496 122.294C211.496 121.649 211.291 121.219 210.822 121.219C210.373 121.229 210.138 121.659 210.138 122.294C210.138 122.928 210.373 123.358 210.822 123.358ZM205.675 123.905L210.529 116.835H211.418L206.564 123.905H205.675Z" fill="black"/>
<path d="M20.6172 372.09V378.535H19.6895V376.26H17.5215C17.1064 376.753 16.4717 377.051 15.7441 377.051C14.4258 377.051 13.4492 376.133 13.4492 374.844C13.4492 373.545 14.4258 372.627 15.7441 372.617C16.4668 372.622 17.0967 372.92 17.5117 373.408H19.6895V372.09H20.6172ZM20.8516 379.893V380.645H14.9336V377.861H15.8613V379.893H20.8516ZM15.7441 373.447C14.9238 373.447 14.3379 374.014 14.3379 374.844C14.3379 375.674 14.9238 376.23 15.7441 376.23C16.5352 376.23 17.1309 375.674 17.1309 374.844C17.1309 374.014 16.5352 373.447 15.7441 373.447ZM17.9219 374.16C17.9805 374.37 18.0195 374.6 18.0195 374.844C18.0195 375.078 17.9854 375.303 17.9219 375.508H19.6895V374.16H17.9219ZM25.8348 372.568V375.098H22.9441V376.289C24.4676 376.284 25.2977 376.25 26.284 376.074L26.3719 376.826C25.3074 377.012 24.409 377.051 22.6609 377.041H22.0262V374.385H24.9168V373.32H22.0164V372.568H25.8348ZM28.9598 372.09V377.461H28.032V375.938H26.4012V375.176H28.032V374.15H26.4012V373.389H28.032V372.09H28.9598ZM26.0398 377.617C27.8758 377.617 28.9988 378.223 28.9988 379.248C28.9988 380.283 27.8758 380.869 26.0398 380.869C24.1941 380.869 23.0613 380.283 23.0711 379.248C23.0613 378.223 24.1941 377.617 26.0398 377.617ZM26.0398 378.34C24.7508 378.34 23.9988 378.662 24.0086 379.248C23.9988 379.834 24.7508 380.146 26.0398 380.146C27.3191 380.146 28.0809 379.834 28.0809 379.248C28.0809 378.662 27.3191 378.34 26.0398 378.34ZM37.5172 372.08V380.83H36.6285V376.309H35.4957V380.381H34.6461V372.256H35.4957V375.547H36.6285V372.08H37.5172ZM33.5816 373.135V373.887H31.2281V377.939C32.3023 377.93 33.1129 377.881 34.0504 377.705L34.1187 378.467C33.0641 378.682 32.1656 378.721 30.8863 378.73H30.3004V373.135H33.5816Z" fill="black"/>
<path d="M32.2063 441.516V450H31.1398V442.617H31.093L29.0305 443.988V442.922L31.1398 441.516H32.2063ZM36.9453 450.117C35.0586 450.117 33.9805 448.535 33.9805 445.758C33.9805 443.004 35.082 441.398 36.9453 441.398C38.8086 441.398 39.9102 443.004 39.9102 445.758C39.9102 448.535 38.8203 450.117 36.9453 450.117ZM36.9453 449.18C38.1641 449.18 38.8789 447.949 38.8789 445.758C38.8789 443.566 38.1641 442.312 36.9453 442.312C35.7266 442.312 35 443.566 35 445.758C35 447.949 35.7148 449.18 36.9453 449.18ZM49.5477 440.531V450.949H48.6687V445.488H47.1336V450.41H46.2898V440.766H47.1336V444.727H48.6687V440.531H49.5477ZM44.9305 441.809V442.57H41.9422V447.586C43.3777 447.58 44.3738 447.527 45.5281 447.293L45.6102 448.066C44.3562 448.324 43.2898 448.371 41.6961 448.371H41.0281V441.809H44.9305Z" fill="black"/>
<path d="M197.596 450.117C196.061 450.117 194.9 449.168 194.842 447.867H195.861C195.943 448.629 196.682 449.191 197.596 449.191C198.697 449.191 199.494 448.383 199.494 447.316C199.494 446.215 198.662 445.406 197.525 445.395C196.811 445.383 196.26 445.605 195.943 446.156H194.924L195.521 441.516H200.115V442.453H196.4L196.084 444.938H196.166C196.541 444.645 197.115 444.445 197.713 444.445C199.33 444.445 200.525 445.641 200.525 447.293C200.525 448.934 199.283 450.117 197.596 450.117ZM204.468 450.117C202.581 450.117 201.503 448.535 201.503 445.758C201.503 443.004 202.604 441.398 204.468 441.398C206.331 441.398 207.432 443.004 207.432 445.758C207.432 448.535 206.343 450.117 204.468 450.117ZM204.468 449.18C205.686 449.18 206.401 447.949 206.401 445.758C206.401 443.566 205.686 442.312 204.468 442.312C203.249 442.312 202.522 443.566 202.522 445.758C202.522 447.949 203.237 449.18 204.468 449.18ZM217.07 440.531V450.949H216.191V445.488H214.656V450.41H213.812V440.766H214.656V444.727H216.191V440.531H217.07ZM212.453 441.809V442.57H209.464V447.586C210.9 447.58 211.896 447.527 213.05 447.293L213.132 448.066C211.879 448.324 210.812 448.371 209.218 448.371H208.55V441.809H212.453ZM229.536 440.531V450.973H228.611V440.531H229.536ZM223.993 441.34C225.54 441.352 226.654 442.758 226.654 444.973C226.654 447.188 225.54 448.594 223.993 448.594C222.435 448.594 221.333 447.188 221.333 444.973C221.333 442.758 222.435 441.352 223.993 441.34ZM223.993 442.16C222.95 442.172 222.224 443.273 222.224 444.973C222.224 446.672 222.95 447.773 223.993 447.773C225.036 447.773 225.763 446.672 225.763 444.973C225.763 443.273 225.036 442.172 223.993 442.16ZM234.498 442.219C234.498 443.637 235.576 444.938 237.088 445.453L236.584 446.18C235.43 445.758 234.521 444.896 234.064 443.812C233.619 445.037 232.693 446.004 231.475 446.473L230.982 445.734C232.541 445.148 233.584 443.754 233.596 442.148V441.07H234.498V442.219ZM239.162 440.531V443.25H240.732V444.023H239.162V446.871H238.248V440.531H239.162ZM235.822 447.141C237.967 447.141 239.256 447.832 239.256 449.027C239.256 450.246 237.967 450.926 235.822 450.926C233.678 450.926 232.365 450.246 232.365 449.027C232.365 447.832 233.678 447.141 235.822 447.141ZM235.822 447.879C234.252 447.879 233.279 448.312 233.291 449.027C233.279 449.766 234.252 450.188 235.822 450.199C237.404 450.188 238.365 449.766 238.365 449.027C238.365 448.312 237.404 447.879 235.822 447.879Z" fill="black"/>
<path d="M106.435 441.328V442.09H105.368V445.418C105.855 445.389 106.323 445.348 106.775 445.289L106.821 445.992C104.794 446.309 102.415 446.332 100.728 446.332L100.611 445.559L101.958 445.547V442.09H100.904V441.328H106.435ZM109.224 440.531V446.965H108.298V445.031H106.54V444.27H108.298V443.168H106.54V442.406H108.298V440.531H109.224ZM105.767 447.188C107.946 447.188 109.259 447.867 109.259 449.051C109.259 450.246 107.946 450.926 105.767 450.926C103.587 450.926 102.275 450.246 102.275 449.051C102.275 447.867 103.587 447.188 105.767 447.188ZM105.767 447.902C104.161 447.902 103.177 448.336 103.189 449.051C103.177 449.777 104.161 450.199 105.767 450.199C107.372 450.199 108.345 449.777 108.345 449.051C108.345 448.336 107.372 447.902 105.767 447.902ZM102.849 445.535C103.382 445.523 103.933 445.506 104.478 445.477V442.09H102.849V445.535ZM118.943 441.105V441.891C118.943 442.723 118.943 443.701 118.697 445.008H120.197V445.77H117.525V448.289H116.635V445.77H114.725V448.289H113.822V445.77H110.658V445.008H117.783C118.029 443.689 118.029 442.723 118.029 441.891V441.855H111.865V441.105H118.943ZM119.225 449.953V450.727H111.83V447.469H112.744V449.953H119.225ZM126.746 450.117C125.058 450.117 123.851 449.215 123.793 447.867H124.859C124.918 448.676 125.726 449.18 126.734 449.18C127.847 449.18 128.668 448.57 128.668 447.691C128.668 446.766 127.929 446.109 126.605 446.109H125.914V445.184H126.605C127.636 445.184 128.351 444.609 128.351 443.73C128.351 442.887 127.73 442.312 126.769 442.312C125.867 442.312 125.035 442.816 124.988 443.648H123.968C124.027 442.301 125.269 441.398 126.781 441.398C128.398 441.398 129.382 442.453 129.371 443.672C129.382 444.633 128.82 445.348 127.929 445.594V445.652C129.031 445.828 129.711 446.613 129.699 447.691C129.711 449.086 128.433 450.117 126.746 450.117ZM133.852 450.117C132.164 450.117 130.957 449.215 130.899 447.867H131.965C132.024 448.676 132.832 449.18 133.84 449.18C134.954 449.18 135.774 448.57 135.774 447.691C135.774 446.766 135.036 446.109 133.711 446.109H133.02V445.184H133.711C134.743 445.184 135.457 444.609 135.457 443.73C135.457 442.887 134.836 442.312 133.875 442.312C132.973 442.312 132.141 442.816 132.094 443.648H131.075C131.133 442.301 132.375 441.398 133.887 441.398C135.504 441.398 136.489 442.453 136.477 443.672C136.489 444.633 135.926 445.348 135.036 445.594V445.652C136.137 445.828 136.817 446.613 136.805 447.691C136.817 449.086 135.539 450.117 133.852 450.117ZM138.486 450.07C138.075 450.07 137.724 449.73 137.736 449.309C137.724 448.898 138.075 448.559 138.486 448.559C138.896 448.559 139.236 448.898 139.236 449.309C139.236 449.73 138.896 450.07 138.486 450.07ZM143.154 450.117C141.678 450.094 140.061 449.227 140.061 446.086C140.061 443.086 141.291 441.398 143.283 441.398C144.771 441.398 145.814 442.312 146.037 443.648H144.994C144.795 442.898 144.232 442.336 143.283 442.336C141.889 442.336 141.057 443.531 141.057 445.57H141.162C141.654 444.867 142.428 444.445 143.342 444.445C144.854 444.445 146.107 445.617 146.107 447.258C146.107 448.852 144.936 450.129 143.154 450.117ZM143.154 449.191C144.256 449.191 145.076 448.324 145.088 447.27C145.076 446.227 144.291 445.371 143.178 445.371C142.064 445.371 141.209 446.273 141.197 447.281C141.197 448.277 142.018 449.191 143.154 449.191ZM149.979 443.496C149.979 445.148 150.788 446.941 152.171 447.762L151.643 448.477C150.641 447.867 149.921 446.754 149.557 445.488C149.171 446.871 148.397 448.061 147.354 448.699L146.768 448.008C148.21 447.164 149.089 445.312 149.089 443.531V441.516H149.979V443.496ZM155.815 440.531V450.949H154.925V440.531H155.815ZM153.659 440.754V450.422H152.792V445.055H151.022V444.27H152.792V440.754H153.659Z" fill="black"/>
<rect x="25" y="390" width="215" height="38" rx="5" fill="#F4F4F4"/>
<rect x="25" y="390" width="37" height="38" rx="5" fill="#BBBBBB"/>
<path d="M46.2569 408.25H38V409.75H46.2569V412L49 409L46.2569 406V408.25Z" fill="white"/>
<path d="M87.7531 409.805V410.693H79.3586V405.088H87.6301V405.977H80.425V409.805H87.7531ZM89.0656 413.551V414.453H77.9367V413.551H89.0656ZM94.6992 405.279V409.531H91.1855V412.293C92.5801 412.286 93.8994 412.225 95.4785 411.965L95.5742 412.84C93.8516 413.141 92.4707 413.195 90.9395 413.195H90.1465V408.643H93.6602V406.182H90.1191V405.279H94.6992ZM100.127 403.953V416.107H99.1016V409.654H97.3105V415.479H96.3262V404.227H97.3105V408.766H99.1016V403.953H100.127ZM111.12 405.252V406.469C111.12 408 111.12 409.736 110.669 412.375L109.575 412.266C110.067 409.777 110.067 407.959 110.067 406.469V406.141H102.739V405.252H111.12ZM112.61 413.428V414.316H101.536V413.428H112.61ZM122.62 406.059V406.934H116.522V406.059H119.051V404.322H120.118V406.059H122.62ZM119.571 407.754C121.102 407.754 122.196 408.902 122.209 410.516C122.196 412.143 121.102 413.305 119.571 413.305C118.053 413.305 116.959 412.143 116.959 410.516C116.959 408.902 118.053 407.754 119.571 407.754ZM119.571 408.656C118.614 408.67 117.916 409.449 117.916 410.516C117.916 411.596 118.614 412.375 119.571 412.361C120.541 412.375 121.252 411.596 121.252 410.516C121.252 409.449 120.541 408.67 119.571 408.656ZM126.899 403.953V416.107H125.873V409.969H124.26V415.506H123.248V404.254H124.26V409.08H125.873V403.953H126.899ZM134.487 405.676C134.474 407.303 136.648 408.684 138.767 408.998L138.37 409.846C136.47 409.524 134.624 408.513 133.886 407.043C133.148 408.513 131.295 409.524 129.429 409.846L129.005 408.998C131.111 408.684 133.284 407.303 133.284 405.676V405.594H129.388V404.719H138.37V405.594H134.487V405.676ZM139.423 410.885V411.773H134.392V416.107H133.339V411.773H128.349V410.885H139.423ZM143.758 407.412C143.758 409.34 144.701 411.432 146.314 412.389L145.699 413.223C144.53 412.512 143.689 411.213 143.266 409.736C142.814 411.35 141.912 412.737 140.695 413.482L140.012 412.676C141.693 411.691 142.719 409.531 142.719 407.453V405.102H143.758V407.412ZM150.566 403.953V416.107H149.527V403.953H150.566ZM148.051 404.213V415.492H147.039V409.23H144.975V408.314H147.039V404.213H148.051ZM163.077 413.646V414.549H151.948V413.646H154.71V410.365C153.671 409.825 153.042 408.95 153.042 407.85C153.042 405.963 154.887 404.732 157.485 404.719C160.083 404.732 161.929 405.963 161.929 407.85C161.929 408.93 161.32 409.798 160.315 410.338V413.646H163.077ZM157.485 405.607C155.489 405.594 154.081 406.496 154.081 407.85C154.081 409.203 155.489 410.119 157.485 410.119C159.468 410.119 160.889 409.203 160.889 407.85C160.889 406.496 159.468 405.594 157.485 405.607ZM155.762 413.646H159.235V410.748C158.709 410.892 158.121 410.967 157.485 410.967C156.863 410.967 156.282 410.898 155.762 410.762V413.646Z" fill="#BBBBBB"/>
<path d="M232.378 376.448L230.732 375.214C230.465 375.014 230.465 374.614 230.732 374.414L232.378 373.179" stroke="black" stroke-width="1.5" stroke-linecap="round"/>
<path d="M232.032 379.717C233.876 379.717 234.27 379.717 236.924 379.717C239.579 379.717 239.579 374.814 236.924 374.814L230.743 374.814" stroke="black" stroke-width="1.5" stroke-linecap="round"/>
<path d="M23.8786 28.7231C26.4352 28.7231 28.6599 30.541 28.6599 34.8574V34.874C28.6599 38.9082 26.842 41.2988 23.8288 41.2988C21.6291 41.2988 19.9855 39.9956 19.6037 38.1611L19.5871 38.0698H21.6955L21.7204 38.1528C22.0358 38.9912 22.7746 39.5391 23.8288 39.5391C25.7297 39.5391 26.5349 37.6797 26.6262 35.3887C26.6262 35.2974 26.6345 35.2061 26.6345 35.1147H26.4684C26.0285 36.061 24.9826 36.8994 23.3391 36.8994C21.0397 36.8994 19.4294 35.2227 19.4294 32.9482V32.9316C19.4294 30.4995 21.2805 28.7231 23.8786 28.7231ZM23.8703 35.2559C25.2233 35.2559 26.2609 34.2764 26.2609 32.9233V32.9067C26.2609 31.5371 25.2233 30.4663 23.8952 30.4663C22.5754 30.4663 21.5212 31.5205 21.5212 32.8569V32.8735C21.5212 34.2598 22.509 35.2559 23.8703 35.2559ZM32.0204 33.2388C31.265 33.2388 30.7006 32.6577 30.7006 31.9272C30.7006 31.1885 31.265 30.6157 32.0204 30.6157C32.7841 30.6157 33.3402 31.1885 33.3402 31.9272C33.3402 32.6577 32.7841 33.2388 32.0204 33.2388ZM32.0204 39.3979C31.265 39.3979 30.7006 38.8252 30.7006 38.0864C30.7006 37.3477 31.265 36.7749 32.0204 36.7749C32.7841 36.7749 33.3402 37.3477 33.3402 38.0864C33.3402 38.8252 32.7841 39.3979 32.0204 39.3979ZM41.1915 41V38.7007H35.3312V36.9492C36.8834 34.2515 38.5851 31.4956 40.212 29.022H43.2418V36.9326H44.8522V38.7007H43.2418V41H41.1915ZM37.3233 36.9824H41.2247V30.7319H41.1002C39.8717 32.6079 38.4855 34.8242 37.3233 36.8579V36.9824ZM49.408 41V31.1304H49.2669L46.2869 33.2388V31.2217L49.4163 29.022H51.5496V41H49.408Z" fill="black"/>
<path opacity="0.35" d="M222.163 31.8108C222.163 29.893 223.718 28.3383 225.636 28.3383H241.69C243.607 28.3383 245.162 29.893 245.162 31.8108V36.3188C245.162 38.2366 243.607 39.7912 241.69 39.7912H225.636C223.718 39.7912 222.163 38.2366 222.163 36.3188V31.8108Z" stroke="black" stroke-width="1.05509"/>
<path opacity="0.4" d="M246.651 32.6216V36.6822C247.468 36.3383 248 35.5383 248 34.6519C248 33.7655 247.468 32.9655 246.651 32.6216Z" fill="black"/>
<path d="M223.56 31.7351C223.56 30.6305 224.455 29.7351 225.56 29.7351H241.765C242.869 29.7351 243.765 30.6305 243.765 31.7351V36.3945C243.765 37.499 242.869 38.3945 241.765 38.3945H225.56C224.455 38.3945 223.56 37.499 223.56 36.3945V31.7351Z" fill="black"/>
<path fill-rule="evenodd" clip-rule="evenodd" d="M206.723 31.2625C209.096 31.2627 211.378 32.1935 213.098 33.8626C213.228 33.9914 213.435 33.9898 213.562 33.8589L214.8 32.5835C214.865 32.5171 214.901 32.4272 214.901 32.3336C214.9 32.2401 214.863 32.1506 214.798 32.085C210.283 27.6689 203.161 27.6689 198.647 32.085C198.582 32.1506 198.545 32.24 198.544 32.3336C198.543 32.4271 198.579 32.5171 198.644 32.5835L199.882 33.8589C200.01 33.99 200.217 33.9916 200.346 33.8626C202.067 32.1933 204.349 31.2625 206.723 31.2625ZM206.757 35.1928C208.061 35.1927 209.318 35.6874 210.285 36.5808C210.415 36.7076 210.621 36.7048 210.749 36.5746L211.985 35.2992C212.051 35.2323 212.087 35.1415 212.086 35.0472C212.085 34.9529 212.047 34.8629 211.98 34.7974C209.037 32.0027 204.479 32.0027 201.536 34.7974C201.469 34.8629 201.431 34.953 201.431 35.0473C201.43 35.1416 201.466 35.2324 201.531 35.2992L202.767 36.5746C202.895 36.7048 203.101 36.7076 203.232 36.5808C204.197 35.688 205.454 35.1933 206.757 35.1928ZM209.272 37.762C209.274 37.8566 209.237 37.9478 209.171 38.014L207.032 40.2176C206.969 40.2824 206.884 40.3188 206.794 40.3188C206.705 40.3188 206.62 40.2824 206.557 40.2176L204.418 38.014C204.351 37.9477 204.315 37.8565 204.317 37.762C204.319 37.6674 204.359 37.5778 204.428 37.5145C205.794 36.335 207.795 36.335 209.161 37.5145C209.23 37.5779 209.27 37.6675 209.272 37.762Z" fill="black"/>
<path d="M183.15 31.6594C183.15 31.128 183.581 30.6973 184.112 30.6973H185.074C185.606 30.6973 186.036 31.128 186.036 31.6594V39.3566C186.036 39.888 185.606 40.3188 185.074 40.3188H184.112C183.581 40.3188 183.15 39.888 183.15 39.3566V31.6594Z" fill="black"/>
<path d="M187.961 29.7351C187.961 29.2037 188.391 28.7729 188.923 28.7729H189.885C190.416 28.7729 190.847 29.2037 190.847 29.7351V39.3566C190.847 39.888 190.416 40.3188 189.885 40.3188H188.923C188.391 40.3188 187.961 39.888 187.961 39.3566V29.7351Z" fill="black"/>
<path d="M178.339 35.0269C178.339 34.4956 178.77 34.0648 179.301 34.0648H180.263C180.795 34.0648 181.226 34.4956 181.226 35.0269V39.3566C181.226 39.888 180.795 40.3188 180.263 40.3188H179.301C178.77 40.3188 178.339 39.888 178.339 39.3566V35.0269Z" fill="black"/>
<path d="M173.528 37.4323C173.528 36.9009 173.959 36.4702 174.49 36.4702H175.453C175.984 36.4702 176.415 36.9009 176.415 37.4323V39.3566C176.415 39.888 175.984 40.3188 175.453 40.3188H174.49C173.959 40.3188 173.528 39.888 173.528 39.3566V37.4323Z" fill="black"/>
<defs>
<filter id="filter0_d_3365_3227" x="0" y="0" width="293" height="500" filterUnits="userSpaceOnUse" color-interpolation-filters="sRGB">
<feFlood flood-opacity="0" result="BackgroundImageFix"/>
<feColorMatrix in="SourceAlpha" type="matrix" values="0 0 0 0 0 0 0 0 0 0 0 0 0 0 0 0 0 0 127 0" result="hardAlpha"/>
<feOffset dx="20" dy="20"/>
<feGaussianBlur stdDeviation="7.5"/>
<feComposite in2="hardAlpha" operator="out"/>
<feColorMatrix type="matrix" values="0 0 0 0 0 0 0 0 0 0 0 0 0 0 0 0 0 0 0.05 0"/>
<feBlend mode="normal" in2="BackgroundImageFix" result="effect1_dropShadow_3365_3227"/>
<feBlend mode="normal" in="SourceGraphic" in2="effect1_dropShadow_3365_3227" result="shape"/>
</filter>
<filter id="filter1_i_3365_3227" x="137.508" y="344.109" width="112.323" height="12.7012" filterUnits="userSpaceOnUse" color-interpolation-filters="sRGB">
<feFlood flood-opacity="0" result="BackgroundImageFix"/>
<feBlend mode="normal" in="SourceGraphic" in2="BackgroundImageFix" result="shape"/>
<feColorMatrix in="SourceAlpha" type="matrix" values="0 0 0 0 0 0 0 0 0 0 0 0 0 0 0 0 0 0 127 0" result="hardAlpha"/>
<feOffset dy="4"/>
<feGaussianBlur stdDeviation="2"/>
<feComposite in2="hardAlpha" operator="arithmetic" k2="-1" k3="1"/>
<feColorMatrix type="matrix" values="0 0 0 0 0 0 0 0 0 0 0 0 0 0 0 0 0 0 0.25 0"/>
<feBlend mode="normal" in2="shape" result="effect1_innerShadow_3365_3227"/>
</filter>
<filter id="filter2_i_3365_3227" x="137.508" y="202.433" width="112.323" height="12.7012" filterUnits="userSpaceOnUse" color-interpolation-filters="sRGB">
<feFlood flood-opacity="0" result="BackgroundImageFix"/>
<feBlend mode="normal" in="SourceGraphic" in2="BackgroundImageFix" result="shape"/>
<feColorMatrix in="SourceAlpha" type="matrix" values="0 0 0 0 0 0 0 0 0 0 0 0 0 0 0 0 0 0 127 0" result="hardAlpha"/>
<feOffset dy="4"/>
<feGaussianBlur stdDeviation="2"/>
<feComposite in2="hardAlpha" operator="arithmetic" k2="-1" k3="1"/>
<feColorMatrix type="matrix" values="0 0 0 0 0 0 0 0 0 0 0 0 0 0 0 0 0 0 0.25 0"/>
<feBlend mode="normal" in2="shape" result="effect1_innerShadow_3365_3227"/>
</filter>
<clipPath id="clip0_3365_3227">
<rect width="11.8239" height="11.8239" fill="white" transform="translate(47.3027 133.38)"/>
</clipPath>
</defs>
</svg>
