<svg width="24" height="23" viewBox="0 0 24 23" fill="none" xmlns="http://www.w3.org/2000/svg">
<path d="M12.6667 14H11.3333V10H7.33333V8.66667H11.3333V4.66667H12.6667V8.66667H16.6667V10H12.6667V14ZM24 22.7667V2.16667C24 1.54444 23.7942 1.02756 23.3827 0.616001C22.972 0.205335 22.4556 0 21.8333 0H2.16667C1.54444 0 1.02755 0.205335 0.615997 0.616001C0.205332 1.02756 -1.90735e-06 1.54444 -1.90735e-06 2.16667V16.5C-1.90735e-06 17.1222 0.205332 17.6391 0.615997 18.0507C1.02755 18.4613 1.54444 18.6667 2.16667 18.6667H19.9L24 22.7667ZM22.6667 19.5333L20.4667 17.3333H2.16667C1.92222 17.3333 1.72222 17.2556 1.56667 17.1C1.41111 16.9444 1.33333 16.7444 1.33333 16.5V2.16667C1.33333 1.92222 1.41111 1.72222 1.56667 1.56667C1.72222 1.41111 1.92222 1.33333 2.16667 1.33333H21.8333C22.0778 1.33333 22.2778 1.41111 22.4333 1.56667C22.5889 1.72222 22.6667 1.92222 22.6667 2.16667V19.5333Z" fill="white"/>
</svg>
