<svg width="16" height="16" viewBox="0 0 16 16" fill="none" xmlns="http://www.w3.org/2000/svg">
<path d="M8 14.9996C7.18333 14.9996 6.41406 14.872 5.69219 14.6168C4.97031 14.3616 4.31042 14.0007 3.7125 13.534L2.4875 14.7371C2.32708 14.8975 2.12292 14.9777 1.875 14.9777C1.62708 14.9777 1.42292 14.8975 1.2625 14.7371C1.10208 14.5767 1.02187 14.3725 1.02187 14.1246C1.02187 13.8767 1.10208 13.6726 1.2625 13.5121L2.46563 12.3091C1.99896 11.7112 1.63802 11.0476 1.38281 10.3185C1.1276 9.58934 1 8.81644 1 7.9998C1 6.04569 1.67812 4.39053 3.03437 3.03432C4.39062 1.67811 6.04583 1 8 1H15V7.9998C15 9.95391 14.3219 11.6091 12.9656 12.9653C11.6094 14.3215 9.95417 14.9996 8 14.9996ZM8 13.2496C9.45833 13.2496 10.6979 12.7392 11.7188 11.7184C12.7396 10.6976 13.25 9.45809 13.25 7.9998V2.74995H8C6.54167 2.74995 5.30208 3.26035 4.28125 4.28116C3.26042 5.30196 2.75 6.54151 2.75 7.9998C2.75 8.56853 2.8375 9.11175 3.0125 9.62944C3.1875 10.1471 3.42812 10.6174 3.73438 11.0403L8.2625 6.51234C8.42292 6.35193 8.62708 6.27172 8.875 6.27172C9.12292 6.27172 9.32708 6.35193 9.4875 6.51234C9.6625 6.68734 9.75 6.89514 9.75 7.13576C9.75 7.37638 9.6625 7.58419 9.4875 7.75918L4.95938 12.2872C5.38229 12.5934 5.8526 12.8304 6.37031 12.9981C6.88802 13.1658 7.43125 13.2496 8 13.2496Z" fill="#BBBBBB"/>
</svg>
