<svg width="24" height="24" viewBox="0 0 24 24" fill="none" xmlns="http://www.w3.org/2000/svg">
<path d="M12 22.6634L11 21.7634C8.82222 19.7634 7.02222 18.0576 5.6 16.646C4.17778 15.2354 3.05022 13.9909 2.21733 12.9127C1.38356 11.8354 0.805333 10.8576 0.482667 9.97935C0.160889 9.10202 0 8.21891 0 7.33002C0 5.64113 0.577778 4.21891 1.73333 3.06335C2.88889 1.90779 4.31111 1.33002 6 1.33002C7.17778 1.33002 8.27778 1.63002 9.3 2.23002C10.3222 2.83002 11.2222 3.7078 12 4.86335C12.7778 3.7078 13.6778 2.83002 14.7 2.23002C15.7222 1.63002 16.8222 1.33002 18 1.33002C19.6889 1.33002 21.1111 1.90779 22.2667 3.06335C23.4222 4.21891 24 5.64113 24 7.33002C24 8.21891 23.8391 9.10202 23.5173 9.97935C23.1947 10.8576 22.6169 11.8354 21.784 12.9127C20.9502 13.9909 19.8276 15.2354 18.416 16.646C17.0053 18.0576 15.2 19.7634 13 21.7634L12 22.6634ZM12 20.8634C14.1333 18.93 15.8889 17.2745 17.2667 15.8967C18.6444 14.5189 19.7333 13.3242 20.5333 12.3127C21.3333 11.302 21.8889 10.4078 22.2 9.63002C22.5111 8.85224 22.6667 8.08557 22.6667 7.33002C22.6667 5.99669 22.2222 4.88557 21.3333 3.99668C20.4444 3.1078 19.3333 2.66335 18 2.66335C16.9333 2.66335 15.9502 2.96869 15.0507 3.57935C14.1502 4.19091 13.3556 5.09668 12.6667 6.29669H11.3333C10.6222 5.07446 9.82222 4.16335 8.93333 3.56335C8.04445 2.96335 7.06667 2.66335 6 2.66335C4.68889 2.66335 3.58356 3.1078 2.684 3.99668C1.78356 4.88557 1.33333 5.99669 1.33333 7.33002C1.33333 8.08557 1.48889 8.85224 1.8 9.63002C2.11111 10.4078 2.66667 11.302 3.46667 12.3127C4.26667 13.3242 5.35556 14.5131 6.73333 15.8794C8.11111 17.2465 9.86667 18.9078 12 20.8634Z" fill="black"/>
</svg>
