<svg width="20" height="20" viewBox="0 0 20 20" fill="none" xmlns="http://www.w3.org/2000/svg">
<path d="M19.1159 20L11.4939 12.3664C10.8841 12.8753 10.1829 13.2723 9.39024 13.5573C8.59756 13.8422 7.80488 13.9847 7.0122 13.9847C5.04065 13.9847 3.37927 13.3077 2.02805 11.9536C0.676016 10.6003 0 8.94657 0 6.99237C0 5.03817 0.676016 3.38402 2.02805 2.02992C3.37927 0.676642 5.03049 0 6.98171 0C8.93293 0 10.5894 0.676642 11.9512 2.02992C13.313 3.38402 13.9939 5.03817 13.9939 6.99237C13.9939 7.84733 13.8415 8.67176 13.5366 9.46565C13.2317 10.2595 12.8354 10.9313 12.3476 11.4809L20 19.145L19.1159 20ZM7.0122 12.7634C8.61789 12.7634 9.97968 12.2089 11.0976 11.0998C12.2154 9.99003 12.7744 8.62087 12.7744 6.99237C12.7744 5.36387 12.2154 3.99471 11.0976 2.88489C9.97968 1.77588 8.61789 1.22137 7.0122 1.22137C5.38618 1.22137 4.01423 1.77588 2.89634 2.88489C1.77846 3.99471 1.21951 5.36387 1.21951 6.99237C1.21951 8.62087 1.77846 9.99003 2.89634 11.0998C4.01423 12.2089 5.38618 12.7634 7.0122 12.7634Z" fill="black"/>
</svg>
