<svg width="16" height="16" viewBox="0 0 16 16" fill="none" xmlns="http://www.w3.org/2000/svg">
<g clip-path="url(#clip0_1579_4386)">
<path d="M7.21095 16.3553V14.5022H5.35794V12.9574H7.21095V10.6668C5.94104 10.4784 4.89007 9.8955 4.05806 8.91796C3.22606 7.94044 2.81006 6.81033 2.81006 5.52762C2.81006 4.08821 3.31726 2.8663 4.33166 1.86188C5.34604 0.857464 6.56881 0.355255 7.99998 0.355255C9.43115 0.355255 10.6539 0.857464 11.6683 1.86188C12.6827 2.8663 13.1899 4.08821 13.1899 5.52762C13.1899 6.81033 12.7739 7.94044 11.9419 8.91796C11.1099 9.8955 10.0589 10.4784 8.78901 10.6668V12.9574H10.642V14.5022H8.78901V16.3553H7.21095ZM7.9953 9.15714C8.99542 9.15714 9.8482 8.80597 10.5537 8.10363C11.2591 7.40128 11.6118 6.55005 11.6118 5.54992C11.6118 4.5498 11.2607 3.697 10.5583 2.99154C9.856 2.28607 9.00477 1.93334 8.00466 1.93334C7.00455 1.93334 6.15176 2.28451 5.44631 2.98686C4.74085 3.6892 4.38813 4.54044 4.38813 5.54056C4.38813 6.54069 4.73929 7.39348 5.44163 8.09895C6.14396 8.80441 6.99519 9.15714 7.9953 9.15714Z" fill="white"/>
</g>
<defs>
<clipPath id="clip0_1579_4386">
<rect width="16" height="16" fill="white"/>
</clipPath>
</defs>
</svg>
