<svg width="11" height="16" viewBox="0 0 11 16" fill="none" xmlns="http://www.w3.org/2000/svg">
<path d="M4.40089 16V14.147H2.54788V12.6021H4.40089V10.3115C3.13098 10.1232 2.08001 9.54024 1.248 8.56271C0.416 7.58519 0 6.45507 0 5.17236C0 3.73296 0.507199 2.51105 1.5216 1.50663C2.53598 0.502209 3.75875 0 5.18992 0C6.62109 0 7.84387 0.502209 8.85825 1.50663C9.87265 2.51105 10.3798 3.73296 10.3798 5.17236C10.3798 6.45507 9.96385 7.58519 9.13185 8.56271C8.29983 9.54024 7.24887 10.1232 5.97896 10.3115V12.6021H7.83196V14.147H5.97896V16H4.40089ZM5.18524 8.80189C6.18536 8.80189 7.03814 8.45072 7.7436 7.74837C8.44905 7.04603 8.80178 6.19479 8.80178 5.19467C8.80178 4.19454 8.45061 3.34174 7.74828 2.63628C7.04594 1.93082 6.19472 1.57809 5.1946 1.57809C4.19449 1.57809 3.3417 1.92926 2.63625 2.6316C1.93079 3.33395 1.57807 4.18518 1.57807 5.18531C1.57807 6.18543 1.92923 7.03823 2.63157 7.74369C3.33391 8.44916 4.18513 8.80189 5.18524 8.80189Z" fill="#BBBBBB"/>
</svg>
