<svg width="24" height="23" viewBox="0 0 24 23" fill="none" xmlns="http://www.w3.org/2000/svg">
<path d="M14.3333 14H9.66667L4.66667 14V12.6667L9.66667 12.6667H14.3333V14ZM19.3333 10H4.66667V8.66667H19.3333V10ZM19.3333 6H4.66667V4.66667H19.3333V6ZM24 22.7667V2.16667C24 1.54444 23.7942 1.02756 23.3827 0.616001C22.972 0.205335 22.4556 0 21.8333 0H2.16667C1.54445 0 1.02755 0.205335 0.615999 0.616001C0.205332 1.02756 0 1.54444 0 2.16667V16.5C0 17.1222 0.205332 17.6391 0.615999 18.0507C1.02755 18.4613 1.54445 18.6667 2.16667 18.6667H19.9L24 22.7667Z" fill="black"/>
</svg>
