<svg width="38" height="38" viewBox="0 0 38 38" fill="none" xmlns="http://www.w3.org/2000/svg">
<path fill-rule="evenodd" clip-rule="evenodd" d="M24.76 19.1365C24.76 18.711 24.7218 18.3019 24.6509 17.9092H19V20.2301H22.2291C22.09 20.9801 21.6673 21.6155 21.0318 22.041V23.5465H22.9709C24.1055 22.5019 24.76 20.9637 24.76 19.1365Z" fill="#4285F4"/>
<path fill-rule="evenodd" clip-rule="evenodd" d="M19 24.9999C20.62 24.9999 21.9782 24.4626 22.9709 23.5463L21.0318 22.0408C20.4945 22.4008 19.8073 22.6135 19 22.6135C17.4373 22.6135 16.1145 21.5581 15.6427 20.1399H13.6382V21.6944C14.6255 23.6553 16.6545 24.9999 19 24.9999Z" fill="#34A853"/>
<path fill-rule="evenodd" clip-rule="evenodd" d="M15.6427 20.14C15.5227 19.78 15.4545 19.3954 15.4545 19C15.4545 18.6045 15.5227 18.22 15.6427 17.86V16.3054H13.6382C13.2318 17.1154 13 18.0318 13 19C13 19.9681 13.2318 20.8845 13.6382 21.6945L15.6427 20.14Z" fill="#FBBC05"/>
<path fill-rule="evenodd" clip-rule="evenodd" d="M19 15.3864C19.8809 15.3864 20.6718 15.6891 21.2936 16.2836L23.0145 14.5627C21.9755 13.5945 20.6173 13 19 13C16.6545 13 14.6255 14.3445 13.6382 16.3055L15.6427 17.86C16.1145 16.4418 17.4373 15.3864 19 15.3864Z" fill="#EA4335"/>
</svg>
