<svg width="16" height="16" viewBox="0 0 16 16" fill="none" xmlns="http://www.w3.org/2000/svg">
<path d="M14.2267 15.0862L11.0831 11.9427C10.7338 12.1039 10.294 12.2449 9.76363 12.3658C9.23271 12.4868 8.64484 12.5472 8 12.5472C6.24013 12.5472 4.64148 12.0668 3.20403 11.106C1.76658 10.1457 0.698573 8.8797 0 7.30791C0.308984 6.5959 0.722217 5.92742 1.2397 5.30247C1.75664 4.67805 2.30395 4.15762 2.88161 3.74116L0.624685 1.48423L1.20907 0.92L14.7909 14.5019L14.2267 15.0862ZM8 10.25C8.18808 10.25 8.39631 10.2298 8.62468 10.1895C8.85306 10.1492 9.02771 10.0888 9.14861 10.0082L5.29975 6.1593C5.21914 6.30707 5.15869 6.49166 5.11839 6.71305C5.07809 6.93498 5.05793 7.13327 5.05793 7.30791C5.05793 8.12739 5.34354 8.82247 5.91476 9.39315C6.48544 9.96437 7.18052 10.25 8 10.25ZM13.3199 10.7135L10.8212 8.23486C10.8615 8.11396 10.8918 7.97612 10.9122 7.82136C10.9321 7.66714 10.9421 7.49599 10.9421 7.30791C10.9421 6.48843 10.6567 5.79308 10.086 5.22187C9.51483 4.65119 8.81948 4.36584 8 4.36584C7.81192 4.36584 7.644 4.37928 7.49622 4.40615C7.34845 4.43302 7.21411 4.47332 7.0932 4.52705L5.11839 2.57239C5.58858 2.39775 6.06549 2.27013 6.54912 2.18952C7.03275 2.10892 7.51637 2.06861 8 2.06861C9.74643 2.06861 11.3451 2.54875 12.796 3.50902C14.2469 4.46982 15.3149 5.73612 16 7.30791C15.7044 7.95275 15.3382 8.5605 14.9014 9.13119C14.465 9.7024 13.9379 10.2298 13.3199 10.7135ZM10.1763 7.59003L7.73804 5.17189C8.07389 5.10472 8.3998 5.12836 8.71577 5.24282C9.0312 5.35674 9.30311 5.52789 9.53149 5.75627C9.7733 5.98465 9.95117 6.26005 10.0651 6.58247C10.1795 6.90489 10.2166 7.24074 10.1763 7.59003Z" fill="#9C9C9C"/>
</svg>
