<svg width="24" height="23" viewBox="0 0 24 23" fill="none" xmlns="http://www.w3.org/2000/svg">
<path d="M12 10.5757C10.5714 10.5757 9.35714 10.0757 8.35714 9.07569C7.35714 8.07569 6.85714 6.86141 6.85714 5.43284C6.85714 4.03284 7.35714 2.82541 8.35714 1.81055C9.35714 0.796837 10.5714 0.289978 12 0.289978C13.4286 0.289978 14.6429 0.796837 15.6429 1.81055C16.6429 2.82541 17.1429 4.03284 17.1429 5.43284C17.1429 6.86141 16.6429 8.07569 15.6429 9.07569C14.6429 10.0757 13.4286 10.5757 12 10.5757ZM0 23.0043V20.1757C0 19.4614 0.207429 18.7968 0.622286 18.182C1.036 17.5683 1.58571 17.09 2.27143 16.7471C3.9 15.9757 5.52171 15.3968 7.13657 15.0106C8.75029 14.6254 10.3714 14.4328 12 14.4328C13.6286 14.4328 15.2503 14.6254 16.8651 15.0106C18.4789 15.3968 20.1 15.9757 21.7286 16.7471C22.4143 17.09 22.9646 17.5683 23.3794 18.182C23.7931 18.7968 24 19.4614 24 20.1757V23.0043H0Z" fill="black"/>
</svg>
