<svg width="16" height="10" viewBox="0 0 16 10" fill="none" xmlns="http://www.w3.org/2000/svg">
<path d="M8 7.80769C8.81948 7.80769 9.51483 7.53513 10.086 6.99C10.6567 6.44539 10.9421 5.78205 10.9421 5C10.9421 4.21795 10.6567 3.55436 10.086 3.00923C9.51483 2.46462 8.81948 2.19231 8 2.19231C7.18052 2.19231 6.48544 2.46462 5.91476 3.00923C5.34354 3.55436 5.05793 4.21795 5.05793 5C5.05793 5.78205 5.34354 6.44539 5.91476 6.99C6.48544 7.53513 7.18052 7.80769 8 7.80769ZM8 7.07692C7.39547 7.07692 6.88175 6.87487 6.45884 6.47077C6.0354 6.06718 5.82368 5.57692 5.82368 5C5.82368 4.42308 6.0354 3.93256 6.45884 3.52846C6.88175 3.12487 7.39547 2.92308 8 2.92308C8.60453 2.92308 9.11852 3.12487 9.54196 3.52846C9.96487 3.93256 10.1763 4.42308 10.1763 5C10.1763 5.57692 9.96487 6.06718 9.54196 6.47077C9.11852 6.87487 8.60453 7.07692 8 7.07692ZM8 10C6.25357 10 4.66163 9.54821 3.22418 8.64462C1.78673 7.74051 0.712007 6.52564 0 5C0.712007 3.47436 1.78673 2.25949 3.22418 1.35539C4.66163 0.451796 6.25357 0 8 0C9.74643 0 11.3384 0.451796 12.7758 1.35539C14.2133 2.25949 15.288 3.47436 16 5C15.288 6.52564 14.2133 7.74051 12.7758 8.64462C11.3384 9.54821 9.74643 10 8 10Z" fill="#9C9C9C"/>
</svg>
