<svg width="110" height="110" viewBox="0 0 110 110" fill="none" xmlns="http://www.w3.org/2000/svg">
<g clip-path="url(#clip0_2717_2088)">
<path d="M54.5 93.4099C54.5 77.4914 41.5955 64.5869 25.677 64.5869C41.5955 64.5869 54.5 51.6824 54.5 35.7639C54.5 51.6824 67.4045 64.5869 83.323 64.5869C67.4045 64.5869 54.5 77.4914 54.5 93.4099Z" fill="white"/>
<path d="M34 35L12.2436 56.7564C7.91881 61.0812 7.91881 68.0926 12.2436 72.4174L46.6695 106.843C50.9943 111.168 58.0057 111.168 62.3305 106.843L96.7564 72.4174C101.081 68.0926 101.081 61.0812 96.7564 56.7564L75 35M54.5 93.4099C54.5 77.4914 41.5955 64.5869 25.677 64.5869C41.5955 64.5869 54.5 51.6824 54.5 35.7639C54.5 51.6824 67.4045 64.5869 83.323 64.5869C67.4045 64.5869 54.5 77.4914 54.5 93.4099Z" stroke="black" stroke-width="0.547945" stroke-miterlimit="10"/>
<path d="M9 64L24 46.6795L24 81.3205L9 64Z" fill="black"/>
<path d="M9 65L24.75 47.6795L24.75 82.3205L9 65Z" fill="black"/>
<path d="M99.6569 67.6664L83.3923 85.6811L83.5231 49.5346L99.6569 67.6664Z" fill="black"/>
<path d="M53.9206 110.328L33.2018 93.3513L74.8443 93.6045L53.9206 110.328Z" fill="black"/>
<path d="M43.7761 98.6278L48.5892 108.547L33.9789 93.5719L43.7761 98.6278Z" fill="black"/>
<path d="M39.758 94.6457L44.5712 104.564L29.9608 89.5897L39.758 94.6457Z" fill="black"/>
<path d="M47.68 107.9L45.9708 103.158L52.6321 108.838L47.68 107.9Z" fill="black"/>
<path d="M48.846 108.815L47.1369 104.073L53.7981 109.753L48.846 108.815Z" fill="black"/>
<path d="M51.2299 109.86L50.6833 108.343L52.8138 110.16L51.2299 109.86Z" fill="black"/>
<path d="M51.7197 109.466L50.7644 107.57L53.7431 110.11L51.7197 109.466Z" fill="black"/>
<path d="M59.001 109.249L53.6106 110.111L60.6479 104.044L59.001 109.249Z" fill="black"/>
<path d="M61.5586 107.397L56.1682 108.259L63.2055 102.193L61.5586 107.397Z" fill="black"/>
<path d="M61.1233 108.178L57.8435 109.202L62.0995 104.884L61.1233 108.178Z" fill="black"/>
<path d="M74.8409 33.6933L95.1152 54.8387L75.9246 62.9679L74.8409 33.6933Z" fill="black"/>
<path d="M63.915 75.0765L97.0319 71.7127L60.8061 108.218L63.915 75.0765Z" fill="black"/>
<path d="M26.2613 49.0583L12.1196 56.798L34.2496 35.0555L26.2613 49.0583Z" fill="black"/>
<path d="M12.7745 56.2609L9.49758 68.399L22.9632 48.8946L12.7745 56.2609Z" fill="#D9D9D9"/>
<path d="M12.7745 56.2609L9.49758 68.399L22.9632 48.8946L12.7745 56.2609Z" fill="black"/>
<path d="M25.7165 79.7703L13.7793 73.9049L31.7591 91.6188L25.7165 79.7703Z" fill="black"/>
<path d="M17.1725 71.1802L10.5507 70.5516L17.8998 77.792L17.1725 71.1802Z" fill="black"/>
<path d="M20.1725 73.1802L13.5507 72.5516L20.8998 79.792L20.1725 73.1802Z" fill="black"/>
<path d="M11.4255 65.082L16.9667 64.0665L11.0336 59.4621L11.4255 65.082Z" fill="black"/>
<rect x="33" y="36" width="1" height="2" fill="black"/>
<path d="M33 36C33 35.7239 33.2239 35.5 33.5 35.5H34V36H33Z" fill="black"/>
<rect x="32" y="37" width="1" height="2" fill="black"/>
<rect x="10" y="60" width="1" height="4" fill="#0E0E0E"/>
<rect x="11" y="60" width="1" height="4" fill="#0E0E0E"/>
<rect x="11" y="58" width="1" height="4" fill="#0E0E0E"/>
<rect x="12" y="57" width="1" height="4" fill="#0E0E0E"/>
<rect x="9" y="62" width="1" height="3" fill="#0E0E0E"/>
<rect x="10" y="62" width="1" height="3" fill="#0E0E0E"/>
<rect x="10" y="60" width="1" height="3" fill="#0E0E0E"/>
<rect x="9" y="65" width="1" height="2" fill="#0E0E0E"/>
<path d="M10 67H11V70C10.4477 70 10 69.5523 10 69V67Z" fill="#0E0E0E"/>
<rect x="11" y="67" width="1" height="4" fill="#0E0E0E"/>
<rect x="12" y="68" width="1" height="3" fill="#0E0E0E"/>
<rect x="13" y="69" width="1" height="2" fill="#0E0E0E"/>
<rect x="11" y="59" width="1" height="3" fill="#0E0E0E"/>
<path d="M9.88263 60.3879L11.3662 61.538L9.43063 62.2098L9.88263 60.3879Z" fill="#0E0E0E"/>
<path d="M10.4246 59.2728L11.6778 59.7592L9.74228 60.431L10.4246 59.2728Z" fill="#0E0E0E"/>
<path d="M11.6823 56.9662L13.0336 56.6664L11.8518 58.34L11.6823 56.9662Z" fill="#0E0E0E"/>
<path d="M11.5493 58.9467L12.1407 57.4628L10.1651 59.7441L11.5493 58.9467Z" fill="#0E0E0E"/>
<path d="M11.3997 59.404L10.4585 58.9957L11.2605 60.4206L11.3997 59.404Z" fill="#0E0E0E"/>
<path d="M11.1335 58.7338L10.3955 58.6866L10.791 59.3891L11.1335 58.7338Z" fill="#0E0E0E"/>
<path d="M11.9518 57.7279L11.2944 57.5526L11.4539 58.1916L11.9518 57.7279Z" fill="#0E0E0E"/>
<path d="M12.5461 57.9988L11.3001 57.7978L11.5408 58.7619L12.5461 57.9988Z" fill="#0E0E0E"/>
<path d="M10.5315 67.5737L10.0035 68.6465L9.33841 67.6529L10.5315 67.5737Z" fill="#0E0E0E"/>
<path d="M11.5315 69.5737L11.0035 70.6465L10.3384 69.6529L11.5315 69.5737Z" fill="#0E0E0E"/>
<path d="M9.44579 68.0403L9.38274 66.3783L11.081 68.3445L9.44579 68.0403Z" fill="#060505"/>
<ellipse cx="97" cy="64.5" rx="3" ry="6.5" fill="black"/>
<path d="M94 70H98C98 71.1046 97.1046 72 96 72H94V70Z" fill="black"/>
<rect x="95" y="69" width="1" height="1" fill="black"/>
<rect x="94" y="58" width="2" height="2" fill="black"/>
<rect width="1" height="2" transform="matrix(-1 0 0 1 11 66)" fill="black"/>
<line x1="34" y1="34.5" x2="75" y2="34.5" stroke="black"/>
<rect x="34" y="35" width="19" height="7" fill="black"/>
<rect x="55" y="35" width="20" height="7" fill="black"/>
<rect x="57" y="39" width="19" height="7" fill="black"/>
<rect x="58" y="44" width="20" height="6" fill="black"/>
<rect x="68" y="48" width="8" height="12" fill="black"/>
<rect x="60" y="50" width="8" height="3" fill="black"/>
<rect x="62" y="52" width="8" height="3" fill="black"/>
<rect x="63" y="53" width="8" height="3" fill="black"/>
<rect x="65" y="55" width="8" height="3" fill="black"/>
<rect x="66" y="56" width="8" height="3" fill="black"/>
<rect x="70" y="58" width="8" height="3" fill="black"/>
<rect x="72" y="59" width="8" height="3" fill="black"/>
<rect x="73" y="60" width="8" height="3" fill="black"/>
<rect x="76" y="59" width="8" height="4" fill="black"/>
<rect x="75" y="66" width="9" height="4" fill="black"/>
<rect x="67" y="70" width="17" height="4" fill="black"/>
<rect x="64" y="72" width="11" height="4" fill="black"/>
<rect x="58" y="80" width="6" height="4" fill="black"/>
<rect x="59" y="78" width="6" height="4" fill="black"/>
<rect x="60" y="76" width="6" height="4" fill="black"/>
<rect x="61" y="75" width="6" height="4" fill="black"/>
<rect x="62" y="74" width="6" height="4" fill="black"/>
<rect x="63" y="73" width="1" height="1" fill="black"/>
<rect x="66" y="71" width="1" height="1" fill="black"/>
<rect x="66" y="70" width="1" height="1" fill="black"/>
<rect x="68" y="69" width="1" height="1" fill="black"/>
<rect x="69" y="69" width="6" height="1" fill="black"/>
<rect x="70" y="68" width="5" height="1" fill="black"/>
<rect x="72" y="67" width="3" height="1" fill="black"/>
<rect x="74" y="66" width="1" height="1" fill="black"/>
<rect x="77" y="63" width="7" height="1" fill="black"/>
<rect x="80" y="64" width="7" height="1" fill="black"/>
<rect x="77" y="65" width="7" height="1" fill="black"/>
<rect x="31" y="38" width="19" height="7" fill="black"/>
<rect x="30" y="40" width="19" height="7" fill="black"/>
<rect x="28" y="42" width="19" height="7" fill="black"/>
<rect x="25" y="46" width="19" height="7" fill="black"/>
<rect x="23" y="49" width="19" height="7" fill="black"/>
<rect x="23" y="52" width="19" height="7" fill="black"/>
<rect x="21" y="54" width="19" height="7" fill="black"/>
<rect x="17" y="56" width="19" height="7" fill="black"/>
<rect x="24" y="66" width="11" height="7" fill="black"/>
<rect x="24" y="73" width="22" height="11" fill="black"/>
<rect x="28" y="82" width="22" height="6" fill="black"/>
<rect x="30" y="86" width="22" height="4" fill="black"/>
<rect x="32" y="90" width="22" height="2" fill="black"/>
<rect x="34" y="92" width="20" height="2" fill="black"/>
<rect width="8" height="7" transform="matrix(1 0 0 -1 55 94)" fill="black"/>
<rect width="8" height="7" transform="matrix(1 0 0 -1 57 90)" fill="black"/>
<rect width="8" height="7" transform="matrix(1 0 0 -1 56 91)" fill="black"/>
<rect x="90" y="55" width="5" height="7" fill="black"/>
<rect width="1" height="1" transform="matrix(1 0 0 -1 95 58)" fill="black"/>
<rect width="1" height="1" transform="matrix(1 0 0 -1 96 58)" fill="black"/>
<rect width="1" height="1" transform="matrix(1 0 0 -1 96 59)" fill="black"/>
<rect width="1" height="1" transform="matrix(1 0 0 -1 97 59)" fill="black"/>
<rect width="1" height="1" transform="matrix(1 0 0 -1 95 57)" fill="black"/>
<rect x="50" y="42" width="3" height="3" fill="black"/>
<rect x="49" y="45" width="3" height="3" fill="#060606"/>
<rect x="47" y="47" width="4" height="3" fill="#060606"/>
<rect x="44" y="49" width="5" height="4" fill="#060606"/>
<rect x="42" y="53" width="3" height="4" fill="#060606"/>
<rect x="41" y="54" width="3" height="4" fill="#060606"/>
<rect x="35" y="58" width="3" height="4" fill="#060606"/>
<rect x="24" y="63" width="8" height="1" fill="black"/>
<rect x="24" y="65" width="8" height="1" fill="black"/>
<rect x="35" y="68" width="4" height="1" fill="black"/>
<rect x="35" y="69" width="6" height="1" fill="black"/>
<rect x="35" y="70" width="7" height="3" fill="black"/>
<rect x="42" y="71" width="2" height="2" fill="black"/>
<rect x="44" y="72" width="1" height="1" fill="black"/>
<rect x="46" y="75" width="2" height="7" fill="black"/>
<rect x="48" y="78" width="2" height="6" fill="black"/>
<rect x="50" y="81" width="2" height="5" fill="black"/>
<rect x="52" y="84" width="1" height="6" fill="black"/>
<rect x="53" y="87" width="1" height="6" fill="black"/>
<rect x="53" y="35" width="1" height="7" fill="black"/>
<rect x="54" y="34" width="1" height="5" fill="black"/>
<path d="M61 44C61 44.5061 60.8933 45.004 60.6898 45.4473C60.4864 45.8906 60.1927 46.265 59.8363 46.5355C59.4798 46.806 59.0721 46.9639 58.6511 46.9945C58.2302 47.0251 57.8096 46.9274 57.4285 46.7105C57.0475 46.4936 56.7183 46.1645 56.4718 45.7539C56.2252 45.3433 56.0692 44.8645 56.0183 44.3621C55.9674 43.8597 56.0232 43.35 56.1806 42.8804C56.338 42.4109 56.5918 41.9968 56.9185 41.6766L58.5 44H61Z" fill="black"/>
<path d="M61 45C61 45.5061 60.8933 46.004 60.6898 46.4473C60.4864 46.8906 60.1927 47.265 59.8363 47.5355C59.4798 47.806 59.0721 47.9639 58.6511 47.9945C58.2302 48.0251 57.8096 47.9274 57.4285 47.7105C57.0475 47.4936 56.7183 47.1645 56.4718 46.7539C56.2252 46.3433 56.0692 45.8645 56.0183 45.3621C55.9674 44.8597 56.0232 44.35 56.1806 43.8804C56.338 43.4109 56.5918 42.9968 56.9185 42.6766L58.5 45H61Z" fill="black"/>
<ellipse cx="56.3631" cy="42.8117" rx="1" ry="1.61715" transform="rotate(-14.0666 56.3631 42.8117)" fill="black"/>
<ellipse cx="58.3631" cy="47.8117" rx="1" ry="1.61715" transform="rotate(-14.0666 58.3631 47.8117)" fill="black"/>
<ellipse cx="60.0658" cy="50.518" rx="1.21711" ry="1.97445" transform="rotate(-14.0666 60.0658 50.518)" fill="black"/>
<ellipse cx="61.6604" cy="53.211" rx="1.21711" ry="1.97445" transform="rotate(-29.6449 61.6604 53.211)" fill="black"/>
<ellipse cx="63.0344" cy="54.318" rx="1.21711" ry="1.97445" transform="rotate(-29.6449 63.0344 54.318)" fill="black"/>
<ellipse cx="64.0344" cy="55.318" rx="1.21711" ry="1.97445" transform="rotate(-29.6449 64.0344 55.318)" fill="black"/>
<ellipse cx="65.0344" cy="56.318" rx="1.21711" ry="1.97445" transform="rotate(-29.6449 65.0344 56.318)" fill="black"/>
<ellipse cx="66.0344" cy="57.318" rx="1.21711" ry="1.97445" transform="rotate(-29.6449 66.0344 57.318)" fill="black"/>
<ellipse cx="67.1433" cy="58.256" rx="0.726131" ry="1.97445" transform="rotate(-29.6449 67.1433 58.256)" fill="black"/>
<ellipse cx="68.8827" cy="59.8012" rx="0.726131" ry="0.508632" transform="rotate(-29.6449 68.8827 59.8012)" fill="black"/>
<ellipse cx="69.387" cy="60.1389" rx="0.997349" ry="1.05161" transform="rotate(-29.6449 69.387 60.1389)" fill="black"/>
<ellipse cx="70.387" cy="60.4072" rx="0.997349" ry="1.05161" transform="rotate(-29.6449 70.387 60.4072)" fill="black"/>
<ellipse cx="71.3669" cy="61" rx="0.813346" ry="0.687726" transform="rotate(-29.6449 71.3669 61)" fill="black"/>
<ellipse cx="75.7892" cy="62.6273" rx="2.031" ry="0.949575" transform="rotate(-145.373 75.7892 62.6273)" fill="black"/>
<ellipse cx="71.8121" cy="61.5123" rx="2.031" ry="0.547281" transform="rotate(-145.373 71.8121 61.5123)" fill="black"/>
<ellipse cx="78.982" cy="63.6044" rx="2.031" ry="0.547281" transform="rotate(-145.373 78.982 63.6044)" fill="black"/>
<ellipse cx="76.0999" cy="65.948" rx="2.031" ry="0.547281" transform="rotate(168.293 76.0999 65.948)" fill="black"/>
<ellipse cx="73.0999" cy="66.948" rx="2.031" ry="0.547281" transform="rotate(168.293 73.0999 66.948)" fill="black"/>
<ellipse cx="71.0999" cy="67.948" rx="2.031" ry="0.547281" transform="rotate(168.293 71.0999 67.948)" fill="black"/>
<ellipse cx="70.0665" cy="68.7866" rx="2.031" ry="0.712113" transform="rotate(168.293 70.0665 68.7866)" fill="black"/>
<ellipse cx="68.14" cy="69.5138" rx="2.031" ry="0.712113" transform="rotate(154.627 68.14 69.5138)" fill="black"/>
<ellipse cx="65.9152" cy="72.0397" rx="2.031" ry="1.23684" transform="rotate(154.627 65.9152 72.0397)" fill="black"/>
<ellipse cx="64.1369" cy="73.5069" rx="2.031" ry="1.10911" transform="rotate(154.627 64.1369 73.5069)" fill="black"/>
<ellipse cx="62.2283" cy="75.6997" rx="2.031" ry="1.30038" transform="rotate(154.627 62.2283 75.6997)" fill="black"/>
<ellipse cx="59.8064" cy="78.2972" rx="2.031" ry="1.09155" transform="rotate(113.321 59.8064 78.2972)" fill="black"/>
<ellipse cx="58.8064" cy="80.2972" rx="2.031" ry="1.09155" transform="rotate(113.321 58.8064 80.2972)" fill="black"/>
<ellipse cx="57.7368" cy="82.9254" rx="2.34492" ry="1.3027" transform="rotate(113.321 57.7368 82.9254)" fill="black"/>
<ellipse cx="57.0238" cy="85.9025" rx="2.59919" ry="1.3027" transform="rotate(113.321 57.0238 85.9025)" fill="black"/>
<ellipse cx="55.6464" cy="91.7532" rx="2.59919" ry="1.3027" transform="rotate(97.8763 55.6464 91.7532)" fill="black"/>
<ellipse cx="53.9701" cy="91.9032" rx="2.14185" ry="1.507" transform="rotate(97.8763 53.9701 91.9032)" fill="black"/>
<ellipse cx="52.0413" cy="86.4755" rx="2.14185" ry="1.507" transform="rotate(73.9168 52.0413 86.4755)" fill="black"/>
<ellipse cx="51.1768" cy="83.4365" rx="2.14185" ry="1.64808" transform="rotate(73.9168 51.1768 83.4365)" fill="black"/>
<ellipse cx="50.1283" cy="80.4111" rx="2.27692" ry="1.37982" transform="rotate(63.5956 50.1283 80.4111)" fill="black"/>
<ellipse cx="48.2484" cy="77.653" rx="2.27692" ry="1.37982" transform="rotate(63.5956 48.2484 77.653)" fill="black"/>
<ellipse cx="45.5517" cy="74.4162" rx="2.41787" ry="1.56885" transform="rotate(51.9989 45.5517 74.4162)" fill="black"/>
<ellipse cx="42.725" cy="71.8712" rx="2.41787" ry="1.56885" transform="rotate(51.9989 42.725 71.8712)" fill="black"/>
<ellipse cx="39.7249" cy="69.8712" rx="2.41787" ry="1.56885" transform="rotate(33.4607 39.7249 69.8712)" fill="black"/>
<ellipse cx="37.0195" cy="68.2465" rx="2.86587" ry="1.28815" transform="rotate(33.4607 37.0195 68.2465)" fill="black"/>
<ellipse cx="32.88" cy="66.3293" rx="2.73734" ry="0.913777" transform="rotate(14.8311 32.88 66.3293)" fill="black"/>
<ellipse cx="26.5341" cy="64.3824" rx="3.31797" ry="1.27615" transform="rotate(14.8311 26.5341 64.3824)" fill="black"/>
<ellipse cx="27.4545" cy="62.3836" rx="3.31797" ry="1.58722" transform="rotate(14.8311 27.4545 62.3836)" fill="black"/>
<ellipse cx="32.572" cy="62.3547" rx="3.31798" ry="1.33259" transform="rotate(-19.3059 32.572 62.3547)" fill="black"/>
<ellipse cx="37.2205" cy="60.7772" rx="5.06473" ry="1.33259" transform="rotate(-19.3059 37.2205 60.7772)" fill="black"/>
<ellipse cx="46.5086" cy="53.451" rx="2.17984" ry="1.36526" transform="rotate(-19.3059 46.5086 53.451)" fill="black"/>
<ellipse cx="44.4508" cy="55.8442" rx="2.17984" ry="1.19039" transform="rotate(-19.3059 44.4508 55.8442)" fill="black"/>
<ellipse cx="45.4508" cy="54.8442" rx="2.17984" ry="1.19039" transform="rotate(-19.3059 45.4508 54.8442)" fill="black"/>
<ellipse cx="43.4508" cy="56.8442" rx="2.17984" ry="1.19039" transform="rotate(-19.3059 43.4508 56.8442)" fill="black"/>
<ellipse cx="41.5195" cy="58.0402" rx="2.17984" ry="1.39812" transform="rotate(-19.3059 41.5195 58.0402)" fill="black"/>
<ellipse cx="48.5001" cy="50.7207" rx="2.26719" ry="1.09012" transform="rotate(-19.3059 48.5001 50.7207)" fill="black"/>
<ellipse cx="47.5001" cy="51.7784" rx="2.26719" ry="1.09012" transform="rotate(-19.3059 47.5001 51.7784)" fill="black"/>
<ellipse cx="49.5001" cy="48.7784" rx="2.26719" ry="1.09012" transform="rotate(-19.3059 49.5001 48.7784)" fill="black"/>
<ellipse cx="51.8985" cy="45.4887" rx="0.851625" ry="1.27904" transform="rotate(-19.3059 51.8985 45.4887)" fill="black"/>
<ellipse cx="53.0808" cy="42.7698" rx="0.582523" ry="1.52173" transform="rotate(9.54745 53.0808 42.7698)" fill="black"/>
<ellipse cx="53.8269" cy="38.5973" rx="0.582523" ry="1.52173" transform="rotate(9.54745 53.8269 38.5973)" fill="black"/>
<ellipse cx="55.8269" cy="38.5973" rx="0.582523" ry="1.52173" transform="rotate(9.54745 55.8269 38.5973)" fill="black"/>
<ellipse cx="59.119" cy="50.0962" rx="0.744441" ry="1.97445" transform="rotate(-14.0666 59.119 50.0962)" fill="black"/>
<rect x="14" y="70" width="1" height="1" fill="black"/>
<ellipse cx="32.5975" cy="91.4132" rx="0.870728" ry="2.52977" transform="rotate(-39.9278 32.5975 91.4132)" fill="black"/>
<ellipse cx="96.0932" cy="57.5404" rx="1.30737" ry="3" transform="rotate(-47.4009 96.0932 57.5404)" fill="black"/>
</g>
<defs>
<clipPath id="clip0_2717_2088">
<rect width="110" height="110" fill="white"/>
</clipPath>
</defs>
</svg>
