<svg width="52" height="80" viewBox="0 0 52 80" fill="none" xmlns="http://www.w3.org/2000/svg">
<rect width="52" height="80" rx="5" fill="#F4F4F4"/>
<path d="M25.2727 34.9091V32H26.7273V34.9091H25.2727ZM30.1091 36.9091L29.1091 35.9091L31.1455 33.8182L32.1636 34.8545L30.1091 36.9091ZM31.0909 40.7273V39.2727H34V40.7273H31.0909ZM25.2727 48V45.0909H26.7273V48H25.2727ZM21.8909 36.8727L19.8182 34.8545L20.8545 33.8364L22.9091 35.8909L21.8909 36.8727ZM31.1273 46.1818L29.1091 44.0909L30.0909 43.1091L32.1636 45.1091L31.1273 46.1818ZM18 40.7273V39.2727H20.9091V40.7273H18ZM20.8545 46.1818L19.8364 45.1455L21.8727 43.1091L22.4 43.6L22.9273 44.1091L20.8545 46.1818ZM26 44.3636C24.7879 44.3636 23.7576 43.9394 22.9091 43.0909C22.0606 42.2424 21.6364 41.2121 21.6364 40C21.6364 38.7879 22.0606 37.7576 22.9091 36.9091C23.7576 36.0606 24.7879 35.6364 26 35.6364C27.2121 35.6364 28.2424 36.0606 29.0909 36.9091C29.9394 37.7576 30.3636 38.7879 30.3636 40C30.3636 41.2121 29.9394 42.2424 29.0909 43.0909C28.2424 43.9394 27.2121 44.3636 26 44.3636ZM26 42.9091C26.8 42.9091 27.4848 42.6242 28.0545 42.0545C28.6242 41.4848 28.9091 40.8 28.9091 40C28.9091 39.2 28.6242 38.5152 28.0545 37.9455C27.4848 37.3758 26.8 37.0909 26 37.0909C25.2 37.0909 24.5152 37.3758 23.9455 37.9455C23.3758 38.5152 23.0909 39.2 23.0909 40C23.0909 40.8 23.3758 41.4848 23.9455 42.0545C24.5152 42.6242 25.2 42.9091 26 42.9091Z" fill="#BBBBBB"/>
</svg>
