<svg width="44" height="18" viewBox="0 0 44 18" fill="none" xmlns="http://www.w3.org/2000/svg">
<path d="M43.0428 1.22217L29.9083 14.3566C25.5807 18.6842 18.5646 18.6842 14.237 14.3566L1.10254 1.22217" stroke="black" stroke-width="0.547945" stroke-miterlimit="10"/>
<path d="M1.04297 1.23059H22.043H43.043" stroke="black" stroke-width="0.55" stroke-linecap="round"/>
<rect x="1.23096" y="1.23059" width="41.5" height="0.5" fill="black"/>
<rect x="16.231" y="5.23059" width="12" height="11" rx="1" fill="#010101"/>
<rect x="16.231" y="1.23059" width="12" height="11" fill="#010101"/>
<rect x="27.231" y="5.23059" width="7" height="5" fill="#010101"/>
<rect x="10.231" y="5.23059" width="7" height="5" fill="#010101"/>
<rect x="27.231" y="1.23059" width="12" height="4" fill="#010101"/>
<rect x="5.23096" y="1.23059" width="12" height="4" fill="#010101"/>
<path d="M34.0468 10.2755L27.8384 16.1242L25.7436 8.32368L34.0468 10.2755Z" fill="black"/>
<path d="M39.2195 5.02766L33.1427 11.2005L30.824 2.89512L39.2195 5.02766Z" fill="black"/>
<path d="M41.2986 2.99503L39.0839 5.30375L38.1879 2.24764L41.2986 2.99503Z" fill="black"/>
<path d="M42.2627 1.63323L40.7322 3.27959L40.0691 1.14234L42.2627 1.63323Z" fill="black"/>
<path d="M39.7499 1.24341L40.5091 2.90388L38.4025 2.47553L39.7499 1.24341Z" fill="black"/>
<path d="M40.2355 1.35519L41.5175 3.12198L38.3653 2.48099L40.2355 1.35519Z" fill="black"/>
<path d="M10.3747 10.2454L17.051 8.39418L15.3161 15.1016L10.3747 10.2454Z" fill="black"/>
<path d="M10.3107 9.84451C10.2958 9.92004 10.2048 9.95116 10.1468 9.90053L4.67379 5.12134C4.61581 5.0707 4.63438 4.97629 4.70722 4.95139L11.5826 2.60122C11.6555 2.57632 11.728 2.63961 11.7131 2.71514L10.3107 9.84451Z" fill="black"/>
<path d="M5.91339 5.53017C5.89201 5.60412 5.79859 5.6272 5.74524 5.57171L2.97737 2.69293C2.92402 2.63743 2.95074 2.54499 3.02548 2.52653L6.90251 1.56888C6.97724 1.55042 7.04393 1.61979 7.02255 1.69374L5.91339 5.53017Z" fill="black"/>
<path d="M3.92182 4.04713C3.90257 4.12166 3.80986 4.14741 3.75493 4.09347L1.62867 2.00551C1.57375 1.95157 1.59781 1.8584 1.67198 1.8378L4.54334 1.04039C4.61752 1.01979 4.68617 1.08721 4.66693 1.16175L3.92182 4.04713Z" fill="black"/>
<path d="M5.15278 4.27772C5.13353 4.35225 5.04081 4.378 4.98589 4.32406L2.85963 2.2361C2.8047 2.18216 2.82876 2.08899 2.90294 2.06839L5.7743 1.27098C5.84847 1.25038 5.91713 1.3178 5.89788 1.39234L5.15278 4.27772Z" fill="black"/>
<ellipse cx="21.731" cy="14.5306" rx="6.5" ry="3" fill="black"/>
<ellipse cx="20.731" cy="12.2306" rx="6.5" ry="3" fill="black"/>
</svg>
