<svg width="110" height="110" viewBox="0 0 110 110" fill="none" xmlns="http://www.w3.org/2000/svg">
<path d="M76.0428 93.2222L62.9083 106.357C58.5807 110.684 51.5646 110.684 47.237 106.357L34.1025 93.2222" stroke="black" stroke-width="0.547945" stroke-miterlimit="10"/>
<path d="M34.043 93.2306H55.043H76.043" stroke="black" stroke-width="0.55" stroke-linecap="round"/>
<rect x="34.231" y="93.2306" width="41.5" height="0.5" fill="black"/>
<rect x="49.231" y="97.2306" width="12" height="11" rx="1" fill="#010101"/>
<rect x="49.231" y="93.2306" width="12" height="11" fill="#010101"/>
<rect x="60.231" y="97.2306" width="7" height="5" fill="#010101"/>
<rect x="43.231" y="97.2306" width="7" height="5" fill="#010101"/>
<rect x="60.231" y="93.2306" width="12" height="4" fill="#010101"/>
<rect x="38.231" y="93.2306" width="12" height="4" fill="#010101"/>
<path d="M67.0468 102.275L60.8384 108.124L58.7436 100.324L67.0468 102.275Z" fill="black"/>
<path d="M72.2195 97.0277L66.1427 103.201L63.824 94.8951L72.2195 97.0277Z" fill="black"/>
<path d="M74.2986 94.995L72.0839 97.3037L71.1879 94.2476L74.2986 94.995Z" fill="black"/>
<path d="M75.2627 93.6332L73.7322 95.2796L73.0691 93.1423L75.2627 93.6332Z" fill="black"/>
<path d="M72.7499 93.2434L73.5091 94.9039L71.4025 94.4755L72.7499 93.2434Z" fill="black"/>
<path d="M73.2355 93.3552L74.5175 95.122L71.3653 94.481L73.2355 93.3552Z" fill="black"/>
<path d="M43.3747 102.245L50.051 100.394L48.3161 107.102L43.3747 102.245Z" fill="black"/>
<path d="M43.3107 101.845C43.2958 101.92 43.2048 101.951 43.1468 101.901L37.6738 97.1213C37.6158 97.0707 37.6344 96.9763 37.7072 96.9514L44.5826 94.6012C44.6555 94.5763 44.728 94.6396 44.7131 94.7151L43.3107 101.845Z" fill="black"/>
<path d="M38.9134 97.5302C38.892 97.6041 38.7986 97.6272 38.7452 97.5717L35.9774 94.6929C35.924 94.6374 35.9507 94.545 36.0255 94.5265L39.9025 93.5689C39.9772 93.5504 40.0439 93.6198 40.0226 93.6937L38.9134 97.5302Z" fill="black"/>
<path d="M36.9218 96.0471C36.9026 96.1217 36.8099 96.1474 36.7549 96.0935L34.6287 94.0055C34.5737 93.9516 34.5978 93.8584 34.672 93.8378L37.5433 93.0404C37.6175 93.0198 37.6862 93.0872 37.6669 93.1617L36.9218 96.0471Z" fill="black"/>
<path d="M38.1528 96.2777C38.1335 96.3523 38.0408 96.378 37.9859 96.3241L35.8596 94.2361C35.8047 94.1822 35.8288 94.089 35.9029 94.0684L38.7743 93.271C38.8485 93.2504 38.9171 93.3178 38.8979 93.3923L38.1528 96.2777Z" fill="black"/>
<ellipse cx="54.731" cy="106.531" rx="6.5" ry="3" fill="black"/>
<ellipse cx="53.731" cy="104.231" rx="6.5" ry="3" fill="black"/>
</svg>
