<svg width="12" height="12" viewBox="0 0 12 12" fill="none" xmlns="http://www.w3.org/2000/svg">
<path d="M6 11.3317L5.5 10.8817C4.41111 9.88171 3.51111 9.02882 2.8 8.32304C2.08889 7.61771 1.52511 6.99548 1.10867 6.45637C0.691778 5.91771 0.402667 5.42882 0.241333 4.98971C0.0804444 4.55104 0 4.10948 0 3.66504C0 2.8206 0.288889 2.10948 0.866667 1.53171C1.44444 0.953928 2.15556 0.665039 3 0.665039C3.58889 0.665039 4.13889 0.815039 4.65 1.11504C5.16111 1.41504 5.61111 1.85393 6 2.43171C6.38889 1.85393 6.83889 1.41504 7.35 1.11504C7.86111 0.815039 8.41111 0.665039 9 0.665039C9.84444 0.665039 10.5556 0.953928 11.1333 1.53171C11.7111 2.10948 12 2.8206 12 3.66504C12 4.10948 11.9196 4.55104 11.7587 4.98971C11.5973 5.42882 11.3084 5.91771 10.892 6.45637C10.4751 6.99548 9.91378 7.61771 9.208 8.32304C8.50267 9.02882 7.6 9.88171 6.5 10.8817L6 11.3317Z" fill="black"/>
</svg>
