<svg width="29" height="29" viewBox="0 0 29 29" fill="none" xmlns="http://www.w3.org/2000/svg">
<g clip-path="url(#clip0_1_486)">
<path d="M29 26.7344C29 27.9857 27.9857 29 26.7344 29H2.26562C1.01432 29 0 27.9857 0 26.7344V2.26562C0 1.01432 1.01432 0 2.26562 0H26.7344C27.9857 0 29 1.01432 29 2.26562V26.7344Z" fill="#FFE812"/>
<path d="M14.5 4.07812C7.99335 4.07812 2.71875 8.23702 2.71875 13.3672C2.71875 16.6839 4.92388 19.5943 8.24098 21.2376C8.06053 21.86 7.08132 25.2414 7.04236 25.5071C7.04236 25.5071 7.01891 25.7067 7.14816 25.7828C7.27741 25.8589 7.42944 25.7998 7.42944 25.7998C7.80009 25.748 11.7277 22.9892 12.4075 22.5101C13.0866 22.6063 13.7859 22.6562 14.5 22.6562C21.0066 22.6562 26.2812 18.4975 26.2812 13.3672C26.2812 8.23702 21.0066 4.07812 14.5 4.07812Z" fill="black"/>
<path d="M7.98633 16.6099C7.61148 16.6099 7.30664 16.3187 7.30664 15.9608V11.9229H6.2461C5.87828 11.9229 5.5791 11.6242 5.5791 11.2573C5.5791 10.8904 5.87839 10.5918 6.2461 10.5918H9.72655C10.0944 10.5918 10.3936 10.8904 10.3936 11.2573C10.3936 11.6242 10.0943 11.9229 9.72655 11.9229H8.66602V15.9608C8.66602 16.3187 8.36118 16.6099 7.98633 16.6099ZM13.9463 16.601C13.6629 16.601 13.446 16.4859 13.3807 16.3008L13.0441 15.4197L10.9715 15.4196L10.6347 16.3013C10.5696 16.486 10.3529 16.601 10.0695 16.601C9.92037 16.6012 9.773 16.5692 9.6374 16.5072C9.45003 16.4208 9.26992 16.1831 9.47632 15.5421L11.1021 11.2628C11.2167 10.9373 11.5645 10.602 12.0072 10.5919C12.4512 10.6019 12.7991 10.9373 12.9138 11.2634L14.539 15.5408C14.7458 16.1834 14.5657 16.4211 14.3783 16.5073C14.2427 16.5692 14.0954 16.6011 13.9463 16.601C13.9463 16.601 13.9462 16.601 13.9463 16.601ZM12.6867 14.2158L12.0078 12.2872L11.3289 14.2158H12.6867ZM15.6328 16.5107C15.2736 16.5107 14.9814 16.2312 14.9814 15.8877V11.2715C14.9814 10.8966 15.2927 10.5918 15.6753 10.5918C16.0578 10.5918 16.3691 10.8966 16.3691 11.2715V15.2646H17.8135C18.1727 15.2646 18.4648 15.5442 18.4648 15.8877C18.4648 16.2312 18.1727 16.5107 17.8135 16.5107H15.6328ZM19.4089 16.601C19.0341 16.601 18.7292 16.2962 18.7292 15.9213V11.2715C18.7292 10.8966 19.0341 10.5918 19.4089 10.5918C19.7838 10.5918 20.0886 10.8966 20.0886 11.2715V12.7324L21.9849 10.836C22.0825 10.7385 22.2165 10.6848 22.3619 10.6848C22.5316 10.6848 22.702 10.758 22.8297 10.8855C22.9487 11.0045 23.0198 11.1575 23.0295 11.3165C23.0394 11.4768 22.986 11.6237 22.8795 11.7303L21.3306 13.2789L23.0037 15.4954C23.0577 15.5665 23.0971 15.6476 23.1195 15.7341C23.1419 15.8205 23.1469 15.9105 23.1342 15.9989C23.1221 16.0874 23.0925 16.1725 23.0472 16.2495C23.002 16.3264 22.9419 16.3936 22.8705 16.4472C22.7529 16.5365 22.6093 16.5847 22.4616 16.5844C22.3563 16.5849 22.2524 16.5607 22.1581 16.5138C22.0638 16.4668 21.9818 16.3985 21.9187 16.3142L20.3247 14.2022L20.0888 14.438V15.921C20.0886 16.1013 20.0169 16.2741 19.8895 16.4016C19.762 16.5291 19.5892 16.6008 19.4089 16.601Z" fill="#FFE812"/>
</g>
<defs>
<clipPath id="clip0_1_486">
<rect width="29" height="29" fill="white"/>
</clipPath>
</defs>
</svg>
