<svg width="24" height="22" viewBox="0 0 24 22" fill="none" xmlns="http://www.w3.org/2000/svg">
<path d="M12 21.6634L11 20.7634C8.82222 18.7634 7.02222 17.0576 5.6 15.6461C4.17778 14.2354 3.05022 12.991 2.21733 11.9127C1.38356 10.8354 0.805333 9.85764 0.482667 8.97941C0.160889 8.10208 0 7.21897 0 6.33008C0 4.64119 0.577778 3.21897 1.73333 2.06341C2.88889 0.907856 4.31111 0.330078 6 0.330078C7.17778 0.330078 8.27778 0.630078 9.3 1.23008C10.3222 1.83008 11.2222 2.70786 12 3.86341C12.7778 2.70786 13.6778 1.83008 14.7 1.23008C15.7222 0.630078 16.8222 0.330078 18 0.330078C19.6889 0.330078 21.1111 0.907856 22.2667 2.06341C23.4222 3.21897 24 4.64119 24 6.33008C24 7.21897 23.8391 8.10208 23.5173 8.97941C23.1947 9.85764 22.6169 10.8354 21.784 11.9127C20.9502 12.991 19.8276 14.2354 18.416 15.6461C17.0053 17.0576 15.2 18.7634 13 20.7634L12 21.6634ZM12 19.8634C14.1333 17.9301 15.8889 16.2745 17.2667 14.8967C18.6444 13.519 19.7333 12.3243 20.5333 11.3127C21.3333 10.3021 21.8889 9.40786 22.2 8.63008C22.5111 7.8523 22.6667 7.08564 22.6667 6.33008C22.6667 4.99675 22.2222 3.88563 21.3333 2.99674C20.4444 2.10786 19.3333 1.66341 18 1.66341C16.9333 1.66341 15.9502 1.96875 15.0507 2.57941C14.1502 3.19097 13.3556 4.09675 12.6667 5.29675H11.3333C10.6222 4.07452 9.82222 3.16341 8.93333 2.56341C8.04445 1.96341 7.06667 1.66341 6 1.66341C4.68889 1.66341 3.58356 2.10786 2.684 2.99674C1.78356 3.88563 1.33333 4.99675 1.33333 6.33008C1.33333 7.08564 1.48889 7.8523 1.8 8.63008C2.11111 9.40786 2.66667 10.3021 3.46667 11.3127C4.26667 12.3243 5.35556 13.5132 6.73333 14.8794C8.11111 16.2465 9.86667 17.9079 12 19.8634Z" fill="white"/>
</svg>
