<svg width="50" height="50" viewBox="0 0 50 50" fill="none" xmlns="http://www.w3.org/2000/svg">
<rect width="20" height="20" transform="matrix(0.68964 -0.724153 0.68964 0.724153 11.6665 33.463)" fill="white"/>
<path d="M30.5638 11.9897L25.0103 11.0471L19.4779 12.1044C19.2256 12.107 19.0164 11.6614 19.0106 11.1092C19.0047 10.557 19.2044 10.1071 19.4567 10.1045L25.0103 11.0471L30.5426 9.98983C30.7949 9.98722 31.0041 10.4329 31.0099 10.9851C31.0158 11.5372 30.8161 11.9871 30.5638 11.9897Z" fill="black"/>
<path d="M28.6408 16.1332L25 14.6332L21.3592 16.1332C21.1609 16.1332 21 15.4615 21 14.6332C21 13.8049 21.1607 13.1332 21.3592 13.1332L25 14.6332L28.6408 13.1332C28.8391 13.1332 29 13.8049 29 14.6332C29 15.4615 28.8393 16.1332 28.6408 16.1332Z" fill="black"/>
<path d="M39.8594 30.4974L27.7536 18.3916C26.2328 16.8708 23.7672 16.8708 22.2464 18.3916L16.1935 24.4445L10.1406 30.4974C8.6198 32.0182 8.6198 34.4838 10.1406 36.0046L22.2464 48.1104C23.7672 49.6312 26.2328 49.6312 27.7536 48.1104L39.8594 36.0046C41.3802 34.4838 41.3802 32.0182 39.8594 30.4974ZM25 43.3865C25 37.7888 20.4622 33.251 14.8644 33.251C20.4622 33.251 25 28.7131 25 23.1154C25 28.7131 29.5378 33.251 35.1356 33.251C29.5378 33.251 25 37.7888 25 43.3865Z" fill="black"/>
</svg>
