<svg width="17" height="31" viewBox="0 0 17 31" fill="none" xmlns="http://www.w3.org/2000/svg">
<rect y="20.5295" width="16" height="9.60563" rx="4.80282" fill="#FFE03D"/>
<path d="M7.62598 25.1719C7.62598 26.9766 6.54004 28.0781 5.0791 28.0781C3.60254 28.0781 2.52441 26.9766 2.52441 25.1719C2.52441 23.3594 3.60254 22.2656 5.0791 22.2656C6.54004 22.2656 7.62598 23.3594 7.62598 25.1719ZM6.77441 25.1719C6.77441 23.7969 6.04785 23.0547 5.0791 23.0547C4.10254 23.0547 3.37598 23.7969 3.37598 25.1719C3.37598 26.5469 4.10254 27.2891 5.0791 27.2891C6.04785 27.2891 6.77441 26.5469 6.77441 25.1719ZM12.8572 22.3438V28H12.0682L9.20098 23.8672H9.1541V28H8.29473V22.3438H9.0916L11.9588 26.4844H12.0135V22.3438H12.8572Z" fill="black"/>
<path d="M0 16.5576V15.5191H2.16216V7.73076C2.16216 6.34617 2.62162 5.13015 3.54054 4.0827C4.45946 3.03594 5.62162 2.38276 7.02703 2.12315V1.39623C7.02703 1.0847 7.13081 0.833743 7.33838 0.643361C7.54523 0.452979 7.8018 0.357788 8.10811 0.357788C8.41441 0.357788 8.67135 0.452979 8.87892 0.643361C9.08577 0.833743 9.18919 1.0847 9.18919 1.39623V2.12315C10.5946 2.38276 11.7568 3.03594 12.6757 4.0827C13.5946 5.13015 14.0541 6.34617 14.0541 7.73076V15.5191H16.2162V16.5576H0ZM8.10811 19.5691C7.63964 19.5691 7.22991 19.4091 6.87892 19.0893C6.52721 18.7688 6.35135 18.3662 6.35135 17.8816H9.86487C9.86487 18.3662 9.69838 18.7688 9.36541 19.0893C9.03171 19.4091 8.61261 19.5691 8.10811 19.5691ZM3.24324 15.5191H12.973V7.73076C12.973 6.4327 12.5002 5.32918 11.5546 4.42019C10.6083 3.5119 9.45946 3.05775 8.10811 3.05775C6.75676 3.05775 5.60793 3.5119 4.66162 4.42019C3.71604 5.32918 3.24324 6.4327 3.24324 7.73076V15.5191Z" fill="black"/>
</svg>
