<svg width="20" height="20" viewBox="0 0 20 20" fill="none" xmlns="http://www.w3.org/2000/svg">
<path d="M16.2905 12.5651C15.3085 12.5651 14.4158 12.9479 13.7522 13.572L7.40244 10.3407C7.41421 10.2189 7.42048 10.0955 7.42048 9.97052C7.42048 9.8259 7.41107 9.68442 7.39538 9.54451L13.6698 6.35095C14.3413 7.02142 15.2669 7.43643 16.2898 7.43643C18.3386 7.43643 20 5.77166 20 3.71861C20 1.66555 18.3394 0 16.2905 0C14.2417 0 12.5803 1.66477 12.5803 3.71782C12.5803 3.84673 12.5866 3.97328 12.5999 4.09904L6.29878 7.30595C5.63047 6.65357 4.7182 6.25192 3.71181 6.25192C1.66137 6.25192 0 7.91668 0 9.96974C0 12.0228 1.66137 13.6876 3.71024 13.6876C4.73703 13.6876 5.66577 13.2694 6.338 12.5942L12.6132 15.7878C12.5921 15.9497 12.5795 16.114 12.5795 16.2822C12.5795 18.3352 14.2409 20 16.2898 20C18.3386 20 20 18.3352 20 16.2822C20 14.2291 18.3394 12.5651 16.2905 12.5651Z" fill="black"/>
</svg>
