<svg width="20" height="22" viewBox="0 0 20 22" fill="none" xmlns="http://www.w3.org/2000/svg">
<path d="M15.8649 10.7365C15.8405 8.23542 18.0863 7.03468 18.1879 6.97614C16.9241 5.27592 14.9574 5.043 14.2558 5.0156C12.583 4.8599 10.9901 5.92113 10.1422 5.92113C9.29425 5.92113 7.98309 5.03802 6.59609 5.06293C4.77022 5.08784 3.08929 6.03822 2.14927 7.54039C0.254324 10.5634 1.66571 15.0438 3.51054 17.4975C4.41399 18.697 5.48946 20.0485 6.90355 19.9987C8.26618 19.9488 8.78089 19.189 10.4253 19.189C12.0696 19.189 12.5329 19.9987 13.9727 19.975C15.4369 19.9488 16.3661 18.7493 17.2628 17.5461C18.2976 16.1536 18.7256 14.8058 18.75 14.7348C18.7175 14.7224 15.8947 13.7272 15.8649 10.7365Z" fill="white"/>
<path d="M13.2739 3.45872C14.1354 2.54285 14.717 1.26934 14.5568 0C13.3157 0.0437253 11.8136 0.726161 10.9226 1.64204C10.1248 2.45148 9.42506 3.74813 9.61469 4.99163C10.9987 5.08581 12.4122 4.37325 13.2739 3.45872Z" fill="white"/>
</svg>
