<svg width="38" height="38" viewBox="0 0 38 38" fill="none" xmlns="http://www.w3.org/2000/svg">
<path d="M33.9287 4.07153H4.07153V33.9287H33.9287V4.07153Z" fill="black"/>
<path d="M19.1513 13.8325C19.7159 13.8325 20.4236 13.439 20.845 12.9145C21.2267 12.4391 21.5051 11.7752 21.5051 11.1113C21.5051 11.0211 21.4971 10.9309 21.4812 10.8572C20.853 10.8818 20.0976 11.2916 19.6443 11.8407C19.2864 12.2588 18.9604 12.9145 18.9604 13.5866C18.9604 13.6849 18.9763 13.7833 18.9843 13.8161C19.024 13.8243 19.0876 13.8325 19.1513 13.8325ZM17.1633 23.75C17.9346 23.75 18.2765 23.2173 19.2387 23.2173C20.2168 23.2173 20.4315 23.7336 21.2904 23.7336C22.1333 23.7336 22.6979 22.9304 23.2306 22.1436C23.827 21.242 24.0736 20.3567 24.0895 20.3158C24.0338 20.2994 22.4195 19.6191 22.4195 17.7093C22.4195 16.0537 23.6919 15.3078 23.7634 15.2504C22.9205 14.0046 21.6402 13.9718 21.2904 13.9718C20.3441 13.9718 19.5727 14.5619 19.0876 14.5619C18.5628 14.5619 17.871 14.0046 17.0519 14.0046C15.4933 14.0046 13.9109 15.3324 13.9109 17.8405C13.9109 19.3978 14.4993 21.0452 15.223 22.1108C15.8432 23.0124 16.384 23.75 17.1633 23.75Z" fill="white"/>
</svg>
