<svg width="16" height="16" viewBox="0 0 16 16" fill="none" xmlns="http://www.w3.org/2000/svg">
<path d="M16 0V5.6128H14.3255V2.87826L9.9678 7.2114C10.3041 7.69049 10.5625 8.21071 10.7431 8.77208C10.9237 9.33345 11.0139 9.90711 11.0139 10.4931C11.0139 12.0279 10.4798 13.3295 9.41161 14.3977C8.34337 15.4659 7.04183 16 5.50697 16C3.97212 16 2.67058 15.4659 1.60236 14.3977C0.53412 13.3295 0 12.0279 0 10.4931C0 8.9582 0.53412 7.65665 1.60236 6.58841C2.67058 5.52018 3.97212 4.98607 5.50697 4.98607C6.09684 4.98607 6.66737 5.07734 7.21858 5.25989C7.76981 5.44243 8.28496 5.70183 8.76404 6.03809L13.1217 1.68037H10.3931V0H16ZM5.51194 6.66054C4.45073 6.66054 3.54585 7.03316 2.7973 7.77841C2.04875 8.52365 1.67447 9.42688 1.67447 10.4881C1.67447 11.5493 2.04709 12.4542 2.79233 13.2027C3.53757 13.9513 4.4408 14.3256 5.50201 14.3256C6.56322 14.3256 7.4681 13.9529 8.21665 13.2077C8.9652 12.4625 9.33948 11.5592 9.33948 10.498C9.33948 9.43681 8.96686 8.53192 8.22162 7.78337C7.47637 7.03482 6.57315 6.66054 5.51194 6.66054Z" fill="#BBBBBB"/>
</svg>
