<svg width="16" height="16" viewBox="0 0 16 16" fill="none" xmlns="http://www.w3.org/2000/svg">
<path d="M16 -0.0239258V5.58887H14.3255V2.85434L9.9678 7.18748C10.3041 7.66656 10.5625 8.18678 10.7431 8.74815C10.9237 9.30952 11.0139 9.88318 11.0139 10.4691C11.0139 12.004 10.4798 13.3055 9.41161 14.3738C8.34337 15.442 7.04183 15.9761 5.50697 15.9761C3.97212 15.9761 2.67058 15.442 1.60236 14.3738C0.53412 13.3055 0 12.004 0 10.4691C0 8.93427 0.53412 7.63272 1.60236 6.56448C2.67058 5.49625 3.97212 4.96214 5.50697 4.96214C6.09684 4.96214 6.66737 5.05341 7.21858 5.23596C7.76981 5.41851 8.28496 5.67791 8.76404 6.01416L13.1217 1.65645H10.3931V-0.0239258H16ZM5.51194 6.63662C4.45073 6.63662 3.54585 7.00924 2.7973 7.75448C2.04875 8.49972 1.67447 9.40295 1.67447 10.4642C1.67447 11.5254 2.04709 12.4303 2.79233 13.1788C3.53757 13.9274 4.4408 14.3016 5.50201 14.3016C6.56322 14.3016 7.4681 13.929 8.21665 13.1838C8.9652 12.4385 9.33948 11.5353 9.33948 10.4741C9.33948 9.41288 8.96686 8.508 8.22162 7.75945C7.47637 7.01089 6.57315 6.63662 5.51194 6.63662Z" fill="white"/>
</svg>
