<svg width="12" height="12" viewBox="0 0 12 12" fill="none" xmlns="http://www.w3.org/2000/svg">
<path d="M6 11.3317L5.5 10.8817C4.41111 9.88171 3.51111 9.02882 2.8 8.32304C2.08889 7.61771 1.52511 6.99548 1.10867 6.45637C0.691778 5.91771 0.402667 5.42882 0.241333 4.98971C0.0804444 4.55104 0 4.10948 0 3.66504C0 2.8206 0.288889 2.10948 0.866667 1.53171C1.44444 0.953928 2.15556 0.665039 3 0.665039C3.58889 0.665039 4.13889 0.815039 4.65 1.11504C5.16111 1.41504 5.61111 1.85393 6 2.43171C6.38889 1.85393 6.83889 1.41504 7.35 1.11504C7.86111 0.815039 8.41111 0.665039 9 0.665039C9.84445 0.665039 10.5556 0.953928 11.1333 1.53171C11.7111 2.10948 12 2.8206 12 3.66504C12 4.10948 11.9196 4.55104 11.7587 4.98971C11.5973 5.42882 11.3084 5.91771 10.892 6.45637C10.4751 6.99548 9.91378 7.61771 9.208 8.32304C8.50267 9.02882 7.6 9.88171 6.5 10.8817L6 11.3317ZM6 10.4317C7.06667 9.46504 7.94444 8.63726 8.63333 7.94837C9.32222 7.25948 9.86667 6.66215 10.2667 6.15637C10.6667 5.65104 10.9444 5.20393 11.1 4.81504C11.2556 4.42615 11.3333 4.04282 11.3333 3.66504C11.3333 2.99837 11.1111 2.44282 10.6667 1.99837C10.2222 1.55393 9.66667 1.33171 9 1.33171C8.46667 1.33171 7.97511 1.48437 7.52533 1.78971C7.07511 2.09548 6.67778 2.54837 6.33333 3.14837H5.66667C5.31111 2.53726 4.91111 2.08171 4.46667 1.78171C4.02222 1.48171 3.53333 1.33171 3 1.33171C2.34444 1.33171 1.79178 1.55393 1.342 1.99837C0.891778 2.44282 0.666667 2.99837 0.666667 3.66504C0.666667 4.04282 0.744444 4.42615 0.9 4.81504C1.05556 5.20393 1.33333 5.65104 1.73333 6.15637C2.13333 6.66215 2.67778 7.2566 3.36667 7.93971C4.05556 8.62326 4.93333 9.45393 6 10.4317Z" fill="black"/>
</svg>
