<svg width="52" height="80" viewBox="0 0 52 80" fill="none" xmlns="http://www.w3.org/2000/svg">
<rect width="52" height="80" rx="5" fill="#F4F4F4"/>
<g clip-path="url(#clip0_1782_1235)">
<path d="M30.776 37.5895L30.1372 38.1485C29.9509 38.3215 29.7313 38.408 29.4785 38.408C29.2256 38.408 29.006 38.3348 28.8197 38.1884C28.6334 38.042 28.507 37.8557 28.4404 37.6294C28.3739 37.4032 28.3805 37.1637 28.4604 36.9108L28.7798 35.9127L28.1011 35.5134C27.8881 35.3936 27.7384 35.2206 27.6519 34.9944C27.5654 34.7681 27.5554 34.5419 27.622 34.3157C27.6885 34.0894 27.8216 33.9131 28.0212 33.7867C28.2208 33.6602 28.4471 33.597 28.6999 33.597H29.4984L29.738 32.8384C29.8178 32.5856 29.9543 32.3826 30.1472 32.2296C30.3402 32.0765 30.5498 32 30.776 32C31.0023 32 31.2119 32.0765 31.4049 32.2296C31.5978 32.3826 31.7342 32.5856 31.8141 32.8384L32.0536 33.597H32.8522C33.105 33.597 33.3279 33.6602 33.5209 33.7867C33.7139 33.9131 33.8503 34.0894 33.9301 34.3157C34.0233 34.5552 34.0233 34.7881 33.9301 35.0143C33.837 35.2406 33.6906 35.4069 33.491 35.5134L32.7723 35.9127L33.0917 36.9108C33.1716 37.1637 33.1782 37.4065 33.1117 37.6394C33.0451 37.8723 32.9187 38.0553 32.7324 38.1884C32.5328 38.3348 32.3098 38.408 32.0636 38.408C31.8174 38.408 31.6012 38.3215 31.4148 38.1485L30.776 37.5895ZM30.776 35.9925C31.0023 35.9925 31.1919 35.916 31.345 35.7629C31.498 35.6099 31.5745 35.4203 31.5745 35.194C31.5745 34.9678 31.498 34.7781 31.345 34.6251C31.1919 34.472 31.0023 34.3955 30.776 34.3955C30.5498 34.3955 30.3602 34.472 30.2071 34.6251C30.0541 34.7781 29.9775 34.9678 29.9775 35.194C29.9775 35.4203 30.0541 35.6099 30.2071 35.7629C30.3602 35.916 30.5498 35.9925 30.776 35.9925ZM27.4223 44.6962C27.7284 45.4947 27.6286 46.24 27.1229 46.932C26.6172 47.624 25.9052 47.9701 24.9869 47.9701C24.5477 47.9701 24.1318 47.8569 23.7392 47.6307C23.3466 47.4045 23.0572 47.105 22.8709 46.7324C21.7663 46.8921 20.8513 46.6093 20.126 45.884C19.4007 45.1587 19.1046 44.2304 19.2377 43.0992C18.8384 42.8729 18.5323 42.5635 18.3194 42.1709C18.1065 41.7783 18 41.3292 18 40.8235C18 40.0116 18.3693 39.3562 19.1079 38.8571C19.8465 38.3581 20.5685 38.2549 21.2739 38.5477L22.5115 39.0668C22.7777 38.6542 23.1304 38.3182 23.5696 38.0586C24.0087 37.7991 24.4812 37.6561 24.9869 37.6294V35.9925H26.1847V37.7891C26.6771 37.9355 27.083 38.1651 27.4024 38.4779C27.7218 38.7906 27.9946 39.2265 28.2208 39.7854H29.9775V40.9832H28.3406C28.314 41.4889 28.1776 41.9613 27.9314 42.4005C27.6852 42.8397 27.3558 43.1923 26.9432 43.4585L27.4223 44.6962ZM22.4716 45.1753C22.4716 44.816 22.5016 44.4666 22.5614 44.1273C22.6213 43.7879 22.7112 43.4585 22.8309 43.1391C22.5248 43.2855 22.1955 43.3886 21.8428 43.4485C21.4901 43.5084 21.1408 43.5251 20.7948 43.4984C20.7948 44.0175 20.9445 44.4267 21.2439 44.7261C21.5434 45.0256 21.9526 45.1753 22.4716 45.1753ZM20.9944 41.9014C21.4203 41.9014 21.7962 41.8482 22.1223 41.7417C22.4483 41.6353 22.8709 41.4223 23.3899 41.1029L20.9944 40.1048C20.6084 39.9451 20.2791 39.9484 20.0062 40.1148C19.7334 40.2811 19.597 40.544 19.597 40.9033C19.597 41.2493 19.7101 41.5022 19.9364 41.6619C20.1626 41.8216 20.5153 41.9014 20.9944 41.9014ZM24.9869 46.3731C25.3196 46.3731 25.5891 46.2566 25.7954 46.0237C26.0017 45.7908 26.0516 45.5479 25.9451 45.2951L24.8671 42.5802C24.6143 43.006 24.418 43.4319 24.2782 43.8578C24.1385 44.2836 24.0686 44.6696 24.0686 45.0156C24.0686 45.4548 24.1451 45.7908 24.2982 46.0237C24.4512 46.2566 24.6808 46.3731 24.9869 46.3731ZM26.3044 41.9414C26.4375 41.8083 26.544 41.6319 26.6238 41.4124C26.7037 41.1928 26.7436 40.9632 26.7436 40.7236C26.7436 40.2978 26.6039 39.9384 26.3244 39.6457C26.0449 39.3529 25.6989 39.2065 25.2863 39.2065C25.0468 39.2065 24.8205 39.2464 24.6076 39.3263C24.3947 39.4061 24.215 39.5192 24.0686 39.6656L25.6257 40.3843L26.3044 41.9414Z" fill="#BBBBBB"/>
</g>
<defs>
<clipPath id="clip0_1782_1235">
<rect width="16" height="16" fill="white" transform="translate(18 32)"/>
</clipPath>
</defs>
</svg>
