<svg width="24" height="24" viewBox="0 0 24 24" fill="none" xmlns="http://www.w3.org/2000/svg">
<g opacity="0.5">
<path d="M4.5 21H8V16H3V19.5C3 19.9125 3.14688 20.2656 3.44063 20.5594C3.73438 20.8531 4.0875 21 4.5 21ZM9.5 21H14.5V16H9.5V21ZM16 21H19.5C19.9125 21 20.2656 20.8531 20.5594 20.5594C20.8531 20.2656 21 19.9125 21 19.5V16H16V21ZM3 14.5H8V9.5H3V14.5ZM9.5 14.5H14.5V9.5H9.5V14.5ZM16 14.5H21V9.5H16V14.5ZM3 8H8V3H4.5C4.0875 3 3.73438 3.14688 3.44063 3.44063C3.14688 3.73438 3 4.0875 3 4.5V8ZM9.5 8H14.5V3H9.5V8ZM16 8H21V4.5C21 4.0875 20.8531 3.73438 20.5594 3.44063C20.2656 3.14688 19.9125 3 19.5 3H16V8Z" fill="#BBBBBB"/>
</g>
</svg>
