<svg width="16" height="16" viewBox="0 0 16 16" fill="none" xmlns="http://www.w3.org/2000/svg">
<path d="M12.776 5.58952L12.1372 6.14847C11.9509 6.32148 11.7313 6.40799 11.4785 6.40799C11.2256 6.40799 11.006 6.33479 10.8197 6.1884C10.6334 6.04201 10.507 5.85569 10.4404 5.62945C10.3739 5.4032 10.3805 5.16365 10.4604 4.91079L10.7798 3.91266L10.1011 3.51341C9.88813 3.39364 9.73841 3.22063 9.6519 2.99439C9.5654 2.76814 9.55542 2.5419 9.62196 2.31566C9.6885 2.08942 9.82158 1.91308 10.0212 1.78665C10.2208 1.66022 10.4471 1.59701 10.6999 1.59701H11.4984L11.738 0.838428C11.8178 0.585569 11.9543 0.382616 12.1472 0.22957C12.3402 0.0765232 12.5498 0 12.776 0C13.0023 0 13.2119 0.0765232 13.4049 0.22957C13.5978 0.382616 13.7342 0.585569 13.8141 0.838428L14.0536 1.59701H14.8522C15.105 1.59701 15.3279 1.66022 15.5209 1.78665C15.7139 1.91308 15.8503 2.08942 15.9301 2.31566C16.0233 2.55521 16.0233 2.78811 15.9301 3.01435C15.837 3.24059 15.6906 3.40695 15.491 3.51341L14.7723 3.91266L15.0917 4.91079C15.1716 5.16365 15.1782 5.40653 15.1117 5.63943C15.0451 5.87232 14.9187 6.05531 14.7324 6.1884C14.5328 6.33479 14.3098 6.40799 14.0636 6.40799C13.8174 6.40799 13.6012 6.32148 13.4148 6.14847L12.776 5.58952ZM12.776 3.99251C13.0023 3.99251 13.1919 3.91599 13.345 3.76295C13.498 3.6099 13.5745 3.42025 13.5745 3.19401C13.5745 2.96777 13.498 2.77812 13.345 2.62508C13.1919 2.47203 13.0023 2.39551 12.776 2.39551C12.5498 2.39551 12.3602 2.47203 12.2071 2.62508C12.0541 2.77812 11.9775 2.96777 11.9775 3.19401C11.9775 3.42025 12.0541 3.6099 12.2071 3.76295C12.3602 3.91599 12.5498 3.99251 12.776 3.99251ZM9.42233 12.6962C9.72843 13.4947 9.62861 14.24 9.12289 14.932C8.61718 15.624 7.90518 15.9701 6.9869 15.9701C6.54772 15.9701 6.13184 15.8569 5.73924 15.6307C5.34664 15.4045 5.05718 15.105 4.87087 14.7324C3.76627 14.8921 2.85132 14.6093 2.12601 13.884C1.40071 13.1587 1.1046 12.2304 1.23768 11.0992C0.838428 10.8729 0.532335 10.5635 0.319401 10.1709C0.106467 9.77833 0 9.32918 0 8.82346C0 8.01165 0.369308 7.35621 1.10792 6.85714C1.84654 6.35808 2.56852 6.25494 3.27386 6.54772L4.51154 7.06675C4.77771 6.65419 5.13038 6.31815 5.56956 6.05864C6.00873 5.79913 6.48118 5.65606 6.9869 5.62945V3.99251H8.18465V5.78915C8.67706 5.93554 9.08297 6.16511 9.40237 6.47786C9.72177 6.7906 9.99459 7.22645 10.2208 7.7854H11.9775V8.98316H10.3406C10.314 9.48888 10.1776 9.96132 9.93138 10.4005C9.68517 10.8397 9.35579 11.1923 8.94323 11.4585L9.42233 12.6962ZM4.47162 13.1753C4.47162 12.816 4.50156 12.4666 4.56145 12.1273C4.62134 11.7879 4.71117 11.4585 4.83094 11.1391C4.52485 11.2855 4.19547 11.3886 3.84279 11.4485C3.49012 11.5084 3.14078 11.5251 2.79476 11.4984C2.79476 12.0175 2.94448 12.4267 3.24392 12.7261C3.54336 13.0256 3.95259 13.1753 4.47162 13.1753ZM2.99439 9.90144C3.42025 9.90144 3.79622 9.8482 4.12227 9.74174C4.44833 9.63527 4.87087 9.42233 5.38989 9.10293L2.99439 8.1048C2.60844 7.9451 2.27906 7.94843 2.00624 8.11479C1.73342 8.28114 1.59701 8.54398 1.59701 8.90331C1.59701 9.24933 1.71013 9.50218 1.93637 9.66189C2.16261 9.82159 2.51528 9.90144 2.99439 9.90144ZM6.9869 14.3731C7.31961 14.3731 7.5891 14.2566 7.79538 14.0237C8.00166 13.7908 8.05157 13.5479 7.9451 13.2951L6.86712 10.5802C6.61426 11.006 6.41797 11.4319 6.27823 11.8578C6.13849 12.2836 6.06862 12.6696 6.06862 13.0156C6.06862 13.4548 6.14514 13.7908 6.29819 14.0237C6.45124 14.2566 6.68081 14.3731 6.9869 14.3731ZM8.30443 9.94136C8.43751 9.80828 8.54398 9.63194 8.62383 9.41235C8.70368 9.19277 8.74361 8.96319 8.74361 8.72364C8.74361 8.29778 8.60387 7.93845 8.32439 7.64567C8.04492 7.35288 7.6989 7.20649 7.28634 7.20649C7.04679 7.20649 6.82054 7.24641 6.60761 7.32626C6.39468 7.40611 6.21501 7.51924 6.06862 7.66563L7.6257 8.38428L8.30443 9.94136Z" fill="#BBBBBB"/>
</svg>
