<svg width="50" height="50" viewBox="0 0 50 50" fill="none" xmlns="http://www.w3.org/2000/svg">
<rect width="20" height="20" transform="matrix(0.68964 -0.724153 0.68964 0.724153 11 33.623)" fill="white"/>
<path d="M29.987 7.10044L24.6864 9.00604L20.3858 12.6437C20.1673 12.7698 19.7663 12.4843 19.4902 12.006C19.2141 11.5278 19.1673 11.0378 19.3858 10.9116L24.6864 9.00604L28.987 5.36839C29.2055 5.24224 29.6064 5.52781 29.8825 6.00604C30.1586 6.48427 30.2055 6.97429 29.987 7.10044Z" fill="black"/>
<path d="M28.6408 16.13L25 14.63L21.3592 16.13C21.1609 16.13 21 15.4583 21 14.63C21 13.8017 21.1607 13.13 21.3592 13.13L25 14.63L28.6408 13.13C28.8391 13.13 29 13.8017 29 14.63C29 15.4583 28.8393 16.13 28.6408 16.13Z" fill="black"/>
<path d="M39.8595 30.4965L27.7536 18.3906C26.2328 16.8698 23.7673 16.8698 22.2465 18.3906L16.1935 24.4435L10.1406 30.4965C8.6198 32.0173 8.6198 34.4828 10.1406 36.0036L22.2465 48.1095C23.7673 49.6303 26.2328 49.6303 27.7536 48.1095L39.8595 36.0036C41.3803 34.4828 41.3803 32.0173 39.8595 30.4965ZM25.0001 43.3856C25.0001 37.7879 20.4622 33.2501 14.8645 33.2501C20.4622 33.2501 25.0001 28.7122 25.0001 23.1145C25.0001 28.7122 29.5379 33.2501 35.1356 33.2501C29.5379 33.2501 25.0001 37.7879 25.0001 43.3856Z" fill="black"/>
</svg>
