<svg width="11" height="16" viewBox="0 0 11 16" fill="none" xmlns="http://www.w3.org/2000/svg">
<path d="M5.97899 0V1.85303V3.3979L5.97899 5.6885C7.2489 5.87683 8.29987 6.45976 9.13188 7.43729C9.96388 8.41481 10.3799 9.54493 10.3799 10.8276C10.3799 12.267 9.87268 13.489 8.85829 14.4934C7.8439 15.4978 6.62113 16 5.18996 16C3.75879 16 2.53602 15.4978 1.52163 14.4934C0.507236 13.489 3.71933e-05 12.267 3.71933e-05 10.8276C3.71933e-05 9.54493 0.416037 8.41481 1.24804 7.43729C2.08005 6.45976 3.13101 5.87683 4.40093 5.6885L4.40093 3.3979V1.85303V0H5.97899ZM5.19464 7.19811C4.19452 7.19811 3.34174 7.54928 2.63629 8.25163C1.93083 8.95397 1.5781 9.80521 1.5781 10.8053C1.5781 11.8055 1.92927 12.6583 2.63161 13.3637C3.33394 14.0692 4.18517 14.4219 5.18528 14.4219C6.1854 14.4219 7.03818 14.0707 7.74363 13.3684C8.44909 12.6661 8.80182 11.8148 8.80182 10.8147C8.80182 9.81457 8.45065 8.96177 7.74831 8.25631C7.04598 7.55084 6.19475 7.19811 5.19464 7.19811Z" fill="#BBBBBB"/>
</svg>
