<svg width="110" height="110" viewBox="0 0 110 110" fill="none" xmlns="http://www.w3.org/2000/svg">
<g clip-path="url(#clip0_2680_6067)">
<path d="M72.4438 3.86504L54.9999 1.93252L37.556 3.86504C36.762 3.86504 36.1187 2.99968 36.1187 1.93252C36.1187 0.865366 36.762 0 37.556 0L54.9999 1.93252L72.4438 0C73.2378 0 73.8812 0.865366 73.8812 1.93252C73.8812 2.99968 73.2378 3.86504 72.4438 3.86504Z" fill="black"/>
<path d="M67.7851 9.31181L55.0002 7.61678L42.2153 9.31181C41.5191 9.31181 40.9541 8.55277 40.9541 7.61678C40.9541 6.68079 41.5183 5.92175 42.2153 5.92175L55.0002 7.61678L67.7851 5.92175C68.4813 5.92175 69.0463 6.68079 69.0463 7.61678C69.0463 8.55277 68.482 9.31181 67.7851 9.31181Z" fill="black"/>
<path d="M97.2843 56.6345L62.8357 22.186C58.5081 17.8584 51.4921 17.8584 47.1645 22.186L12.7159 56.6345C8.38831 60.9622 8.38831 67.9782 12.7159 72.3058L47.1645 106.754C51.4921 111.082 58.5081 111.082 62.8357 106.754L97.2843 72.3058C101.612 67.9782 101.612 60.9622 97.2843 56.6345ZM55.0001 93.3121C55.0001 77.3831 42.0871 64.4702 26.1582 64.4702C42.0871 64.4702 55.0001 51.5572 55.0001 35.6283C55.0001 51.5572 67.9131 64.4702 83.842 64.4702C67.9131 64.4702 55.0001 77.3831 55.0001 93.3121Z" fill="black" stroke="black" stroke-width="0.547945" stroke-miterlimit="10"/>
<path d="M54.823 92.646C54.823 76.7275 41.9185 63.823 26 63.823C41.9185 63.823 54.823 50.9185 54.823 35C54.823 50.9185 67.7275 63.823 83.646 63.823C67.7275 63.823 54.823 76.7275 54.823 92.646Z" fill="white" stroke="black" stroke-width="0.547945" stroke-miterlimit="10"/>
</g>
<defs>
<clipPath id="clip0_2680_6067">
<rect width="110" height="110" fill="white"/>
</clipPath>
</defs>
</svg>
