<svg width="93" height="47" viewBox="0 0 93 47" fill="none" xmlns="http://www.w3.org/2000/svg">
<path d="M17.688 0.841919C33.6169 0.841919 46.5299 13.7549 46.5299 29.6838C46.5299 13.7549 60.5711 0.841919 76.5 0.841919M1 0.841919C1 3.67784 2.0819 6.51376 4.2457 8.67755L38.6942 43.1261C43.0218 47.4537 50.0379 47.4537 54.3655 43.1261L88.814 8.67755C90.9778 6.51376 92.0598 3.67784 92.0598 0.841919" stroke="black" stroke-width="0.547945" stroke-miterlimit="10"/>
<rect x="37" y="33" width="19" height="8" fill="black"/>
<rect x="43" y="41" width="7" height="5" fill="black"/>
<path d="M77.57 7.62227L87.3944 9.41969L79.4789 17.4256L77.57 7.62227Z" fill="black"/>
<path d="M71.57 14.6223L81.3944 16.4197L73.4789 24.4256L71.57 14.6223Z" fill="black"/>
<path d="M65.57 20.6223L75.3944 22.4197L67.4789 30.4256L65.57 20.6223Z" fill="black"/>
<path d="M68.57 15.6223L78.3944 17.4197L70.4789 25.4256L68.57 15.6223Z" fill="black"/>
<path d="M61.57 19.6223L71.3944 21.4197L63.4789 29.4256L61.57 19.6223Z" fill="black"/>
<path d="M78.57 7.62227L88.3944 9.41969L80.4789 17.4256L78.57 7.62227Z" fill="black"/>
<path d="M55.6225 30.5697L65.4258 32.4792L57.4193 40.3942L55.6225 30.5697Z" fill="black"/>
<path d="M50.9303 35.2653L60.2049 37.1735L52.7319 44.5613L50.9303 35.2653Z" fill="black"/>
<path d="M50.6225 31.5697L60.4258 33.4792L52.4193 41.3942L50.6225 31.5697Z" fill="black"/>
<path d="M33.8279 38.4471L42.7277 33.9146L41.2937 45.0812L33.8279 38.4471Z" fill="black"/>
<path d="M38.6238 42.1119L43.2319 37.8073L44.3123 44.8329L38.6238 42.1119Z" fill="black"/>
<path d="M28.6944 32.9615L38.8242 30.2607L35.8895 40.5863L28.6944 32.9615Z" fill="black"/>
<path d="M21.6944 25.9615L31.8242 23.2607L28.8895 33.5863L21.6944 25.9615Z" fill="black"/>
<path d="M12.6944 16.9615L22.8242 14.2607L19.8895 24.5863L12.6944 16.9615Z" fill="black"/>
<path d="M4.69437 8.96146L14.8242 6.26067L11.8895 16.5863L4.69437 8.96146Z" fill="black"/>
<path d="M7.69437 11.9615L17.8242 9.26067L14.8895 19.5863L7.69437 11.9615Z" fill="black"/>
<path d="M17.6944 21.9615L27.8242 19.2607L24.8895 29.5863L17.6944 21.9615Z" fill="black"/>
<path d="M42.0928 44.6491L42.6233 44.1046L42.784 44.9657L42.0928 44.6491Z" fill="black"/>
<path d="M61.5271 24.6642L71.3677 26.3708L63.5265 34.4496L61.5271 24.6642Z" fill="black"/>
<rect x="49" y="41" width="3" height="4" fill="black"/>
<rect width="1" height="1" transform="matrix(1 0 0 -1 52 44)" fill="black"/>
<path d="M52 45C52.5523 45 53 44.5523 53 44H52V45Z" fill="black"/>
<rect width="1" height="1" transform="matrix(1 0 0 -1 41 45)" fill="black"/>
<rect width="1" height="1" transform="matrix(1 0 0 -1 41 44)" fill="black"/>
<rect width="1" height="1" transform="matrix(1 0 0 -1 42 44)" fill="black"/>
<rect width="0.5" height="0.5" transform="matrix(1 0 0 -1 42 45)" fill="black"/>
<rect x="52" y="41" width="1" height="2" fill="black"/>
<rect x="50" y="45" width="0.5" height="0.5" fill="black"/>
<path d="M50 45.5H50.5C50.5 45.7761 50.2761 46 50 46V45.5Z" fill="black"/>
<rect x="51" y="45" width="0.5" height="0.5" fill="black"/>
<rect x="50.5" y="45" width="0.5" height="0.5" fill="black"/>
<rect width="1" height="1" transform="matrix(-1 0 0 1 43 44)" fill="black"/>
<path d="M43 45H42C42 45.5523 42.4477 46 43 46V45Z" fill="black"/>
<rect x="38.6743" y="42" width="1.74787" height="0.988184" transform="rotate(43.0177 38.6743 42)" fill="#040404"/>
<rect x="42.1758" y="44.4623" width="0.539593" height="0.928955" transform="rotate(43.0177 42.1758 44.4623)" fill="#040404"/>
<rect x="45" y="46" width="3" height="0.4" fill="black"/>
<rect width="3" height="1" transform="matrix(-1 0 0 1 5 1)" fill="black"/>
<rect width="3" height="1" transform="matrix(-1 0 0 1 5 2)" fill="black"/>
<rect width="3" height="1" transform="matrix(-1 0 0 1 5 3)" fill="black"/>
<rect width="3" height="1" transform="matrix(-1 0 0 1 5 4)" fill="black"/>
<rect width="3" height="1" transform="matrix(-1 0 0 1 5 5)" fill="black"/>
<rect width="2" height="1" transform="matrix(-1 0 0 1 5 6)" fill="black"/>
<rect width="1" height="1" transform="matrix(-1 0 0 1 5 7)" fill="black"/>
<path d="M5 8H4C4 8.55228 4.44772 9 5 9V8Z" fill="black"/>
<path d="M4 7H3C3 7.55228 3.44772 8 4 8V7Z" fill="black"/>
<path d="M2 1H1C1 1.55228 1.44772 2 2 2V1Z" fill="black"/>
<path d="M2 2H1C1 2.55228 1.44772 3 2 3V2Z" fill="black"/>
<path d="M2 3H1C1 3.55228 1.44772 4 2 4V3Z" fill="black"/>
<path d="M2 4H1.5V4.5C1.5 4.77614 1.72386 5 2 5V4Z" fill="black"/>
<path d="M3 6H2.5V6.5C2.5 6.77614 2.72386 7 3 7V6Z" fill="black"/>
<path d="M2 2H1.5V3H2V2Z" fill="black"/>
<path d="M2 3H1.5V4H2V3Z" fill="black"/>
<path d="M2 1H1V2H2V1Z" fill="black"/>
<path d="M2 2H1V3H2V2Z" fill="black"/>
<rect x="88" y="1" width="3" height="1" fill="#060505"/>
<rect x="88" y="2" width="3" height="1" fill="#060505"/>
<rect x="88" y="3" width="3" height="1" fill="#060505"/>
<rect x="88" y="4" width="3" height="1" fill="#060505"/>
<rect x="88" y="5" width="3" height="1" fill="#060505"/>
<rect x="88" y="6" width="2" height="1" fill="#060505"/>
<path d="M88 8H89C89 8.55228 88.5523 9 88 9V8Z" fill="#060505"/>
<path d="M87 9H88C88 9.55228 87.5523 10 87 10V9Z" fill="#060505"/>
<rect x="86" y="9" width="1" height="1" fill="#060505"/>
<rect x="88" y="7" width="1" height="1" fill="#060505"/>
<rect x="91" y="1" width="1" height="1" fill="#020202"/>
<rect x="91" y="2" width="1" height="1" fill="#020202"/>
<path d="M91 3H91.75V4H91V3Z" fill="#020202"/>
<path d="M90 6H90.5V7H90V6Z" fill="#020202"/>
<path d="M89 7H89.86V7.15C89.86 7.62496 89.475 8.01 89 8.01V7Z" fill="#020202"/>
<path d="M91 4H91.5V4.5C91.5 4.77614 91.2761 5 91 5V4Z" fill="#020202"/>
<path fill-rule="evenodd" clip-rule="evenodd" d="M88.72 9H87V9.5H87.6437L88.72 9Z" fill="black"/>
<path fill-rule="evenodd" clip-rule="evenodd" d="M89.72 8H88V8.5H88.6437L89.72 8Z" fill="black"/>
<path fill-rule="evenodd" clip-rule="evenodd" d="M87.0002 9H88.7202V8.5H88.0765L87.0002 9Z" fill="black"/>
<rect x="5" y="1" width="17" height="8" fill="black"/>
<rect x="13" y="9" width="25" height="8" fill="black"/>
<rect x="20" y="17" width="23" height="8" fill="black"/>
<rect x="29" y="25" width="17" height="8" fill="black"/>
<rect x="47" y="25" width="17" height="8" fill="black"/>
<rect x="49" y="18" width="17" height="8" fill="black"/>
<rect x="51" y="15" width="17" height="8" fill="black"/>
<rect x="52" y="13" width="17" height="8" fill="black"/>
<rect x="53" y="12" width="17" height="8" fill="black"/>
<rect x="54" y="11" width="17" height="8" fill="black"/>
<rect x="55" y="10" width="17" height="8" fill="black"/>
<rect x="56" y="9" width="17" height="8" fill="black"/>
<rect x="57" y="8" width="17" height="8" fill="black"/>
<rect x="58" y="7" width="17" height="8" fill="black"/>
<rect x="60" y="6" width="20" height="10" fill="black"/>
<rect x="61" y="5" width="17" height="8" fill="black"/>
<rect x="63" y="4" width="17" height="8" fill="black"/>
<rect x="65" y="3" width="17" height="8" fill="black"/>
<rect x="68" y="2" width="17" height="8" fill="black"/>
<rect x="71" y="1" width="17" height="8" fill="black"/>
<ellipse cx="20.5" cy="6.5" rx="9.5" ry="5.5" fill="black"/>
<ellipse cx="28.5" cy="10.5" rx="9.5" ry="5.5" fill="black"/>
<ellipse cx="33.5" cy="16.5" rx="9.5" ry="5.5" fill="black"/>
<ellipse cx="42" cy="21.5" rx="3" ry="5.5" fill="black"/>
<ellipse cx="43" cy="25.5" rx="3" ry="5.5" fill="black"/>
<ellipse cx="44" cy="29.5" rx="3" ry="5.5" fill="black"/>
<ellipse cx="49" cy="30.5" rx="3" ry="5.5" fill="black"/>
<ellipse cx="49" cy="24" rx="1" ry="5" fill="black"/>
<ellipse cx="50.5" cy="19" rx="1.5" ry="3" fill="black"/>
<path d="M69.8715 1.34047L71.7899 1.84544L68.6008 2.86388L69.8715 1.34047Z" fill="black"/>
<path d="M67.988 3.22806L65.7235 3.05533L69.4003 1.44946L67.988 3.22806Z" fill="black"/>
<path d="M65.6912 4.22806L63.4266 4.05533L67.1034 2.44946L65.6912 4.22806Z" fill="#080808"/>
<path d="M63.6912 5.22806L61.4266 5.05533L65.1034 3.44946L63.6912 5.22806Z" fill="#080808"/>
<path d="M60.4111 8.07825L57.6948 7.62572L61.0296 5.39489L60.4111 8.07825Z" fill="#080808"/>
<path d="M61.3237 7.37854L58.6074 6.92601L61.9422 4.69518L61.3237 7.37854Z" fill="#080808"/>
<path d="M58.3645 9.35002L55.6324 9.00557L58.8762 6.64423L58.3645 9.35002Z" fill="#080808"/>
<path d="M56.411 11.4191L53.6573 11.4249L56.5744 8.67024L56.411 11.4191Z" fill="#080808"/>
<path d="M54.411 13.4191L51.6573 13.4249L54.5744 10.6702L54.411 13.4191Z" fill="#080808"/>
<path d="M52.581 16.2215L49.8876 16.7946L52.1745 13.498L52.581 16.2215Z" fill="#080808"/>
<path d="M50.3359 23.6802L46.9963 25.3426L48.3081 20.549L50.3359 23.6802Z" fill="#080808"/>
<path d="M50.3354 24.7467L46.9959 26.4091L48.3076 21.6155L50.3354 24.7467Z" fill="#080808"/>
<path d="M38.1599 9.30949L42.1871 14.2499L34.982 14.8347L38.1599 9.30949Z" fill="black"/>
<path d="M27.7278 2.67271L33.4696 5.62879L26.936 9.08215L27.7278 2.67271Z" fill="black"/>
<rect x="67" y="19" width="5" height="3" fill="black"/>
<line x1="1.5" y1="1" x2="1.5" y2="0.84" stroke="black"/>
<line x1="2.5" y1="1" x2="2.5" y2="0.84" stroke="black"/>
<line x1="3.5" y1="1" x2="3.5" y2="0.84" stroke="black"/>
<line x1="4.5" y1="1" x2="4.5" y2="0.84" stroke="black"/>
<line x1="5.5" y1="1" x2="5.5" y2="0.84" stroke="black"/>
<line x1="6.5" y1="1" x2="6.5" y2="0.84" stroke="black"/>
<line x1="7.5" y1="1" x2="7.5" y2="0.84" stroke="black"/>
<line x1="8.5" y1="1" x2="8.5" y2="0.84" stroke="black"/>
<line x1="9.5" y1="1" x2="9.5" y2="0.84" stroke="black"/>
<line x1="10.5" y1="1" x2="10.5" y2="0.84" stroke="black"/>
<line x1="11.5" y1="1" x2="11.5" y2="0.84" stroke="black"/>
<line x1="12.5" y1="1" x2="12.5" y2="0.84" stroke="black"/>
<line x1="13.5" y1="1" x2="13.5" y2="0.84" stroke="black"/>
<line x1="14.5" y1="1" x2="14.5" y2="0.84" stroke="black"/>
<line x1="15.5" y1="1" x2="15.5" y2="0.84" stroke="black"/>
<path d="M77.5 1V0.84" stroke="black"/>
<line x1="78.5" y1="1" x2="78.5" y2="0.84" stroke="black"/>
<line x1="79.5" y1="1" x2="79.5" y2="0.84" stroke="black"/>
<line x1="80.5" y1="1" x2="80.5" y2="0.84" stroke="black"/>
<line x1="81.5" y1="1" x2="81.5" y2="0.84" stroke="black"/>
<line x1="82.5" y1="1" x2="82.5" y2="0.84" stroke="black"/>
<line x1="83.5" y1="1" x2="83.5" y2="0.84" stroke="black"/>
<line x1="84.5" y1="1" x2="84.5" y2="0.84" stroke="black"/>
<line x1="85.5" y1="1" x2="85.5" y2="0.84" stroke="black"/>
<line x1="86.5" y1="1" x2="86.5" y2="0.84" stroke="black"/>
<line x1="87.5" y1="1" x2="87.5" y2="0.84" stroke="black"/>
<line x1="88.5" y1="1" x2="88.5" y2="0.84" stroke="black"/>
<line x1="89.5" y1="1" x2="89.5" y2="0.84" stroke="black"/>
<line x1="90.5" y1="1" x2="90.5" y2="0.84" stroke="black"/>
<line x1="91.5" y1="1" x2="91.5" y2="0.84" stroke="black"/>
<line x1="16.5" y1="1" x2="16.5" y2="0.84" stroke="black"/>
<line x1="17.5" y1="1" x2="17.5" y2="0.84" stroke="black"/>
<line x1="3.5" y1="1.16003" x2="3.5" y2="1.00003" stroke="black"/>
<line x1="76.5" y1="1" x2="76.5" y2="0.84" stroke="black"/>
<path d="M21 1C35.4065 2.59764 46.6104 14.8134 46.6104 29.646C46.6104 14.8134 57.8143 2.59764 72.2209 1H21Z" fill="white"/>
</svg>
