<svg width="110" height="110" viewBox="0 0 110 110" fill="none" xmlns="http://www.w3.org/2000/svg">
<g clip-path="url(#clip0_2717_2085)">
<path d="M25.688 64.163C41.6169 64.163 54.5299 77.0759 54.5299 93.0049C54.5299 77.0759 68.5711 64.163 84.5 64.163M9 64.163C9 66.9989 10.0819 69.8348 12.2457 71.9986L46.6942 106.447C51.0218 110.775 58.0379 110.775 62.3655 106.447L96.814 71.9986C98.9778 69.8348 100.06 66.9989 100.06 64.163" stroke="black" stroke-width="0.547945" stroke-miterlimit="10"/>
<rect x="45" y="96.321" width="19" height="8" fill="black"/>
<rect x="51" y="104.321" width="7" height="5" fill="black"/>
<path d="M85.57 70.9433L95.3944 72.7407L87.4789 80.7467L85.57 70.9433Z" fill="black"/>
<path d="M79.57 77.9433L89.3944 79.7407L81.4789 87.7467L79.57 77.9433Z" fill="black"/>
<path d="M73.57 83.9433L83.3944 85.7407L75.4789 93.7467L73.57 83.9433Z" fill="black"/>
<path d="M76.57 78.9433L86.3944 80.7407L78.4789 88.7467L76.57 78.9433Z" fill="black"/>
<path d="M69.57 82.9433L79.3944 84.7407L71.4789 92.7467L69.57 82.9433Z" fill="black"/>
<path d="M86.57 70.9433L96.3944 72.7407L88.4789 80.7467L86.57 70.9433Z" fill="black"/>
<path d="M63.6225 93.8907L73.4258 95.8002L65.4193 103.715L63.6225 93.8907Z" fill="black"/>
<path d="M58.9303 98.5864L68.2049 100.495L60.7319 107.882L58.9303 98.5864Z" fill="black"/>
<path d="M58.6225 94.8907L68.4258 96.8002L60.4193 104.715L58.6225 94.8907Z" fill="black"/>
<path d="M41.8279 101.768L50.7277 97.2356L49.2937 108.402L41.8279 101.768Z" fill="black"/>
<path d="M46.6238 105.433L51.2319 101.128L52.3123 108.154L46.6238 105.433Z" fill="black"/>
<path d="M36.6944 96.2825L46.8242 93.5817L43.8895 103.907L36.6944 96.2825Z" fill="black"/>
<path d="M29.6944 89.2825L39.8242 86.5817L36.8895 96.9074L29.6944 89.2825Z" fill="black"/>
<path d="M20.6944 80.2825L30.8242 77.5817L27.8895 87.9074L20.6944 80.2825Z" fill="black"/>
<path d="M12.6944 72.2825L22.8242 69.5817L19.8895 79.9074L12.6944 72.2825Z" fill="black"/>
<path d="M15.6944 75.2825L25.8242 72.5817L22.8895 82.9074L15.6944 75.2825Z" fill="black"/>
<path d="M25.6944 85.2825L35.8242 82.5817L32.8895 92.9074L25.6944 85.2825Z" fill="black"/>
<path d="M50.0928 107.97L50.6233 107.426L50.784 108.287L50.0928 107.97Z" fill="black"/>
<path d="M69.5271 87.9853L79.3677 89.6919L71.5265 97.7706L69.5271 87.9853Z" fill="black"/>
<rect x="57" y="104.321" width="3" height="4" fill="black"/>
<rect width="1" height="1" transform="matrix(1 0 0 -1 60 107.321)" fill="black"/>
<path d="M60 108.321C60.5523 108.321 61 107.873 61 107.321H60V108.321Z" fill="black"/>
<rect width="1" height="1" transform="matrix(1 0 0 -1 49 108.321)" fill="black"/>
<rect width="1" height="1" transform="matrix(1 0 0 -1 49 107.321)" fill="black"/>
<rect width="1" height="1" transform="matrix(1 0 0 -1 50 107.321)" fill="black"/>
<rect width="0.5" height="0.5" transform="matrix(1 0 0 -1 50 108.321)" fill="black"/>
<rect x="60" y="104.321" width="1" height="2" fill="black"/>
<rect x="58" y="108.321" width="0.5" height="0.5" fill="black"/>
<path d="M58 108.821H58.5V108.821C58.5 109.097 58.2761 109.321 58 109.321V109.321V108.821Z" fill="black"/>
<rect x="59" y="108.321" width="0.5" height="0.5" fill="black"/>
<rect x="58.5" y="108.321" width="0.5" height="0.5" fill="black"/>
<rect width="1" height="1" transform="matrix(-1 0 0 1 51 107.321)" fill="black"/>
<path d="M51 108.321H50C50 108.873 50.4477 109.321 51 109.321V108.321Z" fill="black"/>
<rect x="46.6743" y="105.321" width="1.74787" height="0.988184" transform="rotate(43.0177 46.6743 105.321)" fill="#040404"/>
<rect x="50.1758" y="107.783" width="0.539593" height="0.928955" transform="rotate(43.0177 50.1758 107.783)" fill="#040404"/>
<rect x="53" y="109.321" width="3" height="0.4" fill="black"/>
<rect width="3" height="1" transform="matrix(-1 0 0 1 13 64.321)" fill="black"/>
<rect width="3" height="1" transform="matrix(-1 0 0 1 13 65.321)" fill="black"/>
<rect width="3" height="1" transform="matrix(-1 0 0 1 13 66.321)" fill="black"/>
<rect width="3" height="1" transform="matrix(-1 0 0 1 13 67.321)" fill="black"/>
<rect width="3" height="1" transform="matrix(-1 0 0 1 13 68.321)" fill="black"/>
<rect width="2" height="1" transform="matrix(-1 0 0 1 13 69.321)" fill="black"/>
<rect width="1" height="1" transform="matrix(-1 0 0 1 13 70.321)" fill="black"/>
<path d="M13 71.321H12C12 71.8733 12.4477 72.321 13 72.321V71.321Z" fill="black"/>
<path d="M12 70.321H11C11 70.8733 11.4477 71.321 12 71.321V70.321Z" fill="black"/>
<path d="M10 64.321H9C9 64.8733 9.44772 65.321 10 65.321V64.321Z" fill="black"/>
<path d="M10 65.321H9C9 65.8733 9.44772 66.321 10 66.321V65.321Z" fill="black"/>
<path d="M10 66.321H9C9 66.8733 9.44772 67.321 10 67.321V66.321Z" fill="black"/>
<path d="M10 67.321H9.5V67.821C9.5 68.0972 9.72386 68.321 10 68.321V68.321V67.321Z" fill="black"/>
<path d="M11 69.321H10.5V69.821C10.5 70.0972 10.7239 70.321 11 70.321V70.321V69.321Z" fill="black"/>
<path d="M10 65.321H9.5V66.321H10V65.321Z" fill="black"/>
<path d="M10 66.321H9.5V67.321H10V66.321Z" fill="black"/>
<path d="M10 64.321H9V65.321H10V64.321Z" fill="black"/>
<path d="M10 65.321H9V66.321H10V65.321Z" fill="black"/>
<rect x="96" y="64.321" width="3" height="1" fill="#060505"/>
<rect x="96" y="65.321" width="3" height="1" fill="#060505"/>
<rect x="96" y="66.321" width="3" height="1" fill="#060505"/>
<rect x="96" y="67.321" width="3" height="1" fill="#060505"/>
<rect x="96" y="68.321" width="3" height="1" fill="#060505"/>
<rect x="96" y="69.321" width="2" height="1" fill="#060505"/>
<path d="M96 71.321H97C97 71.8733 96.5523 72.321 96 72.321V71.321Z" fill="#060505"/>
<path d="M95 72.321H96C96 72.8733 95.5523 73.321 95 73.321V72.321Z" fill="#060505"/>
<rect x="94" y="72.321" width="1" height="1" fill="#060505"/>
<rect x="96" y="70.321" width="1" height="1" fill="#060505"/>
<rect x="99" y="64.321" width="1" height="1" fill="#020202"/>
<rect x="99" y="65.321" width="1" height="1" fill="#020202"/>
<path d="M99 66.321H99.75V67.321H99V66.321Z" fill="#020202"/>
<path d="M98 69.321H98.5V70.321H98V69.321Z" fill="#020202"/>
<path d="M97 70.321H97.86V70.471C97.86 70.946 97.475 71.331 97 71.331V71.331V70.321Z" fill="#020202"/>
<path d="M99 67.321H99.5V67.821C99.5 68.0972 99.2761 68.321 99 68.321V67.321Z" fill="#020202"/>
<path fill-rule="evenodd" clip-rule="evenodd" d="M96.72 72.321H95V72.821H95.6437L96.72 72.321Z" fill="black"/>
<path fill-rule="evenodd" clip-rule="evenodd" d="M97.72 71.321H96V71.821H96.6437L97.72 71.321Z" fill="black"/>
<path fill-rule="evenodd" clip-rule="evenodd" d="M95.0002 72.321H96.7202V71.821H96.0765L95.0002 72.321Z" fill="black"/>
<rect x="13" y="64.321" width="17" height="8" fill="black"/>
<rect x="21" y="72.321" width="25" height="8" fill="black"/>
<rect x="28" y="80.321" width="23" height="8" fill="black"/>
<rect x="37" y="88.321" width="17" height="8" fill="black"/>
<rect x="55" y="88.321" width="17" height="8" fill="black"/>
<rect x="57" y="81.321" width="17" height="8" fill="black"/>
<rect x="59" y="78.321" width="17" height="8" fill="black"/>
<rect x="60" y="76.321" width="17" height="8" fill="black"/>
<rect x="61" y="75.321" width="17" height="8" fill="black"/>
<rect x="62" y="74.321" width="17" height="8" fill="black"/>
<rect x="63" y="73.321" width="17" height="8" fill="black"/>
<rect x="64" y="72.321" width="17" height="8" fill="black"/>
<rect x="65" y="71.321" width="17" height="8" fill="black"/>
<rect x="66" y="70.321" width="17" height="8" fill="black"/>
<rect x="68" y="69.321" width="20" height="10" fill="black"/>
<rect x="69" y="68.321" width="17" height="8" fill="black"/>
<rect x="71" y="67.321" width="17" height="8" fill="black"/>
<rect x="73" y="66.321" width="17" height="8" fill="black"/>
<rect x="76" y="65.321" width="17" height="8" fill="black"/>
<rect x="79" y="64.321" width="17" height="8" fill="black"/>
<ellipse cx="28.5" cy="69.821" rx="9.5" ry="5.5" fill="black"/>
<ellipse cx="36.5" cy="73.821" rx="9.5" ry="5.5" fill="black"/>
<ellipse cx="41.5" cy="79.821" rx="9.5" ry="5.5" fill="black"/>
<ellipse cx="50" cy="84.821" rx="3" ry="5.5" fill="black"/>
<ellipse cx="51" cy="88.821" rx="3" ry="5.5" fill="black"/>
<ellipse cx="52" cy="92.821" rx="3" ry="5.5" fill="black"/>
<ellipse cx="57" cy="93.821" rx="3" ry="5.5" fill="black"/>
<ellipse cx="57" cy="87.321" rx="1" ry="5" fill="black"/>
<ellipse cx="58.5" cy="82.321" rx="1.5" ry="3" fill="black"/>
<path d="M77.8715 64.6615L79.7899 65.1665L76.6008 66.1849L77.8715 64.6615Z" fill="black"/>
<path d="M75.988 66.5491L73.7235 66.3764L77.4003 64.7705L75.988 66.5491Z" fill="black"/>
<path d="M73.6912 67.5491L71.4266 67.3764L75.1034 65.7705L73.6912 67.5491Z" fill="#080808"/>
<path d="M71.6912 68.5491L69.4266 68.3764L73.1034 66.7705L71.6912 68.5491Z" fill="#080808"/>
<path d="M68.4111 71.3993L65.6948 70.9468L69.0296 68.7159L68.4111 71.3993Z" fill="#080808"/>
<path d="M69.3237 70.6996L66.6074 70.2471L69.9422 68.0162L69.3237 70.6996Z" fill="#080808"/>
<path d="M66.3645 72.6711L63.6324 72.3266L66.8762 69.9653L66.3645 72.6711Z" fill="#080808"/>
<path d="M64.411 74.7402L61.6573 74.7459L64.5744 71.9913L64.411 74.7402Z" fill="#080808"/>
<path d="M62.411 76.7402L59.6573 76.7459L62.5744 73.9913L62.411 76.7402Z" fill="#080808"/>
<path d="M60.581 79.5426L57.8876 80.1157L60.1745 76.819L60.581 79.5426Z" fill="#080808"/>
<path d="M58.3359 87.0012L54.9963 88.6636L56.3081 83.87L58.3359 87.0012Z" fill="#080808"/>
<path d="M58.3354 88.0678L54.9959 89.7302L56.3076 84.9366L58.3354 88.0678Z" fill="#080808"/>
<path d="M46.1599 72.6305L50.1871 77.571L42.982 78.1557L46.1599 72.6305Z" fill="black"/>
<path d="M35.7278 65.9938L41.4696 68.9498L34.936 72.4032L35.7278 65.9938Z" fill="black"/>
<rect x="75" y="82.321" width="5" height="3" fill="black"/>
<line x1="9.5" y1="64.321" x2="9.5" y2="64.161" stroke="black"/>
<line x1="10.5" y1="64.321" x2="10.5" y2="64.161" stroke="black"/>
<line x1="11.5" y1="64.321" x2="11.5" y2="64.161" stroke="black"/>
<line x1="12.5" y1="64.321" x2="12.5" y2="64.161" stroke="black"/>
<line x1="13.5" y1="64.321" x2="13.5" y2="64.161" stroke="black"/>
<line x1="14.5" y1="64.321" x2="14.5" y2="64.161" stroke="black"/>
<line x1="15.5" y1="64.321" x2="15.5" y2="64.161" stroke="black"/>
<line x1="16.5" y1="64.321" x2="16.5" y2="64.161" stroke="black"/>
<line x1="17.5" y1="64.321" x2="17.5" y2="64.161" stroke="black"/>
<line x1="18.5" y1="64.321" x2="18.5" y2="64.161" stroke="black"/>
<line x1="19.5" y1="64.321" x2="19.5" y2="64.161" stroke="black"/>
<line x1="20.5" y1="64.321" x2="20.5" y2="64.161" stroke="black"/>
<line x1="21.5" y1="64.321" x2="21.5" y2="64.161" stroke="black"/>
<line x1="22.5" y1="64.321" x2="22.5" y2="64.161" stroke="black"/>
<line x1="23.5" y1="64.321" x2="23.5" y2="64.161" stroke="black"/>
<path d="M85.5 64.321V64.161" stroke="black"/>
<line x1="86.5" y1="64.321" x2="86.5" y2="64.161" stroke="black"/>
<line x1="87.5" y1="64.321" x2="87.5" y2="64.161" stroke="black"/>
<line x1="88.5" y1="64.321" x2="88.5" y2="64.161" stroke="black"/>
<line x1="89.5" y1="64.321" x2="89.5" y2="64.161" stroke="black"/>
<line x1="90.5" y1="64.321" x2="90.5" y2="64.161" stroke="black"/>
<line x1="91.5" y1="64.321" x2="91.5" y2="64.161" stroke="black"/>
<line x1="92.5" y1="64.321" x2="92.5" y2="64.161" stroke="black"/>
<line x1="93.5" y1="64.321" x2="93.5" y2="64.161" stroke="black"/>
<line x1="94.5" y1="64.321" x2="94.5" y2="64.161" stroke="black"/>
<line x1="95.5" y1="64.321" x2="95.5" y2="64.161" stroke="black"/>
<line x1="96.5" y1="64.321" x2="96.5" y2="64.161" stroke="black"/>
<line x1="97.5" y1="64.321" x2="97.5" y2="64.161" stroke="black"/>
<line x1="98.5" y1="64.321" x2="98.5" y2="64.161" stroke="black"/>
<line x1="99.5" y1="64.321" x2="99.5" y2="64.161" stroke="black"/>
<line x1="24.5" y1="64.321" x2="24.5" y2="64.161" stroke="black"/>
<line x1="25.5" y1="64.321" x2="25.5" y2="64.161" stroke="black"/>
<line x1="11.5" y1="64.4811" x2="11.5" y2="64.3211" stroke="black"/>
<line x1="84.5" y1="64.321" x2="84.5" y2="64.161" stroke="black"/>
<path d="M29 64.321C43.4065 65.9187 54.6104 78.1344 54.6104 92.967C54.6104 78.1344 65.8143 65.9187 80.2209 64.321H29Z" fill="white"/>
</g>
<defs>
<clipPath id="clip0_2717_2085">
<rect width="110" height="110" fill="white"/>
</clipPath>
</defs>
</svg>
