<svg width="20" height="22" viewBox="0 0 20 22" fill="none" xmlns="http://www.w3.org/2000/svg">
<path d="M0.496094 18.5514V17.3622H2.99262V8.44324C2.99262 6.85766 3.52313 5.46512 4.58415 4.26562C5.64517 3.06692 6.98706 2.31892 8.6098 2.02162V1.18919C8.6098 0.832432 8.72963 0.545045 8.9693 0.327027C9.20813 0.109009 9.50438 0 9.85806 0C10.2117 0 10.5084 0.109009 10.7481 0.327027C10.9869 0.545045 11.1063 0.832432 11.1063 1.18919V2.02162C12.7291 2.31892 14.0709 3.06692 15.132 4.26562C16.193 5.46512 16.7235 6.85766 16.7235 8.44324V17.3622H19.22V18.5514H0.496094ZM9.85806 22C9.31714 22 8.84405 21.8169 8.43878 21.4506C8.03268 21.0835 7.82963 20.6225 7.82963 20.0676H11.8865C11.8865 20.6225 11.6943 21.0835 11.3098 21.4506C10.9245 21.8169 10.4406 22 9.85806 22ZM4.24088 17.3622H15.4752V8.44324C15.4752 6.95676 14.9293 5.69305 13.8375 4.65211C12.7449 3.61197 11.4184 3.09189 9.85806 3.09189C8.29773 3.09189 6.97124 3.61197 5.8786 4.65211C4.78679 5.69305 4.24088 6.95676 4.24088 8.44324V17.3622Z" fill="black"/>
</svg>
