<svg width="52" height="80" viewBox="0 0 52 80" fill="none" xmlns="http://www.w3.org/2000/svg">
<rect width="52" height="80" rx="5" fill="#F4F4F4"/>
<path d="M26 46.9996C25.1833 46.9996 24.4141 46.872 23.6922 46.6168C22.9703 46.3616 22.3104 46.0007 21.7125 45.534L20.4875 46.7371C20.3271 46.8975 20.1229 46.9777 19.875 46.9777C19.6271 46.9777 19.4229 46.8975 19.2625 46.7371C19.1021 46.5767 19.0219 46.3725 19.0219 46.1246C19.0219 45.8767 19.1021 45.6726 19.2625 45.5121L20.4656 44.3091C19.999 43.7112 19.638 43.0476 19.3828 42.3185C19.1276 41.5893 19 40.8164 19 39.9998C19 38.0457 19.6781 36.3905 21.0344 35.0343C22.3906 33.6781 24.0458 33 26 33H33V39.9998C33 41.9539 32.3219 43.6091 30.9656 44.9653C29.6094 46.3215 27.9542 46.9996 26 46.9996ZM26 45.2496C27.4583 45.2496 28.6979 44.7392 29.7188 43.7184C30.7396 42.6976 31.25 41.4581 31.25 39.9998V34.7499H26C24.5417 34.7499 23.3021 35.2604 22.2812 36.2812C21.2604 37.302 20.75 38.5415 20.75 39.9998C20.75 40.5685 20.8375 41.1117 21.0125 41.6294C21.1875 42.1471 21.4281 42.6174 21.7344 43.0403L26.2625 38.5123C26.4229 38.3519 26.6271 38.2717 26.875 38.2717C27.1229 38.2717 27.3271 38.3519 27.4875 38.5123C27.6625 38.6873 27.75 38.8951 27.75 39.1358C27.75 39.3764 27.6625 39.5842 27.4875 39.7592L22.9594 44.2872C23.3823 44.5934 23.8526 44.8304 24.3703 44.9981C24.888 45.1658 25.4313 45.2496 26 45.2496Z" fill="#BBBBBB"/>
</svg>
