<svg width="14" height="13" viewBox="0 0 14 13" fill="none" xmlns="http://www.w3.org/2000/svg">
<path fill-rule="evenodd" clip-rule="evenodd" d="M12.8339 12.6265H7.99854C7.72254 12.6265 7.49854 12.4025 7.49854 12.1265C7.49854 11.8505 7.72254 11.6265 7.99854 11.6265H12.8339C13.1099 11.6265 13.3339 11.8505 13.3339 12.1265C13.3339 12.4025 13.1099 12.6265 12.8339 12.6265Z" fill="black"/>
<mask id="mask0_201_265" style="mask-type:alpha" maskUnits="userSpaceOnUse" x="0" y="0" width="12" height="13">
<path fill-rule="evenodd" clip-rule="evenodd" d="M0.333496 0.00012207H11.7872V12.6265H0.333496V0.00012207Z" fill="white"/>
</mask>
<g mask="url(#mask0_201_265)">
<path fill-rule="evenodd" clip-rule="evenodd" d="M7.74035 1.34455L1.46368 9.19455C1.34968 9.33722 1.30768 9.52122 1.34968 9.69788L1.80368 11.6212L3.82968 11.5959C4.02235 11.5939 4.20035 11.5079 4.31835 11.3612C6.46301 8.67788 10.5517 3.56188 10.6677 3.41188C10.777 3.23455 10.8197 2.98388 10.7623 2.74255C10.7037 2.49522 10.5497 2.28522 10.3277 2.15122C10.2803 2.11855 9.15701 1.24655 9.12234 1.21922C8.69968 0.88055 8.08301 0.939217 7.74035 1.34455V1.34455ZM1.40901 12.6265C1.17768 12.6265 0.976346 12.4679 0.922346 12.2419L0.376346 9.92788C0.263679 9.44855 0.375679 8.95388 0.683012 8.56988L6.96301 0.715217C6.96568 0.71255 6.96768 0.709217 6.97035 0.70655C7.65901 -0.116783 8.90435 -0.238116 9.74435 0.435884C9.77768 0.461884 10.893 1.32855 10.893 1.32855C11.2983 1.56988 11.615 2.00122 11.735 2.51188C11.8543 3.01722 11.7677 3.53855 11.4897 3.97922C11.469 4.01188 11.451 4.03988 5.09901 11.9865C4.79301 12.3679 4.33435 12.5899 3.84168 12.5959L1.41568 12.6265H1.40901Z" fill="black"/>
</g>
<path fill-rule="evenodd" clip-rule="evenodd" d="M9.81553 5.78983C9.70887 5.78983 9.6022 5.75583 9.51086 5.6865L5.8762 2.8945C5.65753 2.7265 5.6162 2.41316 5.7842 2.19316C5.95286 1.9745 6.2662 1.93383 6.48553 2.10183L10.1209 4.89316C10.3395 5.06116 10.3809 5.37516 10.2122 5.5945C10.1142 5.7225 9.96553 5.78983 9.81553 5.78983Z" fill="black"/>
</svg>
