<svg width="16" height="16" viewBox="0 0 16 16" fill="none" xmlns="http://www.w3.org/2000/svg">
<path d="M8 15.824L7.33333 15.2239C5.88148 13.8904 4.68148 12.7531 3.73333 11.8119C2.78519 10.8714 2.03348 10.0416 1.47822 9.32272C0.92237 8.60441 0.536889 7.95247 0.321778 7.36692C0.107259 6.78196 0 6.19314 0 5.60048C0 4.47441 0.385185 3.52614 1.15556 2.75568C1.92593 1.98521 2.87407 1.59998 4 1.59998C4.78519 1.59998 5.51852 1.8 6.2 2.20005C6.88148 2.6001 7.48148 3.18536 8 3.95583C8.51852 3.18536 9.11852 2.6001 9.8 2.20005C10.4815 1.8 11.2148 1.59998 12 1.59998C13.1259 1.59998 14.0741 1.98521 14.8444 2.75568C15.6148 3.52614 16 4.47441 16 5.60048C16 6.19314 15.8927 6.78196 15.6782 7.36692C15.4631 7.95247 15.0779 8.60441 14.5227 9.32272C13.9668 10.0416 13.2184 10.8714 12.2773 11.8119C11.3369 12.7531 10.1333 13.8904 8.66667 15.2239L8 15.824Z" fill="#BBBBBB"/>
</svg>
