<svg width="100" height="87" viewBox="0 0 100 87" fill="none" xmlns="http://www.w3.org/2000/svg">
<path d="M49.5 64.4099C49.5 48.4914 36.5955 35.5869 20.677 35.5869C36.5955 35.5869 49.5 22.6824 49.5 6.76394C49.5 22.6824 62.4045 35.5869 78.323 35.5869C62.4045 35.5869 49.5 48.4914 49.5 64.4099Z" fill="white"/>
<path d="M29 6L7.24357 27.7564C2.91881 32.0812 2.91881 39.0926 7.24357 43.4174L41.6695 77.8433C45.9943 82.1681 53.0057 82.1681 57.3305 77.8433L91.7564 43.4174C96.0812 39.0926 96.0812 32.0812 91.7564 27.7564L70 6M49.5 64.4099C49.5 48.4914 36.5955 35.5869 20.677 35.5869C36.5955 35.5869 49.5 22.6824 49.5 6.76394C49.5 22.6824 62.4045 35.5869 78.323 35.5869C62.4045 35.5869 49.5 48.4914 49.5 64.4099Z" stroke="black" stroke-width="0.547945" stroke-miterlimit="10"/>
<path d="M4 35L19 17.6795L19 52.3205L4 35Z" fill="black"/>
<path d="M4 36L19.75 18.6795L19.75 53.3205L4 36Z" fill="black"/>
<path d="M94.6569 38.6664L78.3923 56.6811L78.5231 20.5346L94.6569 38.6664Z" fill="black"/>
<path d="M48.9206 81.3284L28.2018 64.3513L69.8443 64.6045L48.9206 81.3284Z" fill="black"/>
<path d="M38.7761 69.6278L43.5892 79.5466L28.9789 64.5719L38.7761 69.6278Z" fill="black"/>
<path d="M34.758 65.6457L39.5712 75.5644L24.9608 60.5897L34.758 65.6457Z" fill="black"/>
<path d="M42.68 78.8997L40.9708 74.1581L47.6321 79.838L42.68 78.8997Z" fill="black"/>
<path d="M43.846 79.8147L42.1369 75.0732L48.7981 80.753L43.846 79.8147Z" fill="black"/>
<path d="M46.2299 80.8598L45.6833 79.3433L47.8138 81.1599L46.2299 80.8598Z" fill="black"/>
<path d="M46.7197 80.4663L45.7644 78.5701L48.7431 81.1099L46.7197 80.4663Z" fill="black"/>
<path d="M54.001 80.2487L48.6106 81.1106L55.6479 75.0442L54.001 80.2487Z" fill="black"/>
<path d="M56.5586 78.3975L51.1682 79.2595L58.2055 73.193L56.5586 78.3975Z" fill="black"/>
<path d="M56.1233 79.1781L52.8435 80.202L57.0995 75.8837L56.1233 79.1781Z" fill="black"/>
<path d="M69.8409 4.69334L90.1152 25.8387L70.9246 33.9679L69.8409 4.69334Z" fill="black"/>
<path d="M58.915 46.0765L92.0319 42.7127L55.8061 79.2183L58.915 46.0765Z" fill="black"/>
<path d="M21.2613 20.0583L7.1196 27.798L29.2496 6.05548L21.2613 20.0583Z" fill="black"/>
<path d="M7.77446 27.2609L4.49758 39.399L17.9632 19.8946L7.77446 27.2609Z" fill="#D9D9D9"/>
<path d="M7.77446 27.2609L4.49758 39.399L17.9632 19.8946L7.77446 27.2609Z" fill="black"/>
<path d="M20.7165 50.7703L8.77929 44.9049L26.7591 62.6188L20.7165 50.7703Z" fill="black"/>
<path d="M12.1725 42.1802L5.55068 41.5516L12.8998 48.792L12.1725 42.1802Z" fill="black"/>
<path d="M15.1725 44.1802L8.55068 43.5516L15.8998 50.792L15.1725 44.1802Z" fill="black"/>
<path d="M6.42548 36.082L11.9667 35.0665L6.03363 30.4621L6.42548 36.082Z" fill="black"/>
<rect x="28" y="7" width="1" height="2" fill="black"/>
<path d="M28 7C28 6.72386 28.2239 6.5 28.5 6.5H29V7H28Z" fill="black"/>
<rect x="27" y="8" width="1" height="2" fill="black"/>
<rect x="5" y="31" width="1" height="4" fill="#0E0E0E"/>
<rect x="6" y="31" width="1" height="4" fill="#0E0E0E"/>
<rect x="6" y="29" width="1" height="4" fill="#0E0E0E"/>
<rect x="7" y="28" width="1" height="4" fill="#0E0E0E"/>
<rect x="4" y="33" width="1" height="3" fill="#0E0E0E"/>
<rect x="5" y="33" width="1" height="3" fill="#0E0E0E"/>
<rect x="5" y="31" width="1" height="3" fill="#0E0E0E"/>
<rect x="4" y="36" width="1" height="2" fill="#0E0E0E"/>
<path d="M5 38H6V41C5.44772 41 5 40.5523 5 40V38Z" fill="#0E0E0E"/>
<rect x="6" y="38" width="1" height="4" fill="#0E0E0E"/>
<rect x="7" y="39" width="1" height="3" fill="#0E0E0E"/>
<rect x="8" y="40" width="1" height="2" fill="#0E0E0E"/>
<rect x="6" y="30" width="1" height="3" fill="#0E0E0E"/>
<path d="M4.88263 31.3879L6.36619 32.538L4.43063 33.2098L4.88263 31.3879Z" fill="#0E0E0E"/>
<path d="M5.42462 30.2728L6.67784 30.7592L4.74228 31.431L5.42462 30.2728Z" fill="#0E0E0E"/>
<path d="M6.68233 27.9662L8.0336 27.6664L6.85177 29.34L6.68233 27.9662Z" fill="#0E0E0E"/>
<path d="M6.54928 29.9467L7.14071 28.4628L5.16515 30.7441L6.54928 29.9467Z" fill="#0E0E0E"/>
<path d="M6.39974 30.404L5.45849 29.9957L6.26052 31.4206L6.39974 30.404Z" fill="#0E0E0E"/>
<path d="M6.13349 29.7338L5.39553 29.6866L5.791 30.3891L6.13349 29.7338Z" fill="#0E0E0E"/>
<path d="M6.95184 28.7279L6.2944 28.5526L6.45394 29.1916L6.95184 28.7279Z" fill="#0E0E0E"/>
<path d="M7.54609 28.9988L6.30014 28.7978L6.54084 29.7619L7.54609 28.9988Z" fill="#0E0E0E"/>
<path d="M5.53147 38.5737L5.00353 39.6465L4.33841 38.6529L5.53147 38.5737Z" fill="#0E0E0E"/>
<path d="M6.53147 40.5737L6.00353 41.6465L5.33841 40.6529L6.53147 40.5737Z" fill="#0E0E0E"/>
<path d="M4.44579 39.0403L4.38274 37.3783L6.08098 39.3445L4.44579 39.0403Z" fill="#060505"/>
<ellipse cx="92" cy="35.5" rx="3" ry="6.5" fill="black"/>
<path d="M89 41H93C93 42.1046 92.1046 43 91 43H89V41Z" fill="black"/>
<rect x="90" y="40" width="1" height="1" fill="black"/>
<rect x="89" y="29" width="2" height="2" fill="black"/>
<rect width="1" height="2" transform="matrix(-1 0 0 1 6 37)" fill="black"/>
<line x1="29" y1="5.5" x2="70" y2="5.5" stroke="black"/>
<rect x="29" y="6" width="19" height="7" fill="black"/>
<rect x="50" y="6" width="20" height="7" fill="black"/>
<rect x="52" y="10" width="19" height="7" fill="black"/>
<rect x="53" y="15" width="20" height="6" fill="black"/>
<rect x="63" y="19" width="8" height="12" fill="black"/>
<rect x="55" y="21" width="8" height="3" fill="black"/>
<rect x="57" y="23" width="8" height="3" fill="black"/>
<rect x="58" y="24" width="8" height="3" fill="black"/>
<rect x="60" y="26" width="8" height="3" fill="black"/>
<rect x="61" y="27" width="8" height="3" fill="black"/>
<rect x="65" y="29" width="8" height="3" fill="black"/>
<rect x="67" y="30" width="8" height="3" fill="black"/>
<rect x="68" y="31" width="8" height="3" fill="black"/>
<rect x="71" y="30" width="8" height="4" fill="black"/>
<rect x="70" y="37" width="9" height="4" fill="black"/>
<rect x="62" y="41" width="17" height="4" fill="black"/>
<rect x="59" y="43" width="11" height="4" fill="black"/>
<rect x="53" y="51" width="6" height="4" fill="black"/>
<rect x="54" y="49" width="6" height="4" fill="black"/>
<rect x="55" y="47" width="6" height="4" fill="black"/>
<rect x="56" y="46" width="6" height="4" fill="black"/>
<rect x="57" y="45" width="6" height="4" fill="black"/>
<rect x="58" y="44" width="1" height="1" fill="black"/>
<rect x="61" y="42" width="1" height="1" fill="black"/>
<rect x="61" y="41" width="1" height="1" fill="black"/>
<rect x="63" y="40" width="1" height="1" fill="black"/>
<rect x="64" y="40" width="6" height="1" fill="black"/>
<rect x="65" y="39" width="5" height="1" fill="black"/>
<rect x="67" y="38" width="3" height="1" fill="black"/>
<rect x="69" y="37" width="1" height="1" fill="black"/>
<rect x="72" y="34" width="7" height="1" fill="black"/>
<rect x="75" y="35" width="7" height="1" fill="black"/>
<rect x="72" y="36" width="7" height="1" fill="black"/>
<rect x="26" y="9" width="19" height="7" fill="black"/>
<rect x="25" y="11" width="19" height="7" fill="black"/>
<rect x="23" y="13" width="19" height="7" fill="black"/>
<rect x="20" y="17" width="19" height="7" fill="black"/>
<rect x="18" y="20" width="19" height="7" fill="black"/>
<rect x="18" y="23" width="19" height="7" fill="black"/>
<rect x="16" y="25" width="19" height="7" fill="black"/>
<rect x="12" y="27" width="19" height="7" fill="black"/>
<rect x="19" y="37" width="11" height="7" fill="black"/>
<rect x="19" y="44" width="22" height="11" fill="black"/>
<rect x="23" y="53" width="22" height="6" fill="black"/>
<rect x="25" y="57" width="22" height="4" fill="black"/>
<rect x="27" y="61" width="22" height="2" fill="black"/>
<rect x="29" y="63" width="20" height="2" fill="black"/>
<rect width="8" height="7" transform="matrix(1 0 0 -1 50 65)" fill="black"/>
<rect width="8" height="7" transform="matrix(1 0 0 -1 52 61)" fill="black"/>
<rect width="8" height="7" transform="matrix(1 0 0 -1 51 62)" fill="black"/>
<rect x="85" y="26" width="5" height="7" fill="black"/>
<rect width="1" height="1" transform="matrix(1 0 0 -1 90 29)" fill="black"/>
<rect width="1" height="1" transform="matrix(1 0 0 -1 91 29)" fill="black"/>
<rect width="1" height="1" transform="matrix(1 0 0 -1 91 30)" fill="black"/>
<rect width="1" height="1" transform="matrix(1 0 0 -1 92 30)" fill="black"/>
<rect width="1" height="1" transform="matrix(1 0 0 -1 90 28)" fill="black"/>
<rect x="45" y="13" width="3" height="3" fill="black"/>
<rect x="44" y="16" width="3" height="3" fill="#060606"/>
<rect x="42" y="18" width="4" height="3" fill="#060606"/>
<rect x="39" y="20" width="5" height="4" fill="#060606"/>
<rect x="37" y="24" width="3" height="4" fill="#060606"/>
<rect x="36" y="25" width="3" height="4" fill="#060606"/>
<rect x="30" y="29" width="3" height="4" fill="#060606"/>
<rect x="19" y="34" width="8" height="1" fill="black"/>
<rect x="19" y="36" width="8" height="1" fill="black"/>
<rect x="30" y="39" width="4" height="1" fill="black"/>
<rect x="30" y="40" width="6" height="1" fill="black"/>
<rect x="30" y="41" width="7" height="3" fill="black"/>
<rect x="37" y="42" width="2" height="2" fill="black"/>
<rect x="39" y="43" width="1" height="1" fill="black"/>
<rect x="41" y="46" width="2" height="7" fill="black"/>
<rect x="43" y="49" width="2" height="6" fill="black"/>
<rect x="45" y="52" width="2" height="5" fill="black"/>
<rect x="47" y="55" width="1" height="6" fill="black"/>
<rect x="48" y="58" width="1" height="6" fill="black"/>
<rect x="48" y="6" width="1" height="7" fill="black"/>
<rect x="49" y="5" width="1" height="5" fill="black"/>
<path d="M56 15C56 15.5061 55.8933 16.004 55.6898 16.4473C55.4864 16.8906 55.1927 17.265 54.8363 17.5355C54.4798 17.806 54.0721 17.9639 53.6511 17.9945C53.2302 18.0251 52.8096 17.9274 52.4285 17.7105C52.0475 17.4936 51.7183 17.1645 51.4718 16.7539C51.2252 16.3433 51.0692 15.8645 51.0183 15.3621C50.9674 14.8597 51.0232 14.35 51.1806 13.8804C51.338 13.4109 51.5918 12.9968 51.9185 12.6766L53.5 15H56Z" fill="black"/>
<path d="M56 16C56 16.5061 55.8933 17.004 55.6898 17.4473C55.4864 17.8906 55.1927 18.265 54.8363 18.5355C54.4798 18.806 54.0721 18.9639 53.6511 18.9945C53.2302 19.0251 52.8096 18.9274 52.4285 18.7105C52.0475 18.4936 51.7183 18.1645 51.4718 17.7539C51.2252 17.3433 51.0692 16.8645 51.0183 16.3621C50.9674 15.8597 51.0232 15.35 51.1806 14.8804C51.338 14.4109 51.5918 13.9968 51.9185 13.6766L53.5 16H56Z" fill="black"/>
<ellipse cx="51.3631" cy="13.8117" rx="1" ry="1.61715" transform="rotate(-14.0666 51.3631 13.8117)" fill="black"/>
<ellipse cx="53.3631" cy="18.8117" rx="1" ry="1.61715" transform="rotate(-14.0666 53.3631 18.8117)" fill="black"/>
<ellipse cx="55.0658" cy="21.518" rx="1.21711" ry="1.97445" transform="rotate(-14.0666 55.0658 21.518)" fill="black"/>
<ellipse cx="56.6604" cy="24.211" rx="1.21711" ry="1.97445" transform="rotate(-29.6449 56.6604 24.211)" fill="black"/>
<ellipse cx="58.0344" cy="25.318" rx="1.21711" ry="1.97445" transform="rotate(-29.6449 58.0344 25.318)" fill="black"/>
<ellipse cx="59.0344" cy="26.318" rx="1.21711" ry="1.97445" transform="rotate(-29.6449 59.0344 26.318)" fill="black"/>
<ellipse cx="60.0344" cy="27.318" rx="1.21711" ry="1.97445" transform="rotate(-29.6449 60.0344 27.318)" fill="black"/>
<ellipse cx="61.0344" cy="28.318" rx="1.21711" ry="1.97445" transform="rotate(-29.6449 61.0344 28.318)" fill="black"/>
<ellipse cx="62.1433" cy="29.256" rx="0.726131" ry="1.97445" transform="rotate(-29.6449 62.1433 29.256)" fill="black"/>
<ellipse cx="63.8827" cy="30.8012" rx="0.726131" ry="0.508632" transform="rotate(-29.6449 63.8827 30.8012)" fill="black"/>
<ellipse cx="64.387" cy="31.1389" rx="0.997349" ry="1.05161" transform="rotate(-29.6449 64.387 31.1389)" fill="black"/>
<ellipse cx="65.387" cy="31.4072" rx="0.997349" ry="1.05161" transform="rotate(-29.6449 65.387 31.4072)" fill="black"/>
<ellipse cx="66.3669" cy="32" rx="0.813346" ry="0.687726" transform="rotate(-29.6449 66.3669 32)" fill="black"/>
<ellipse cx="70.7892" cy="33.6273" rx="2.031" ry="0.949575" transform="rotate(-145.373 70.7892 33.6273)" fill="black"/>
<ellipse cx="66.8121" cy="32.5123" rx="2.031" ry="0.547281" transform="rotate(-145.373 66.8121 32.5123)" fill="black"/>
<ellipse cx="73.982" cy="34.6044" rx="2.031" ry="0.547281" transform="rotate(-145.373 73.982 34.6044)" fill="black"/>
<ellipse cx="71.0999" cy="36.948" rx="2.031" ry="0.547281" transform="rotate(168.293 71.0999 36.948)" fill="black"/>
<ellipse cx="68.0999" cy="37.948" rx="2.031" ry="0.547281" transform="rotate(168.293 68.0999 37.948)" fill="black"/>
<ellipse cx="66.0999" cy="38.948" rx="2.031" ry="0.547281" transform="rotate(168.293 66.0999 38.948)" fill="black"/>
<ellipse cx="65.0665" cy="39.7866" rx="2.031" ry="0.712113" transform="rotate(168.293 65.0665 39.7866)" fill="black"/>
<ellipse cx="63.14" cy="40.5138" rx="2.031" ry="0.712113" transform="rotate(154.627 63.14 40.5138)" fill="black"/>
<ellipse cx="60.9152" cy="43.0397" rx="2.031" ry="1.23684" transform="rotate(154.627 60.9152 43.0397)" fill="black"/>
<ellipse cx="59.1369" cy="44.5069" rx="2.031" ry="1.10911" transform="rotate(154.627 59.1369 44.5069)" fill="black"/>
<ellipse cx="57.2283" cy="46.6996" rx="2.031" ry="1.30038" transform="rotate(154.627 57.2283 46.6996)" fill="black"/>
<ellipse cx="54.8064" cy="49.2972" rx="2.031" ry="1.09155" transform="rotate(113.321 54.8064 49.2972)" fill="black"/>
<ellipse cx="53.8064" cy="51.2972" rx="2.031" ry="1.09155" transform="rotate(113.321 53.8064 51.2972)" fill="black"/>
<ellipse cx="52.7368" cy="53.9254" rx="2.34492" ry="1.3027" transform="rotate(113.321 52.7368 53.9254)" fill="black"/>
<ellipse cx="52.0238" cy="56.9025" rx="2.59919" ry="1.3027" transform="rotate(113.321 52.0238 56.9025)" fill="black"/>
<ellipse cx="50.6464" cy="62.7532" rx="2.59919" ry="1.3027" transform="rotate(97.8763 50.6464 62.7532)" fill="black"/>
<ellipse cx="48.9701" cy="62.9032" rx="2.14185" ry="1.507" transform="rotate(97.8763 48.9701 62.9032)" fill="black"/>
<ellipse cx="47.0413" cy="57.4755" rx="2.14185" ry="1.507" transform="rotate(73.9168 47.0413 57.4755)" fill="black"/>
<ellipse cx="46.1768" cy="54.4365" rx="2.14185" ry="1.64808" transform="rotate(73.9168 46.1768 54.4365)" fill="black"/>
<ellipse cx="45.1283" cy="51.4111" rx="2.27692" ry="1.37982" transform="rotate(63.5956 45.1283 51.4111)" fill="black"/>
<ellipse cx="43.2484" cy="48.653" rx="2.27692" ry="1.37982" transform="rotate(63.5956 43.2484 48.653)" fill="black"/>
<ellipse cx="40.5517" cy="45.4162" rx="2.41787" ry="1.56885" transform="rotate(51.9989 40.5517 45.4162)" fill="black"/>
<ellipse cx="37.725" cy="42.8712" rx="2.41787" ry="1.56885" transform="rotate(51.9989 37.725 42.8712)" fill="black"/>
<ellipse cx="34.7249" cy="40.8712" rx="2.41787" ry="1.56885" transform="rotate(33.4607 34.7249 40.8712)" fill="black"/>
<ellipse cx="32.0195" cy="39.2465" rx="2.86587" ry="1.28815" transform="rotate(33.4607 32.0195 39.2465)" fill="black"/>
<ellipse cx="27.88" cy="37.3293" rx="2.73734" ry="0.913777" transform="rotate(14.8311 27.88 37.3293)" fill="black"/>
<ellipse cx="21.5341" cy="35.3824" rx="3.31797" ry="1.27615" transform="rotate(14.8311 21.5341 35.3824)" fill="black"/>
<ellipse cx="22.4545" cy="33.3836" rx="3.31797" ry="1.58722" transform="rotate(14.8311 22.4545 33.3836)" fill="black"/>
<ellipse cx="27.572" cy="33.3547" rx="3.31798" ry="1.33259" transform="rotate(-19.3059 27.572 33.3547)" fill="black"/>
<ellipse cx="32.2205" cy="31.7772" rx="5.06473" ry="1.33259" transform="rotate(-19.3059 32.2205 31.7772)" fill="black"/>
<ellipse cx="41.5086" cy="24.451" rx="2.17984" ry="1.36526" transform="rotate(-19.3059 41.5086 24.451)" fill="black"/>
<ellipse cx="39.4508" cy="26.8442" rx="2.17984" ry="1.19039" transform="rotate(-19.3059 39.4508 26.8442)" fill="black"/>
<ellipse cx="40.4508" cy="25.8442" rx="2.17984" ry="1.19039" transform="rotate(-19.3059 40.4508 25.8442)" fill="black"/>
<ellipse cx="38.4508" cy="27.8442" rx="2.17984" ry="1.19039" transform="rotate(-19.3059 38.4508 27.8442)" fill="black"/>
<ellipse cx="36.5195" cy="29.0402" rx="2.17984" ry="1.39812" transform="rotate(-19.3059 36.5195 29.0402)" fill="black"/>
<ellipse cx="43.5001" cy="21.7207" rx="2.26719" ry="1.09012" transform="rotate(-19.3059 43.5001 21.7207)" fill="black"/>
<ellipse cx="42.5001" cy="22.7784" rx="2.26719" ry="1.09012" transform="rotate(-19.3059 42.5001 22.7784)" fill="black"/>
<ellipse cx="44.5001" cy="19.7784" rx="2.26719" ry="1.09012" transform="rotate(-19.3059 44.5001 19.7784)" fill="black"/>
<ellipse cx="46.8985" cy="16.4887" rx="0.851625" ry="1.27904" transform="rotate(-19.3059 46.8985 16.4887)" fill="black"/>
<ellipse cx="48.0808" cy="13.7698" rx="0.582523" ry="1.52173" transform="rotate(9.54745 48.0808 13.7698)" fill="black"/>
<ellipse cx="48.8269" cy="9.59728" rx="0.582523" ry="1.52173" transform="rotate(9.54745 48.8269 9.59728)" fill="black"/>
<ellipse cx="50.8269" cy="9.59728" rx="0.582523" ry="1.52173" transform="rotate(9.54745 50.8269 9.59728)" fill="black"/>
<ellipse cx="54.119" cy="21.0962" rx="0.744441" ry="1.97445" transform="rotate(-14.0666 54.119 21.0962)" fill="black"/>
<rect x="9" y="41" width="1" height="1" fill="black"/>
<ellipse cx="27.5975" cy="62.4132" rx="0.870728" ry="2.52977" transform="rotate(-39.9278 27.5975 62.4132)" fill="black"/>
<ellipse cx="91.0932" cy="28.5404" rx="1.30737" ry="3" transform="rotate(-47.4009 91.0932 28.5404)" fill="black"/>
</svg>
