<svg width="120" height="120" viewBox="0 0 120 120" fill="none" xmlns="http://www.w3.org/2000/svg">
<g clip-path="url(#clip0_2386_1726)">
<path d="M79.0298 4.21641L60.0001 2.1082L40.9704 4.21641C40.1042 4.21641 39.4023 3.27237 39.4023 2.1082C39.4023 0.944035 40.1042 0 40.9704 0L60.0001 2.1082L79.0298 0C79.896 0 80.5978 0.944035 80.5978 2.1082C80.5978 3.27237 79.896 4.21641 79.0298 4.21641Z" fill="white"/>
<path d="M73.9469 10.1582L59.9998 8.30908L46.0526 10.1582C45.2931 10.1582 44.6768 9.33017 44.6768 8.30908C44.6768 7.288 45.2923 6.45996 46.0526 6.45996L59.9998 8.30908L73.9469 6.45996C74.7064 6.45996 75.3228 7.288 75.3228 8.30908C75.3228 9.33017 74.7072 10.1582 73.9469 10.1582Z" fill="white"/>
<path d="M106.128 61.7831L68.548 24.2029C63.827 19.4819 56.1731 19.4819 51.4521 24.2029L32.6619 42.993L13.8718 61.7831C9.1508 66.5041 9.1508 74.158 13.8718 78.879L51.4521 116.459C56.1731 121.18 63.827 121.18 68.548 116.459L106.128 78.879C110.849 74.158 110.849 66.5041 106.128 61.7831ZM60 101.795C60 84.4179 45.9131 70.3311 28.5361 70.3311C45.9131 70.3311 60 56.2442 60 38.8672C60 56.2442 74.0869 70.3311 91.4639 70.3311C74.0869 70.3311 60 84.4179 60 101.795Z" fill="white" stroke="black" stroke-width="0.547945" stroke-miterlimit="10"/>
</g>
<defs>
<clipPath id="clip0_2386_1726">
<rect width="120" height="120" fill="white"/>
</clipPath>
</defs>
</svg>
