<svg width="110" height="110" viewBox="0 0 110 110" fill="none" xmlns="http://www.w3.org/2000/svg">
<g clip-path="url(#clip0_9214_5689)">
<path d="M72.4443 3.86504L55.0004 1.93252L37.5565 3.86504C36.7625 3.86504 36.1191 2.99968 36.1191 1.93252C36.1191 0.865366 36.7625 0 37.5565 0L55.0004 1.93252L72.4443 0C73.2383 0 73.8817 0.865366 73.8817 1.93252C73.8817 2.99968 73.2383 3.86504 72.4443 3.86504Z" fill="black"/>
<path d="M67.7851 9.31169L55.0002 7.61666L42.2153 9.31169C41.5191 9.31169 40.9541 8.55265 40.9541 7.61666C40.9541 6.68067 41.5183 5.92163 42.2153 5.92163L55.0002 7.61666L67.7851 5.92163C68.4813 5.92163 69.0463 6.68067 69.0463 7.61666C69.0463 8.55265 68.482 9.31169 67.7851 9.31169Z" fill="black"/>
<path d="M97.2847 56.6347L62.8362 22.1861C58.5086 17.8585 51.4925 17.8585 47.1649 22.1861L12.7164 56.6347C8.3888 60.9623 8.3888 67.9783 12.7164 72.3059L47.1649 106.754C51.4925 111.082 58.5086 111.082 62.8362 106.754L97.2847 72.3059C101.612 67.9783 101.612 60.9623 97.2847 56.6347ZM55.0006 93.3122C55.0006 77.3833 42.0876 64.4703 26.1587 64.4703C42.0876 64.4703 55.0006 51.5573 55.0006 35.6284C55.0006 51.5573 67.9135 64.4703 83.8425 64.4703C67.9135 64.4703 55.0006 77.3833 55.0006 93.3122Z" fill="black" stroke="black" stroke-width="0.547945" stroke-miterlimit="10"/>
<path d="M54.823 92.646C54.823 76.7275 41.9185 63.823 26 63.823C41.9185 63.823 54.823 50.9185 54.823 35C54.823 50.9185 67.7275 63.823 83.646 63.823C67.7275 63.823 54.823 76.7275 54.823 92.646Z" fill="white" stroke="black" stroke-width="0.547945" stroke-miterlimit="10"/>
</g>
<defs>
<clipPath id="clip0_9214_5689">
<rect width="110" height="110" fill="white"/>
</clipPath>
</defs>
</svg>
