<svg width="149" height="11" viewBox="0 0 149 11" fill="none" xmlns="http://www.w3.org/2000/svg">
<path d="M8.22324 10.5057H6.43113V5.90902H1.79916V10.5057H0V0.141113H1.79916V4.45558H6.43113V0.141113H8.22324V10.5057Z" fill="white"/>
<path d="M48.2247 0.141113L51.2127 8.08566L54.1936 0.141113H56.522V10.5057H54.7299V7.09083L54.9063 2.52236L51.8441 10.5092H50.5565L47.5015 2.52941L47.6779 7.09083V10.5057H45.8857V0.141113H48.2211H48.2247Z" fill="white"/>
<path d="M102.464 5.59505C102.464 6.61105 102.288 7.50004 101.938 8.2691C101.586 9.03463 101.085 9.62376 100.432 10.033C99.7794 10.4422 99.0279 10.6503 98.1778 10.6503C97.3276 10.6503 96.5903 10.4457 95.9306 10.033C95.2744 9.62376 94.7664 9.03815 94.4066 8.27968C94.0467 7.52121 93.8668 6.64632 93.8633 5.65149V5.06941C93.8633 4.05694 94.0432 3.16794 94.3995 2.39183C94.7558 1.61572 95.2638 1.02658 95.9164 0.61736C96.5691 0.208139 97.317 0 98.1636 0C99.0103 0 99.7582 0.204611 100.411 0.606777C101.063 1.01247 101.568 1.59456 101.924 2.35655C102.281 3.11855 102.46 4.00402 102.464 5.01649V5.59152V5.59505ZM100.665 5.0553C100.665 3.90877 100.446 3.02683 100.012 2.413C99.5783 1.79916 98.9609 1.49578 98.1636 1.49578C97.3664 1.49578 96.7772 1.79916 96.3398 2.40947C95.9023 3.01977 95.6766 3.88055 95.666 4.99533V5.59152C95.666 6.73099 95.8882 7.6094 96.3327 8.23382C96.7772 8.85471 97.3911 9.16515 98.1813 9.16515C98.9715 9.16515 99.5924 8.86176 100.023 8.25498C100.453 7.64821 100.668 6.75921 100.668 5.59152V5.05177L100.665 5.0553Z" fill="white"/>
<path d="M145.447 8.09271H141.432L140.592 10.5057H138.719L142.635 0.141113H144.251L148.174 10.5057H146.293L145.447 8.09271ZM141.937 6.63927H144.939L143.436 2.33892L141.933 6.63927H141.937Z" fill="white"/>
</svg>
