<svg width="110" height="153" viewBox="0 0 110 153" fill="none" xmlns="http://www.w3.org/2000/svg">
<g clip-path="url(#clip0_2607_2647)">
<path d="M72.4438 3.86504L54.9999 1.93252L37.556 3.86504C36.762 3.86504 36.1187 2.99968 36.1187 1.93252C36.1187 0.865366 36.762 0 37.556 0L54.9999 1.93252L72.4438 0C73.2378 0 73.8812 0.865366 73.8812 1.93252C73.8812 2.99968 73.2378 3.86504 72.4438 3.86504Z" fill="black"/>
<path d="M67.7851 9.31181L55.0002 7.61678L42.2153 9.31181C41.5191 9.31181 40.9541 8.55277 40.9541 7.61678C40.9541 6.68079 41.5183 5.92175 42.2153 5.92175L55.0002 7.61678L67.7851 5.92175C68.4813 5.92175 69.0463 6.68079 69.0463 7.61678C69.0463 8.55277 68.482 9.31181 67.7851 9.31181Z" fill="black"/>
<path d="M97.2843 56.6345L62.8357 22.186C58.5081 17.8584 51.4921 17.8584 47.1645 22.186L12.7159 56.6345C8.38831 60.9622 8.38831 67.9782 12.7159 72.3058L47.1645 106.754C51.4921 111.082 58.5081 111.082 62.8357 106.754L97.2843 72.3058C101.612 67.9782 101.612 60.9622 97.2843 56.6345ZM55.0001 93.3121C55.0001 77.3831 42.0871 64.4702 26.1582 64.4702C42.0871 64.4702 55.0001 51.5572 55.0001 35.6283C55.0001 51.5572 67.9131 64.4702 83.842 64.4702C67.9131 64.4702 55.0001 77.3831 55.0001 93.3121Z" fill="black" stroke="black" stroke-width="0.547945" stroke-miterlimit="10"/>
</g>
<path d="M34 153H32.4745V149.009H28.5315V153H27V144H28.5315V147.746H32.4745V144H34V153Z" fill="black"/>
<path d="M44.9791 144L47.5075 150.896L50.0299 144H52V152.997H50.4836V150.033L50.6328 146.067L48.0418 153H46.9522L44.3672 146.073L44.5164 150.033V152.997H43V144H44.9761H44.9791Z" fill="black"/>
<path d="M67 148.728C67 149.587 66.8564 150.338 66.5722 150.988C66.2851 151.635 65.8774 152.132 65.3462 152.478C64.815 152.824 64.2034 153 63.5115 153C62.8195 153 62.2194 152.827 61.6825 152.478C61.1485 152.132 60.735 151.638 60.4422 150.997C60.1493 150.356 60.0029 149.616 60 148.776V148.284C60 147.428 60.1464 146.677 60.4364 146.021C60.7264 145.365 61.1399 144.868 61.671 144.522C62.2022 144.176 62.8109 144 63.5 144C64.1891 144 64.7978 144.173 65.329 144.513C65.8601 144.856 66.2707 145.347 66.5607 145.991C66.8507 146.635 66.9971 147.384 67 148.239V148.725V148.728ZM65.5357 148.272C65.5357 147.303 65.3577 146.558 65.0045 146.039C64.6514 145.52 64.1489 145.264 63.5 145.264C62.8511 145.264 62.3716 145.52 62.0156 146.036C61.6596 146.552 61.4758 147.279 61.4672 148.221V148.725C61.4672 149.688 61.6481 150.43 62.0098 150.958C62.3716 151.483 62.8712 151.745 63.5144 151.745C64.1575 151.745 64.6628 151.489 65.0131 150.976C65.3634 150.463 65.5386 149.712 65.5386 148.725V148.269L65.5357 148.272Z" fill="black"/>
<path d="M81.6925 150.905H78.2955L77.5851 153H76L79.3134 144H80.6806L84 153H82.409L81.6925 150.905ZM78.7224 149.643H81.2627L79.991 145.908L78.7194 149.643H78.7224Z" fill="black"/>
<defs>
<clipPath id="clip0_2607_2647">
<rect width="110" height="110" fill="white"/>
</clipPath>
</defs>
</svg>
