<svg width="52" height="80" viewBox="0 0 52 80" fill="none" xmlns="http://www.w3.org/2000/svg">
<rect width="52" height="80" rx="5" fill="#F4F4F4"/>
<path d="M25.2 48V44.68L22.6 47.24L21.48 46.12L25.2 42.4V40.8H23.6L19.88 44.52L18.76 43.4L21.32 40.8H18V39.2H21.32L18.76 36.6L19.88 35.48L23.6 39.2H25.2V37.6L21.48 33.88L22.6 32.76L25.2 35.32V32H26.8V35.32L29.4 32.76L30.52 33.88L26.8 37.6V39.2H28.4L32.12 35.48L33.24 36.6L30.68 39.2H34V40.8H30.68L33.24 43.4L32.12 44.52L28.4 40.8H26.8V42.4L30.52 46.12L29.4 47.24L26.8 44.68V48H25.2Z" fill="#BBBBBB"/>
</svg>
