<svg width="24" height="22" viewBox="0 0 24 22" fill="none" xmlns="http://www.w3.org/2000/svg">
<path d="M12 21.6634L11 20.7634C8.82222 18.7634 7.02222 17.0576 5.6 15.646C4.17778 14.2354 3.05022 12.9909 2.21733 11.9127C1.38356 10.8354 0.805333 9.85757 0.482667 8.97935C0.160889 8.10202 0 7.21891 0 6.33002C0 4.64113 0.577778 3.21891 1.73333 2.06335C2.88889 0.907795 4.31111 0.330017 6 0.330017C7.17778 0.330017 8.27778 0.630017 9.3 1.23002C10.3222 1.83002 11.2222 2.7078 12 3.86335C12.7778 2.7078 13.6778 1.83002 14.7 1.23002C15.7222 0.630017 16.8222 0.330017 18 0.330017C19.6889 0.330017 21.1111 0.907795 22.2667 2.06335C23.4222 3.21891 24 4.64113 24 6.33002C24 7.21891 23.8391 8.10202 23.5173 8.97935C23.1947 9.85757 22.6169 10.8354 21.784 11.9127C20.9502 12.9909 19.8276 14.2354 18.416 15.646C17.0053 17.0576 15.2 18.7634 13 20.7634L12 21.6634Z" fill="black"/>
</svg>
