<svg width="72" height="72" viewBox="0 0 72 72" fill="none" xmlns="http://www.w3.org/2000/svg">
<path d="M36 72C26.04 72 17.55 68.49 10.53 61.47C3.51 54.45 0 45.96 0 36C0 26.04 3.51 17.55 10.53 10.53C17.55 3.51 26.04 0 36 0C45.96 0 54.45 3.51 61.47 10.53C68.49 17.55 72 26.04 72 36C72 45.96 68.49 54.45 61.47 61.47C54.45 68.49 45.96 72 36 72ZM36 54L41.58 41.58L54 36L41.58 30.42L36 18L30.42 30.42L18 36L30.42 41.58L36 54Z" fill="#BBBBBB"/>
<circle cx="60" cy="60" r="11.8" fill="white" stroke="#F4F4F4" stroke-width="0.4"/>
<g clip-path="url(#clip0_1579_3582)">
<path d="M60 62.1334C61.1782 62.1334 62.1333 61.1782 62.1333 60C62.1333 58.8218 61.1782 57.8667 60 57.8667C58.8218 57.8667 57.8667 58.8218 57.8667 60C57.8667 61.1782 58.8218 62.1334 60 62.1334Z" fill="#BBBBBB"/>
<path d="M58 53.3333L56.78 54.6666H54.6667C53.9333 54.6666 53.3333 55.2666 53.3333 55.9999V63.9999C53.3333 64.7333 53.9333 65.3333 54.6667 65.3333H65.3333C66.0667 65.3333 66.6667 64.7333 66.6667 63.9999V55.9999C66.6667 55.2666 66.0667 54.6666 65.3333 54.6666H63.22L62 53.3333H58ZM60 63.3333C58.16 63.3333 56.6667 61.8399 56.6667 59.9999C56.6667 58.1599 58.16 56.6666 60 56.6666C61.84 56.6666 63.3333 58.1599 63.3333 59.9999C63.3333 61.8399 61.84 63.3333 60 63.3333Z" fill="#BBBBBB"/>
</g>
<defs>
<clipPath id="clip0_1579_3582">
<rect width="16" height="16" fill="white" transform="translate(52 52)"/>
</clipPath>
</defs>
</svg>
