<svg width="52" height="52" viewBox="0 0 52 52" fill="none" xmlns="http://www.w3.org/2000/svg">
<rect width="52" height="52" rx="5" fill="#BBBBBB"/>
<g clip-path="url(#clip0_1782_1234)">
<path d="M34 17.9761V23.5889H32.3255V20.8543L27.9678 25.1875C28.3041 25.6666 28.5625 26.1868 28.7431 26.7482C28.9237 27.3095 29.0139 27.8832 29.0139 28.4691C29.0139 30.004 28.4798 31.3055 27.4116 32.3738C26.3434 33.442 25.0418 33.9761 23.507 33.9761C21.9721 33.9761 20.6706 33.442 19.6024 32.3738C18.5341 31.3055 18 30.004 18 28.4691C18 26.9343 18.5341 25.6327 19.6024 24.5645C20.6706 23.4963 21.9721 22.9621 23.507 22.9621C24.0968 22.9621 24.6674 23.0534 25.2186 23.236C25.7698 23.4185 26.285 23.6779 26.764 24.0142L31.1217 19.6564H28.3931V17.9761H34ZM23.5119 24.6366C22.4507 24.6366 21.5458 25.0092 20.7973 25.7545C20.0487 26.4997 19.6745 27.403 19.6745 28.4642C19.6745 29.5254 20.0471 30.4303 20.7923 31.1788C21.5376 31.9274 22.4408 32.3016 23.502 32.3016C24.5632 32.3016 25.4681 31.929 26.2167 31.1838C26.9652 30.4385 27.3395 29.5353 27.3395 28.4741C27.3395 27.4129 26.9669 26.508 26.2216 25.7594C25.4764 25.0109 24.5731 24.6366 23.5119 24.6366Z" fill="white"/>
</g>
<defs>
<clipPath id="clip0_1782_1234">
<rect width="16" height="16" fill="white" transform="translate(18 18)"/>
</clipPath>
</defs>
</svg>
