<svg width="24" height="24" viewBox="0 0 24 24" fill="none" xmlns="http://www.w3.org/2000/svg">
<g clip-path="url(#clip0_393_2939)">
<path d="M12 11.5757C10.5714 11.5757 9.35714 11.0757 8.35714 10.0757C7.35714 9.07569 6.85714 7.86141 6.85714 6.43284C6.85714 5.03284 7.35714 3.82541 8.35714 2.81055C9.35714 1.79684 10.5714 1.28998 12 1.28998C13.4286 1.28998 14.6429 1.79684 15.6429 2.81055C16.6429 3.82541 17.1429 5.03284 17.1429 6.43284C17.1429 7.86141 16.6429 9.07569 15.6429 10.0757C14.6429 11.0757 13.4286 11.5757 12 11.5757ZM0 24.0043V21.1757C0 20.4614 0.207429 19.7968 0.622286 19.182C1.036 18.5683 1.58571 18.09 2.27143 17.7471C3.9 16.9757 5.52171 16.3968 7.13657 16.0106C8.75029 15.6254 10.3714 15.4328 12 15.4328C13.6286 15.4328 15.2503 15.6254 16.8651 16.0106C18.4789 16.3968 20.1 16.9757 21.7286 17.7471C22.4143 18.09 22.9646 18.5683 23.3794 19.182C23.7931 19.7968 24 20.4614 24 21.1757V24.0043H0ZM1.71429 22.29H22.2857V21.1757C22.2857 20.7757 22.1646 20.4111 21.9223 20.082C21.6789 19.754 21.3429 19.4757 20.9143 19.2471C19.4857 18.5614 18.0217 18.0403 16.5223 17.6837C15.0217 17.326 13.5143 17.1471 12 17.1471C10.4857 17.1471 8.97886 17.326 7.47943 17.6837C5.97886 18.0403 4.51429 18.5614 3.08571 19.2471C2.65714 19.4757 2.32171 19.754 2.07943 20.082C1.836 20.4111 1.71429 20.7757 1.71429 21.1757V22.29ZM12 9.86141C12.9429 9.86141 13.7503 9.52541 14.4223 8.85341C15.0931 8.18255 15.4286 7.37569 15.4286 6.43284C15.4286 5.48998 15.0931 4.68312 14.4223 4.01226C13.7503 3.34026 12.9429 3.00426 12 3.00426C11.0571 3.00426 10.2503 3.34026 9.57943 4.01226C8.90743 4.68312 8.57143 5.48998 8.57143 6.43284C8.57143 7.37569 8.90743 8.18255 9.57943 8.85341C10.2503 9.52541 11.0571 9.86141 12 9.86141Z" fill="black"/>
</g>
<defs>
<clipPath id="clip0_393_2939">
<rect width="24" height="24" fill="white"/>
</clipPath>
</defs>
</svg>
