<svg width="17" height="20" viewBox="0 0 17 20" fill="none" xmlns="http://www.w3.org/2000/svg">
<path d="M0 16.8649V15.7838H2.16216V7.67568C2.16216 6.23424 2.62162 4.96829 3.54054 3.87784C4.45946 2.78811 5.62162 2.10811 7.02703 1.83784V1.08108C7.02703 0.756757 7.13081 0.495495 7.33838 0.297297C7.54523 0.0990991 7.8018 0 8.10811 0C8.41441 0 8.67135 0.0990991 8.87892 0.297297C9.08577 0.495495 9.18919 0.756757 9.18919 1.08108V1.83784C10.5946 2.10811 11.7568 2.78811 12.6757 3.87784C13.5946 4.96829 14.0541 6.23424 14.0541 7.67568V15.7838H16.2162V16.8649H0ZM8.10811 20C7.63964 20 7.22991 19.8335 6.87892 19.5005C6.52721 19.1668 6.35135 18.7477 6.35135 18.2432H9.86487C9.86487 18.7477 9.69838 19.1668 9.36541 19.5005C9.03171 19.8335 8.61261 20 8.10811 20ZM3.24324 15.7838H12.973V7.67568C12.973 6.32433 12.5002 5.1755 11.5546 4.22919C10.6083 3.2836 9.45946 2.81081 8.10811 2.81081C6.75676 2.81081 5.60793 3.2836 4.66162 4.22919C3.71604 5.1755 3.24324 6.32433 3.24324 7.67568V15.7838Z" fill="black"/>
</svg>
