<svg width="52" height="52" viewBox="0 0 52 52" fill="none" xmlns="http://www.w3.org/2000/svg">
<rect width="52" height="52" rx="5" fill="#BBBBBB"/>
<g clip-path="url(#clip0_1782_1232)">
<path d="M25.2109 34.3553V32.5022H23.3579V30.9574H25.2109V28.6668C23.941 28.4784 22.8901 27.8955 22.0581 26.918C21.2261 25.9404 20.8101 24.8103 20.8101 23.5276C20.8101 22.0882 21.3173 20.8663 22.3317 19.8619C23.346 18.8575 24.5688 18.3553 26 18.3553C27.4312 18.3553 28.6539 18.8575 29.6683 19.8619C30.6827 20.8663 31.1899 22.0882 31.1899 23.5276C31.1899 24.8103 30.7739 25.9404 29.9419 26.918C29.1099 27.8955 28.0589 28.4784 26.789 28.6668V30.9574H28.642V32.5022H26.789V34.3553H25.2109ZM25.9953 27.1571C26.9954 27.1571 27.8482 26.806 28.5537 26.1036C29.2591 25.4013 29.6118 24.55 29.6118 23.5499C29.6118 22.5498 29.2607 21.697 28.5583 20.9915C27.856 20.2861 27.0048 19.9333 26.0047 19.9333C25.0045 19.9333 24.1518 20.2845 23.4463 20.9869C22.7409 21.6892 22.3881 22.5404 22.3881 23.5406C22.3881 24.5407 22.7393 25.3935 23.4416 26.0989C24.144 26.8044 24.9952 27.1571 25.9953 27.1571Z" fill="white"/>
</g>
<defs>
<clipPath id="clip0_1782_1232">
<rect width="16" height="16" fill="white" transform="translate(18 18)"/>
</clipPath>
</defs>
</svg>
