<svg width="20" height="20" viewBox="0 0 20 20" fill="none" xmlns="http://www.w3.org/2000/svg">
<rect width="20" height="20" fill="white"/>
<path d="M2 16.8649V15.7838H4.16216V7.67568C4.16216 6.23424 4.62162 4.96829 5.54054 3.87784C6.45946 2.78811 7.62162 2.10811 9.02703 1.83784V1.08108C9.02703 0.756757 9.13081 0.495495 9.33838 0.297297C9.54523 0.0990991 9.8018 0 10.1081 0C10.4144 0 10.6714 0.0990991 10.8789 0.297297C11.0858 0.495495 11.1892 0.756757 11.1892 1.08108V1.83784C12.5946 2.10811 13.7568 2.78811 14.6757 3.87784C15.5946 4.96829 16.0541 6.23424 16.0541 7.67568V15.7838H18.2162V16.8649H2ZM10.1081 20C9.63964 20 9.22991 19.8335 8.87892 19.5005C8.52721 19.1668 8.35135 18.7477 8.35135 18.2432H11.8649C11.8649 18.7477 11.6984 19.1668 11.3654 19.5005C11.0317 19.8335 10.6126 20 10.1081 20ZM5.24324 15.7838H14.973V7.67568C14.973 6.32433 14.5002 5.1755 13.5546 4.22919C12.6083 3.2836 11.4595 2.81081 10.1081 2.81081C8.75676 2.81081 7.60793 3.2836 6.66162 4.22919C5.71604 5.1755 5.24324 6.32433 5.24324 7.67568V15.7838Z" fill="black"/>
<rect x="5" y="5" width="10" height="11" fill="black"/>
<ellipse cx="10.5" cy="7" rx="4.5" ry="5" fill="black"/>
<ellipse cx="9.5" cy="7" rx="4.5" ry="5" fill="black"/>
</svg>
