<svg width="18" height="20" viewBox="0 0 18 20" fill="none" xmlns="http://www.w3.org/2000/svg">
<path d="M1 17V4.2C1 3.0799 1 2.51984 1.21799 2.09202C1.40973 1.71569 1.71569 1.40973 2.09202 1.21799C2.51984 1 3.0799 1 4.2 1H13.8C14.9201 1 15.4802 1 15.908 1.21799C16.2843 1.40973 16.5903 1.71569 16.782 2.09202C17 2.51984 17 3.0799 17 4.2V15H3C1.89543 15 1 15.8954 1 17ZM1 17C1 18.1046 1.89543 19 3 19H17M6 5H12M6 9H12M16 15V19" stroke="white" stroke-width="2" stroke-linecap="round" stroke-linejoin="round"/>
</svg>
