<svg width="24" height="24" viewBox="0 0 24 24" fill="none" xmlns="http://www.w3.org/2000/svg">
<g clip-path="url(#clip0_393_2942)">
<path d="M12 17.6625L13.7625 13.7625L17.6625 12L13.7625 10.2375L12 6.3375L10.2375 10.2375L6.3375 12L10.2375 13.7625L12 17.6625ZM2.4375 24C1.7375 24 1.1565 23.769 0.6945 23.307C0.2315 22.844 0 22.2625 0 21.5625V2.4375C0 1.7375 0.2315 1.1565 0.6945 0.694501C1.1565 0.231501 1.7375 0 2.4375 0H21.5625C22.2625 0 22.844 0.231501 23.307 0.694501C23.769 1.1565 24 1.7375 24 2.4375V21.5625C24 22.2625 23.769 22.844 23.307 23.307C22.844 23.769 22.2625 24 21.5625 24H2.4375ZM2.4375 22.5H21.5625C21.8125 22.5 22.031 22.406 22.218 22.218C22.406 22.031 22.5 21.8125 22.5 21.5625V2.4375C22.5 2.1875 22.406 1.969 22.218 1.782C22.031 1.594 21.8125 1.5 21.5625 1.5H2.4375C2.1875 1.5 1.969 1.594 1.782 1.782C1.594 1.969 1.5 2.1875 1.5 2.4375V21.5625C1.5 21.8125 1.594 22.031 1.782 22.218C1.969 22.406 2.1875 22.5 2.4375 22.5Z" fill="black"/>
</g>
<defs>
<clipPath id="clip0_393_2942">
<rect width="24" height="24" fill="white"/>
</clipPath>
</defs>
</svg>
