<svg width="56" height="56" viewBox="0 0 56 56" fill="none" xmlns="http://www.w3.org/2000/svg">
<circle cx="28" cy="28" r="28" fill="black"/>
<path d="M30.1539 18.3077C30.1539 17.1181 29.1896 16.1538 28 16.1538C26.8105 16.1538 25.8462 17.1181 25.8462 18.3077V25.8461H18.3077C17.1182 25.8461 16.1539 26.8104 16.1539 28C16.1539 29.1895 17.1182 30.1538 18.3077 30.1538H25.8462V37.6923C25.8462 38.8818 26.8105 39.8461 28 39.8461C29.1896 39.8461 30.1539 38.8818 30.1539 37.6923V30.1538H37.6923C38.8819 30.1538 39.8462 29.1895 39.8462 28C39.8462 26.8104 38.8819 25.8461 37.6923 25.8461H30.1539V18.3077Z" fill="white"/>
</svg>
