<svg width="56" height="56" viewBox="0 0 56 56" fill="none" xmlns="http://www.w3.org/2000/svg">
<circle cx="28" cy="28" r="28" fill="black"/>
<path d="M33.5534 7.9418L27.9999 6.99988L22.4675 8.05785C22.2152 8.06049 22.0061 7.61487 22.0003 7.06269C21.9945 6.51051 22.1943 6.0606 22.4465 6.05796L27.9999 6.99988L33.5324 5.94191C33.7847 5.93927 33.9938 6.38489 33.9996 6.93707C34.0054 7.48925 33.8056 7.93916 33.5534 7.9418Z" fill="white"/>
<path d="M31.6408 12L28 10.5L24.3592 12C24.1609 12 24 11.3283 24 10.5C24 9.6717 24.1607 9 24.3592 9L28 10.5L31.6408 9C31.8391 9 32 9.6717 32 10.5C32 11.3283 31.8393 12 31.6408 12Z" fill="white"/>
<path d="M42.8595 26.2465L30.7536 14.1406C29.2328 12.6198 26.7673 12.6198 25.2465 14.1406L19.1935 20.1935L13.1406 26.2465C11.6198 27.7673 11.6198 30.2328 13.1406 31.7536L25.2465 43.8595C26.7673 45.3803 29.2328 45.3803 30.7536 43.8595L42.8595 31.7536C44.3803 30.2328 44.3803 27.7673 42.8595 26.2465ZM28.0001 39.1356C28.0001 33.5379 23.4622 29.0001 17.8645 29.0001C23.4622 29.0001 28.0001 24.4622 28.0001 18.8645C28.0001 24.4622 32.5379 29.0001 38.1356 29.0001C32.5379 29.0001 28.0001 33.5379 28.0001 39.1356Z" fill="white"/>
</svg>
