<svg width="22" height="36" viewBox="0 0 22 36" fill="none" xmlns="http://www.w3.org/2000/svg">
<rect y="22" width="22" height="13" rx="6.5" fill="#FFE03D"/>
<path d="M9.08203 28.8184C9.08643 30.8311 7.8999 32.0879 6.26953 32.0879C4.63477 32.0879 3.45264 30.8311 3.45703 28.8184C3.45264 26.8057 4.63477 25.5488 6.26953 25.5488C7.8999 25.5488 9.08643 26.8057 9.08203 28.8184ZM4.22168 28.8184C4.22607 30.4575 5.11816 31.3452 6.26953 31.3496C7.4209 31.3452 8.31299 30.4575 8.31738 28.8184C8.31299 27.1748 7.4209 26.2871 6.26953 26.2871C5.11816 26.2871 4.22607 27.1748 4.22168 28.8184ZM9.94219 32V25.6367H13.7742V26.3398H10.7332V28.4668H13.4842V29.1611H10.7332V32H9.94219ZM14.652 32V25.6367H18.484V26.3398H15.443V28.4668H18.1939V29.1611H15.443V32H14.652Z" fill="black"/>
<rect width="20" height="20" transform="translate(1)" fill="white"/>
<path d="M3 16.8649V15.7838H5.16216V7.67568C5.16216 6.23424 5.62162 4.96829 6.54054 3.87784C7.45946 2.78811 8.62162 2.10811 10.027 1.83784V1.08108C10.027 0.756757 10.1308 0.495495 10.3384 0.297297C10.5452 0.0990991 10.8018 0 11.1081 0C11.4144 0 11.6714 0.0990991 11.8789 0.297297C12.0858 0.495495 12.1892 0.756757 12.1892 1.08108V1.83784C13.5946 2.10811 14.7568 2.78811 15.6757 3.87784C16.5946 4.96829 17.0541 6.23424 17.0541 7.67568V15.7838H19.2162V16.8649H3ZM11.1081 20C10.6396 20 10.2299 19.8335 9.87892 19.5005C9.52721 19.1668 9.35135 18.7477 9.35135 18.2432H12.8649C12.8649 18.7477 12.6984 19.1668 12.3654 19.5005C12.0317 19.8335 11.6126 20 11.1081 20ZM6.24324 15.7838H15.973V7.67568C15.973 6.32433 15.5002 5.1755 14.5546 4.22919C13.6083 3.2836 12.4595 2.81081 11.1081 2.81081C9.75676 2.81081 8.60793 3.2836 7.66162 4.22919C6.71604 5.1755 6.24324 6.32433 6.24324 7.67568V15.7838Z" fill="black"/>
<rect x="6" y="5" width="10" height="11" fill="black"/>
<ellipse cx="11.5" cy="7" rx="4.5" ry="5" fill="black"/>
<ellipse cx="10.5" cy="7" rx="4.5" ry="5" fill="black"/>
<path d="M3 19L19 3" stroke="#EE5D5D" stroke-width="2"/>
</svg>
