<svg width="18" height="30" viewBox="0 0 18 30" fill="none" xmlns="http://www.w3.org/2000/svg">
<rect y="20" width="18" height="9.61" rx="4.805" fill="#FFE03D"/>
<path d="M7.49219 25.1719C7.49219 26.9766 6.40625 28.0781 4.94531 28.0781C3.46875 28.0781 2.39062 26.9766 2.39062 25.1719C2.39062 23.3594 3.46875 22.2656 4.94531 22.2656C6.40625 22.2656 7.49219 23.3594 7.49219 25.1719ZM6.64062 25.1719C6.64062 23.7969 5.91406 23.0547 4.94531 23.0547C3.96875 23.0547 3.24219 23.7969 3.24219 25.1719C3.24219 26.5469 3.96875 27.2891 4.94531 27.2891C5.91406 27.2891 6.64062 26.5469 6.64062 25.1719ZM8.16094 28V22.3438H11.6687V23.0859H9.02031V24.7969H11.4187V25.5312H9.02031V28H8.16094ZM12.3297 28V22.3438H15.8375V23.0859H13.1891V24.7969H15.5875V25.5312H13.1891V28H12.3297Z" fill="black"/>
<path d="M1 16.1998V15.1613H3.16216V7.37297C3.16216 5.98838 3.62162 4.77236 4.54054 3.72491C5.45946 2.67816 6.62162 2.02497 8.02703 1.76536V1.03845C8.02703 0.726913 8.13081 0.475955 8.33838 0.285573C8.54523 0.095191 8.8018 0 9.10811 0C9.41441 0 9.67135 0.095191 9.87892 0.285573C10.0858 0.475955 10.1892 0.726913 10.1892 1.03845V1.76536C11.5946 2.02497 12.7568 2.67816 13.6757 3.72491C14.5946 4.77236 15.0541 5.98838 15.0541 7.37297V15.1613H17.2162V16.1998H1ZM9.10811 19.2113C8.63964 19.2113 8.22991 19.0513 7.87892 18.7315C7.52721 18.411 7.35135 18.0084 7.35135 17.5238H10.8649C10.8649 18.0084 10.6984 18.411 10.3654 18.7315C10.0317 19.0513 9.61261 19.2113 9.10811 19.2113ZM4.24324 15.1613H13.973V7.37297C13.973 6.07492 13.5002 4.97139 12.5546 4.06241C11.6083 3.15411 10.4595 2.69996 9.10811 2.69996C7.75676 2.69996 6.60793 3.15411 5.66162 4.06241C4.71604 4.97139 4.24324 6.07492 4.24324 7.37297V15.1613Z" fill="black"/>
</svg>
