<svg width="20" height="20" viewBox="0 0 20 20" fill="none" xmlns="http://www.w3.org/2000/svg">
<path opacity="0.4" d="M3 8.00008V14.2001C3 15.8802 3 16.7203 3.32698 17.362C3.6146 17.9265 4.07354 18.3855 4.63803 18.6731C5.27976 19.0001 6.11984 19.0001 7.8 19.0001H12.2C13.8802 19.0001 14.7202 19.0001 15.362 18.6731C15.9265 18.3855 16.3854 17.9265 16.673 17.362C17 16.7203 17 15.8802 17 14.2001V3.00008M19 10.0001L13.5668 3.96405C12.3311 2.59129 11.7133 1.9049 10.9856 1.65151C10.3466 1.42894 9.65099 1.42899 9.01193 1.65165C8.28435 1.90516 7.66661 2.59163 6.43114 3.96458L1 10.0001" stroke="white" stroke-width="2" stroke-linecap="round" stroke-linejoin="round"/>
</svg>
