<svg width="22" height="24" viewBox="0 0 22 24" fill="none" xmlns="http://www.w3.org/2000/svg">
<path d="M18.5858 24C17.7016 24 16.9542 23.6947 16.3437 23.0842C15.7332 22.4737 15.4279 21.7263 15.4279 20.8421C15.4279 20.6737 15.4439 20.4998 15.4759 20.3204C15.5071 20.1419 15.5542 19.9684 15.6174 19.8L5.82789 14.0526C5.5121 14.3895 5.14915 14.6577 4.73905 14.8573C4.3281 15.0577 3.89105 15.1579 3.42789 15.1579C2.54368 15.1579 1.79631 14.8526 1.18578 14.2421C0.575253 13.6316 0.269989 12.8842 0.269989 12C0.269989 11.1158 0.575253 10.3684 1.18578 9.7579C1.79631 9.14737 2.54368 8.84211 3.42789 8.84211C3.89105 8.84211 4.3281 8.94232 4.73905 9.14274C5.14915 9.34232 5.5121 9.61053 5.82789 9.94737L15.6174 4.2C15.5542 4.03158 15.5071 3.85769 15.4759 3.67832C15.4439 3.49979 15.4279 3.32632 15.4279 3.15789C15.4279 2.27368 15.7332 1.52632 16.3437 0.915789C16.9542 0.305263 17.7016 0 18.5858 0C19.47 0 20.2174 0.305263 20.8279 0.915789C21.4384 1.52632 21.7437 2.27368 21.7437 3.15789C21.7437 4.04211 21.4384 4.78947 20.8279 5.4C20.2174 6.01053 19.47 6.31579 18.5858 6.31579C18.1227 6.31579 17.6856 6.21558 17.2746 6.01516C16.8645 5.81558 16.5016 5.54737 16.1858 5.21053L6.39631 10.9579C6.45947 11.1263 6.50705 11.2998 6.53905 11.4783C6.57021 11.6577 6.58579 11.8316 6.58579 12C6.58579 12.1684 6.57021 12.3419 6.53905 12.5204C6.50705 12.6998 6.45947 12.8737 6.39631 13.0421L16.1858 18.7895C16.5016 18.4526 16.8645 18.1844 17.2746 17.9848C17.6856 17.7844 18.1227 17.6842 18.5858 17.6842C19.47 17.6842 20.2174 17.9895 20.8279 18.6C21.4384 19.2105 21.7437 19.9579 21.7437 20.8421C21.7437 21.7263 21.4384 22.4737 20.8279 23.0842C20.2174 23.6947 19.47 24 18.5858 24ZM18.5858 5.05263C19.1121 5.05263 19.5593 4.86821 19.9273 4.49937C20.2961 4.13137 20.4805 3.68421 20.4805 3.15789C20.4805 2.63158 20.2961 2.18442 19.9273 1.81642C19.5593 1.44758 19.1121 1.26316 18.5858 1.26316C18.0595 1.26316 17.6123 1.44758 17.2443 1.81642C16.8755 2.18442 16.6911 2.63158 16.6911 3.15789C16.6911 3.68421 16.8755 4.13137 17.2443 4.49937C17.6123 4.86821 18.0595 5.05263 18.5858 5.05263ZM3.42789 13.8947C3.95421 13.8947 4.40136 13.7103 4.76937 13.3415C5.13821 12.9735 5.32263 12.5263 5.32263 12C5.32263 11.4737 5.13821 11.0265 4.76937 10.6585C4.40136 10.2897 3.95421 10.1053 3.42789 10.1053C2.90157 10.1053 2.45441 10.2897 2.08641 10.6585C1.71757 11.0265 1.53315 11.4737 1.53315 12C1.53315 12.5263 1.71757 12.9735 2.08641 13.3415C2.45441 13.7103 2.90157 13.8947 3.42789 13.8947ZM18.5858 22.7368C19.1121 22.7368 19.5593 22.5524 19.9273 22.1836C20.2961 21.8156 20.4805 21.3684 20.4805 20.8421C20.4805 20.3158 20.2961 19.8686 19.9273 19.5006C19.5593 19.1318 19.1121 18.9474 18.5858 18.9474C18.0595 18.9474 17.6123 19.1318 17.2443 19.5006C16.8755 19.8686 16.6911 20.3158 16.6911 20.8421C16.6911 21.3684 16.8755 21.8156 17.2443 22.1836C17.6123 22.5524 18.0595 22.7368 18.5858 22.7368Z" fill="white"/>
</svg>
