<svg width="24" height="24" viewBox="0 0 24 24" fill="none" xmlns="http://www.w3.org/2000/svg">
<g opacity="0.5">
<path d="M17.3659 20.5V3.5C17.7984 3.5 18.1382 3.62083 18.3854 3.8625C18.6325 4.10417 18.7561 4.48333 18.7561 5V19C18.7561 19.5167 18.6325 19.8958 18.3854 20.1375C18.1382 20.3792 17.7984 20.5 17.3659 20.5ZM4.39024 22C4.00407 22 3.67581 21.8542 3.40549 21.5625C3.13516 21.2708 3 20.9167 3 20.5V3.5C3 3.08333 3.13516 2.72917 3.40549 2.4375C3.67581 2.14583 4.00407 2 4.39024 2H13.6585C14.0447 2 14.373 2.14583 14.6433 2.4375C14.9136 2.72917 15.0488 3.08333 15.0488 3.5V20.5C15.0488 20.9167 14.9136 21.2708 14.6433 21.5625C14.373 21.8542 14.0447 22 13.6585 22H4.39024ZM21.0732 18.975V5.05C21.3821 5.05 21.6138 5.12083 21.7683 5.2625C21.9228 5.40417 22 5.66667 22 6.05V17.975C22 18.3583 21.9228 18.6208 21.7683 18.7625C21.6138 18.9042 21.3821 18.975 21.0732 18.975Z" fill="#BBBBBB"/>
</g>
</svg>
