<svg width="293" height="465" viewBox="0 0 293 465" fill="none" xmlns="http://www.w3.org/2000/svg">
<g filter="url(#filter0_d_3365_3228)">
<path d="M0 30C0 13.4315 13.4315 0 30 0H228C244.569 0 258 13.4315 258 30V465H0V30Z" fill="white"/>
</g>
<rect x="12" y="97.375" width="75" height="87.5" fill="black"/>
<rect x="172" y="97.375" width="75" height="87.5" fill="black"/>
<path d="M22.4297 149.832V148.973H28.2949V149.832H25.8564V156.75H24.8789V149.832H22.4297ZM30.702 156.868C29.1121 156.868 28.0379 155.676 28.0379 153.86C28.0379 152.045 29.1121 150.842 30.702 150.842C32.2811 150.842 33.3445 152.045 33.3445 153.86C33.3445 155.676 32.2811 156.868 30.702 156.868ZM30.702 156.052C31.8729 156.052 32.4207 155.021 32.4207 153.86C32.4207 152.7 31.8729 151.658 30.702 151.658C29.5096 151.658 28.9617 152.7 28.9617 153.86C28.9617 155.021 29.5096 156.052 30.702 156.052ZM34.2584 158.941V150.917H35.15V151.841H35.2574C35.4508 151.529 35.816 150.842 36.9439 150.842C38.4049 150.842 39.4254 152.002 39.4254 153.85C39.4254 155.697 38.4049 156.868 36.9547 156.868C35.8375 156.868 35.4508 156.181 35.2574 155.858H35.1822V158.941H34.2584ZM35.1607 153.828C35.1607 155.139 35.7516 156.041 36.8258 156.041C37.9322 156.041 38.5016 155.074 38.5016 153.828C38.5016 152.614 37.943 151.669 36.8258 151.669C35.7301 151.669 35.1607 152.539 35.1607 153.828ZM43.7131 153.248V156.75H42.7893V150.917H43.6809V151.83H43.7561C44.0354 151.239 44.5725 150.842 45.4641 150.842C46.6457 150.842 47.4299 151.562 47.4299 153.044V156.75H46.5061V153.108C46.5061 152.206 46.0119 151.669 45.1848 151.669C44.3361 151.669 43.7131 152.238 43.7131 153.248ZM50.9971 156.868C49.4072 156.868 48.333 155.676 48.333 153.86C48.333 152.045 49.4072 150.842 50.9971 150.842C52.5762 150.842 53.6396 152.045 53.6396 153.86C53.6396 155.676 52.5762 156.868 50.9971 156.868ZM50.9971 156.052C52.168 156.052 52.7158 155.021 52.7158 153.86C52.7158 152.7 52.168 151.658 50.9971 151.658C49.8047 151.658 49.2568 152.7 49.2568 153.86C49.2568 155.021 49.8047 156.052 50.9971 156.052ZM57.0994 150.917V151.69H55.8748V155.074C55.8748 155.826 56.24 155.944 56.6375 155.944C56.8094 155.944 57.0457 155.934 57.1854 155.923V156.782C57.0457 156.804 56.8094 156.825 56.5408 156.825C55.7674 156.825 54.9402 156.342 54.9402 155.311V151.69H54.0594V150.917H54.9402V149.521H55.8748V150.917H57.0994ZM60.3766 156.868C58.69 156.868 57.648 155.676 57.648 153.882C57.648 152.088 58.7008 150.842 60.2906 150.842C61.5152 150.842 62.8043 151.594 62.8043 153.753V154.14H58.5719C58.6148 155.375 59.3346 156.052 60.3766 156.052C61.0748 156.052 61.5152 155.751 61.7301 155.386H62.7184C62.4391 156.267 61.5797 156.868 60.3766 156.868ZM58.5826 153.355H61.8697C61.8697 152.378 61.2467 151.658 60.2906 151.658C59.2809 151.658 58.6363 152.453 58.5826 153.355ZM66.9516 152.432C66.8227 151.948 66.4574 151.626 65.7699 151.626C65.0502 151.626 64.5346 152.013 64.5346 152.507C64.5346 152.894 64.8461 153.162 65.5336 153.323L66.4037 153.538C67.4457 153.785 67.9613 154.301 67.9613 155.117C67.9613 156.127 67.1342 156.868 65.6732 156.868C64.3627 156.868 63.5785 156.288 63.4281 155.225H64.3949C64.5023 155.794 64.9213 156.062 65.6518 156.062C66.4789 156.062 67.0053 155.719 67.0053 155.171C67.0053 154.763 66.7152 154.483 66.0492 154.333L65.1684 154.129C64.1479 153.893 63.6107 153.334 63.6107 152.561C63.6107 151.562 64.4809 150.842 65.7699 150.842C66.973 150.842 67.7357 151.486 67.8539 152.432H66.9516ZM27.2314 165.607V166.295H23.6758V167.455H27.0488V168.143H23.6758V169.367C25.5342 169.367 26.603 169.319 27.8545 169.088L27.9512 169.775C26.6299 170.001 25.5342 170.055 23.5576 170.055H22.8379V165.607H27.2314ZM29.8525 165.07V167.315H31.292V168.035H29.8525V170.366H29.0146V165.07H29.8525ZM24.6426 170.796V171.935H29.0146V170.796H29.8525V174.491H23.8047V170.796H24.6426ZM24.6426 173.804H29.0146V172.601H24.6426V173.804ZM39.3279 169.421V170.13H36.3631V172.676H40.3377V173.374H31.5936V172.676H35.5252V170.13H32.6678V165.887H33.5271V169.421H39.3279ZM48.5348 170.237V170.925H41.9283V165.897H48.4273V166.606H42.7877V168.024H48.2232V168.701H42.7877V170.237H48.5348ZM49.5445 172.676V173.374H40.8004V172.676H49.5445ZM57.473 165.081V168.014H58.9232V168.733H57.473V172.106H56.6352V165.081H57.473ZM57.9242 173.707V174.416H51.5541V171.569H52.4135V173.707H57.9242ZM54.7445 165.704V168.433H51.2641V169.926C52.9613 169.937 54.1913 169.867 55.6791 169.614L55.765 170.312C54.2289 170.57 52.9506 170.624 51.1781 170.624H50.4369V167.767H53.9174V166.413H50.4154V165.704H54.7445ZM60.7395 171.505C60.7502 170.065 61.1906 169.625 61.9318 169.174C62.3723 168.905 62.716 168.476 62.716 167.874C62.716 167.144 62.1467 166.682 61.4377 166.682C60.8254 166.682 60.2131 167.047 60.1486 167.928H59.1711C59.2248 166.628 60.2131 165.865 61.4377 165.865C62.7805 165.865 63.6613 166.735 63.6613 167.917C63.6613 168.755 63.2639 169.346 62.5979 169.754C61.9318 170.162 61.6848 170.57 61.6633 171.505V171.559H60.7395V171.505ZM61.2336 173.814C60.8576 173.814 60.5354 173.503 60.5461 173.116C60.5354 172.74 60.8576 172.429 61.2336 172.429C61.6096 172.429 61.9211 172.74 61.9211 173.116C61.9211 173.503 61.6096 173.814 61.2336 173.814Z" fill="white"/>
<path d="M32.0078 112.547V113.59H22.3516V112.547H24.6016V111.199C23.8047 110.865 23.3477 110.332 23.3477 109.641C23.3477 108.375 24.8359 107.625 27.168 107.625C29.5 107.625 30.9766 108.375 30.9883 109.641C30.9824 110.338 30.5254 110.871 29.7227 111.199V112.547H32.0078ZM27.168 114.234C29.4531 114.223 30.8242 114.902 30.8359 116.121C30.8242 117.352 29.4531 118.02 27.168 118.02C24.8594 118.02 23.4766 117.352 23.4766 116.121C23.4766 114.902 24.8594 114.223 27.168 114.234ZM27.168 115.219C25.6211 115.219 24.7891 115.523 24.8008 116.121C24.7891 116.719 25.6211 117.035 27.168 117.035C28.6797 117.035 29.5234 116.719 29.5352 116.121C29.5234 115.523 28.6797 115.219 27.168 115.219ZM27.168 108.633C25.5977 108.633 24.6953 108.984 24.707 109.641C24.6953 110.285 25.5977 110.625 27.168 110.625C28.7266 110.625 29.6406 110.285 29.6406 109.641C29.6406 108.984 28.7266 108.633 27.168 108.633ZM25.9141 112.547H28.4219V111.539C28.041 111.592 27.6191 111.621 27.168 111.621C26.7168 111.621 26.2949 111.592 25.9141 111.539V112.547ZM35.3172 108.223C36.7527 108.223 37.8133 109.418 38.0008 111.352H40.0164V107.449H41.3055V118.055H40.0164V112.406H38.0125C37.8719 114.451 36.7937 115.711 35.3172 115.711C33.7234 115.711 32.5984 114.27 32.5984 111.961C32.5984 109.676 33.7234 108.223 35.3172 108.223ZM35.3172 109.395C34.4383 109.395 33.8406 110.344 33.8523 111.961C33.8406 113.59 34.4383 114.539 35.3172 114.539C36.1961 114.539 36.782 113.59 36.7937 111.961C36.782 110.344 36.1961 109.395 35.3172 109.395Z" fill="white"/>
<path d="M185.835 148.973H186.812V154.526C186.812 156.02 185.932 156.857 184.578 156.857C183.289 156.857 182.354 156.116 182.354 154.913H183.311C183.311 155.568 183.848 155.998 184.578 155.998C185.384 155.998 185.835 155.493 185.835 154.526V148.973ZM190.498 156.868C188.908 156.868 187.834 155.676 187.834 153.86C187.834 152.045 188.908 150.842 190.498 150.842C192.077 150.842 193.14 152.045 193.14 153.86C193.14 155.676 192.077 156.868 190.498 156.868ZM190.498 156.052C191.669 156.052 192.217 155.021 192.217 153.86C192.217 152.7 191.669 151.658 190.498 151.658C189.305 151.658 188.758 152.7 188.758 153.86C188.758 155.021 189.305 156.052 190.498 156.052ZM195.171 156.75L193.399 150.917H194.377L195.623 155.364H195.676L196.912 150.917H197.9L199.114 155.343H199.178L200.424 150.917H201.391L199.619 156.75H198.706L197.438 152.303H197.352L196.095 156.75H195.171ZM201.832 155.096C201.832 153.753 203.014 153.452 204.024 153.377C204.394 153.35 205.34 153.302 205.603 153.291V152.818C205.603 152.077 205.163 151.647 204.282 151.647C203.54 151.647 203.1 151.991 202.971 152.432H202.004C202.122 151.497 203.036 150.842 204.325 150.842C205.087 150.842 206.516 151.067 206.516 152.904V156.75H205.603V155.955H205.56C205.367 156.353 204.829 156.89 203.82 156.89C202.713 156.89 201.832 156.234 201.832 155.096ZM202.756 155.139C202.756 155.751 203.272 156.062 203.981 156.062C205.023 156.062 205.603 155.364 205.603 154.634V154.043L204.131 154.15C203.293 154.204 202.756 154.505 202.756 155.139ZM208.622 153.248V156.75H207.698V150.917H208.59V151.83H208.665C208.945 151.239 209.482 150.842 210.373 150.842C211.555 150.842 212.339 151.562 212.339 153.044V156.75H211.415V153.108C211.415 152.206 210.921 151.669 210.094 151.669C209.245 151.669 208.622 152.238 208.622 153.248ZM214.445 153.248V156.75H213.521V148.973H214.445V151.83H214.521C214.789 151.229 215.315 150.842 216.239 150.842C217.432 150.842 218.227 151.551 218.227 153.044V156.75H217.303V153.108C217.303 152.195 216.798 151.669 215.96 151.669C215.09 151.669 214.445 152.238 214.445 153.248ZM221.858 156.868C220.172 156.868 219.13 155.676 219.13 153.882C219.13 152.088 220.182 150.842 221.772 150.842C222.997 150.842 224.286 151.594 224.286 153.753V154.14H220.054C220.096 155.375 220.816 156.052 221.858 156.052C222.556 156.052 222.997 155.751 223.212 155.386H224.2C223.921 156.267 223.061 156.868 221.858 156.868ZM220.064 153.355H223.351C223.351 152.378 222.728 151.658 221.772 151.658C220.763 151.658 220.118 152.453 220.064 153.355ZM191.131 172.687V173.396H182.387V172.687H186.329V170.366H187.178V172.687H191.131ZM187.178 166.886C187.178 168.411 189.068 169.722 190.712 169.99L190.368 170.656C188.907 170.372 187.366 169.442 186.759 168.11C186.141 169.448 184.605 170.398 183.171 170.699L182.816 170.022C184.428 169.743 186.308 168.411 186.308 166.886V166.649H183.106V165.94H190.379V166.649H187.178V166.886ZM194.505 165.521C195.901 165.521 196.879 166.273 196.879 167.412C196.879 168.395 196.105 169.109 194.956 169.249V170.184C195.847 170.146 196.755 170.065 197.588 169.937L197.652 170.57C195.633 170.936 193.345 170.957 191.69 170.957L191.583 170.259C192.324 170.264 193.194 170.259 194.107 170.227V169.26C192.926 169.131 192.131 168.411 192.141 167.412C192.131 166.273 193.108 165.521 194.505 165.521ZM194.505 166.177C193.581 166.177 192.926 166.671 192.936 167.412C192.926 168.132 193.581 168.626 194.505 168.637C195.439 168.626 196.073 168.132 196.084 167.412C196.073 166.671 195.439 166.177 194.505 166.177ZM199.049 165.081V168.314H200.477V169.034H199.049V172.386H198.2V165.081H199.049ZM199.392 173.696V174.405H192.979V171.752H193.828V173.696H199.392ZM208.631 165.07V174.62H207.794V165.07H208.631ZM200.854 172.01C202.68 172.01 205.076 171.999 207.16 171.741L207.224 172.364C205.076 172.719 202.766 172.74 200.983 172.729L200.854 172.01ZM206.913 166.37V167.058H201.058V166.37H203.561V165.178H204.421V166.37H206.913ZM203.991 167.584C205.355 167.584 206.279 168.293 206.29 169.389C206.279 170.463 205.355 171.183 203.991 171.172C202.637 171.183 201.703 170.463 201.713 169.389C201.703 168.293 202.637 167.584 203.991 167.584ZM203.991 168.25C203.11 168.25 202.498 168.712 202.498 169.389C202.498 170.055 203.11 170.517 203.991 170.517C204.872 170.517 205.484 170.055 205.484 169.389C205.484 168.712 204.872 168.25 203.991 168.25Z" fill="white"/>
<path d="M192.031 115.074V116.141H182.352V115.074H186.535V112.637H187.836V115.074H192.031ZM191.199 107.68V108.746H187.859C187.9 110.27 189.471 111.67 191.645 111.992L191.129 113.023C189.336 112.695 187.871 111.752 187.191 110.434C186.506 111.77 185.053 112.748 183.289 113.082L182.773 112.051C184.889 111.693 186.447 110.27 186.488 108.746H183.16V107.68H191.199ZM202.22 108.477V109.543H200.778V110.75H202.22V111.816H200.778V113.586H199.477V106.824H200.778V108.477H202.22ZM197.356 113.68C199.524 113.68 200.895 114.371 200.895 115.543C200.895 116.703 199.524 117.406 197.356 117.406C195.153 117.406 193.805 116.703 193.817 115.543C193.805 114.371 195.153 113.68 197.356 113.68ZM197.356 114.676C195.903 114.676 195.095 114.957 195.106 115.543C195.095 116.105 195.903 116.422 197.356 116.422C198.786 116.422 199.595 116.105 199.595 115.543C199.595 114.957 198.786 114.676 197.356 114.676ZM198.716 107.902V108.922H192.434V107.902H194.93V106.754H196.231V107.902H198.716ZM195.575 109.344C197.11 109.344 198.153 110.105 198.165 111.242C198.153 112.379 197.11 113.129 195.575 113.129C194.028 113.129 192.973 112.379 192.973 111.242C192.973 110.105 194.028 109.344 195.575 109.344ZM195.575 110.305C194.766 110.305 194.239 110.656 194.239 111.242C194.239 111.816 194.766 112.145 195.575 112.145C196.384 112.145 196.923 111.816 196.923 111.242C196.923 110.656 196.384 110.305 195.575 110.305ZM206.279 109.367C206.267 111.254 207.216 113.176 208.857 113.961L208.06 115.004C206.912 114.424 206.086 113.305 205.634 111.957C205.171 113.398 204.304 114.594 203.091 115.203L202.295 114.16C203.994 113.352 204.966 111.324 204.978 109.367V107.68H206.279V109.367ZM210.791 106.824V110.973H212.42V112.086H210.791V117.418H209.49V106.824H210.791Z" fill="white"/>
<rect x="12.5" y="242.5" width="233" height="46" rx="9.5" fill="white" stroke="#BBBBBB"/>
<rect x="12.5" y="294.5" width="233" height="46" rx="9.5" fill="white" stroke="#BBBBBB"/>
<rect x="12.5" y="347.5" width="233" height="46" rx="9.5" fill="white" stroke="#BBBBBB"/>
<path d="M20.8125 225.875C20.5312 224.422 19.3281 223.609 17.8906 223.609C15.9375 223.609 14.4844 225.109 14.4844 227.844C14.4844 230.594 15.9531 232.078 17.8906 232.078C19.3125 232.078 20.5156 231.281 20.8125 229.844L22.5469 229.859C22.1875 232.094 20.3594 233.656 17.875 233.656C14.9219 233.656 12.7812 231.453 12.7812 227.844C12.7812 224.219 14.9375 222.031 17.875 222.031C20.2656 222.031 22.1562 223.438 22.5469 225.875H20.8125ZM27.5594 233.672C25.1531 233.672 23.5906 231.922 23.5906 229.297C23.5906 226.656 25.1531 224.906 27.5594 224.906C29.95 224.906 31.5125 226.656 31.5125 229.297C31.5125 231.922 29.95 233.672 27.5594 233.672ZM27.5594 232.281C29.0906 232.281 29.825 230.922 29.825 229.297C29.825 227.672 29.0906 226.281 27.5594 226.281C25.9969 226.281 25.2625 227.672 25.2625 229.297C25.2625 230.922 25.9969 232.281 27.5594 232.281ZM32.8531 233.5V225.016H34.4625V226.406H34.5562C34.9156 225.453 35.7437 224.906 36.8687 224.906C37.9937 224.906 38.7906 225.469 39.15 226.406H39.2437C39.65 225.484 40.5562 224.906 41.7906 224.906C43.3219 224.906 44.4156 225.875 44.4156 227.812V233.5H42.7437V227.969C42.7437 226.828 42.025 226.344 41.15 226.344C40.0719 226.344 39.4625 227.078 39.4625 228.094V233.5H37.8062V227.875C37.8062 226.953 37.1656 226.344 36.2594 226.344C35.3219 226.344 34.525 227.125 34.525 228.266V233.5H32.8531ZM46.1312 233.5V225.016H47.7406V226.406H47.8344C48.1937 225.453 49.0219 224.906 50.1469 224.906C51.2719 224.906 52.0687 225.469 52.4281 226.406H52.5219C52.9281 225.484 53.8344 224.906 55.0687 224.906C56.6 224.906 57.6937 225.875 57.6937 227.812V233.5H56.0219V227.969C56.0219 226.828 55.3031 226.344 54.4281 226.344C53.35 226.344 52.7406 227.078 52.7406 228.094V233.5H51.0844V227.875C51.0844 226.953 50.4437 226.344 49.5375 226.344C48.6 226.344 47.8031 227.125 47.8031 228.266V233.5H46.1312ZM64.8 229.969V225.016H66.4562V233.5H64.8312V232.031H64.7375C64.3469 232.938 63.4719 233.609 62.2062 233.609C60.5656 233.609 59.4094 232.516 59.4094 230.406V225.016H61.0812V230.203C61.0812 231.359 61.7844 232.094 62.8 232.094C63.7219 232.094 64.8 231.422 64.8 229.969ZM69.8594 228.469V233.5H68.1875V225.016H69.7969V226.406H69.8906C70.2969 225.5 71.125 224.906 72.3906 224.906C74.1406 224.906 75.2812 226 75.2812 228.109V233.5H73.625V228.312C73.625 227.078 72.9531 226.344 71.8281 226.344C70.6875 226.344 69.8594 227.109 69.8594 228.469ZM77.0125 233.5V225.016H78.6844V233.5H77.0125ZM77.8563 223.703C77.2781 223.703 76.7938 223.266 76.7938 222.719C76.7938 222.172 77.2781 221.734 77.8563 221.734C78.4188 221.734 78.9031 222.172 78.9031 222.719C78.9031 223.266 78.4188 223.703 77.8563 223.703ZM84.3844 225.016V226.344H82.65V231C82.65 231.953 83.1344 232.125 83.6656 232.141C83.9 232.141 84.275 232.109 84.5094 232.094V233.547C84.275 233.578 83.9156 233.609 83.4625 233.609C82.15 233.609 80.9781 232.891 80.9938 231.344V226.344H79.7438V225.016H80.9938V222.984H82.65V225.016H84.3844ZM86.7406 236.688C86.3969 236.688 86.0687 236.672 85.85 236.641V235.25C86.0375 235.266 86.3656 235.281 86.6 235.281C87.1156 235.281 87.5531 235.234 87.9437 234.172L88.1469 233.609L85.0375 225.016H86.8187L88.9594 231.594H89.0531L91.1937 225.016H92.9906L89.4906 234.625C89.0062 235.969 88.1312 236.688 86.7406 236.688Z" fill="black"/>
<path d="M25.3691 253.658C25.3691 255.045 26.2773 256.588 27.6055 257.213L27.0781 257.936C26.0967 257.462 25.3203 256.476 24.9297 255.328C24.5244 256.583 23.7041 257.662 22.7031 258.16L22.1562 257.428C23.4844 256.793 24.4512 255.143 24.4512 253.658V252.73H22.4785V251.959H27.2734V252.73H25.3691V253.658ZM29.1387 251.08V254.547H30.5449V255.328H29.1387V259.83H28.2109V251.08H29.1387ZM38.6629 256.021V256.783H36.6316V259.83H35.6941V256.783H33.6043V259.83H32.6473V256.783H30.6551V256.021H38.6629ZM34.6395 251.412C36.4852 251.412 37.7547 252.164 37.7547 253.346C37.7547 254.508 36.4852 255.25 34.6395 255.24C32.784 255.25 31.5242 254.508 31.5242 253.346C31.5242 252.164 32.784 251.412 34.6395 251.412ZM34.6395 252.154C33.3406 252.164 32.4715 252.613 32.4812 253.346C32.4715 254.059 33.3406 254.508 34.6395 254.508C35.9383 254.508 36.8074 254.059 36.8074 253.346C36.8074 252.613 35.9383 252.164 34.6395 252.154Z" fill="#BBBBBB"/>
<path d="M25.2227 265.965C26.1777 265.971 26.9512 266.527 27.4023 267.488H30.1445V265.156H31.0586V275.598H30.1445V271.555H27.4727C27.0332 272.609 26.2305 273.219 25.2227 273.219C23.6875 273.219 22.6094 271.812 22.6094 269.598C22.6094 267.383 23.6875 265.977 25.2227 265.965ZM25.2227 266.785C24.1914 266.797 23.4883 267.898 23.4883 269.598C23.4883 271.297 24.1914 272.398 25.2227 272.398C26.2422 272.398 26.957 271.297 26.957 269.598C26.957 267.898 26.2422 266.797 25.2227 266.785ZM27.6719 268.262C27.7656 268.666 27.8242 269.111 27.8242 269.598C27.8242 270.025 27.7773 270.43 27.707 270.793H30.1445V268.262H27.6719ZM36.0203 268.355C36.0086 270.031 37.2156 271.871 38.7273 272.586L38.2 273.312C37.0281 272.744 36.0379 271.502 35.575 270.09C35.0945 271.625 34.0457 272.973 32.8797 273.57L32.3172 272.844C33.8172 272.117 35.1062 270.137 35.118 268.355V266.996H32.6922V266.234H38.3641V266.996H36.0203V268.355ZM40.5555 265.156V269.375H42.3016V270.16H40.5555V275.574H39.6414V265.156H40.5555ZM51.1656 265.168V272.867H50.2516V265.168H51.1656ZM51.4937 274.578V275.352H44.4391V272.152H45.3531V274.578H51.4937ZM46.3492 267.594C46.3492 268.977 47.4625 270.195 49.0211 270.676L48.5641 271.414C47.3395 271.021 46.3727 270.189 45.9039 269.105C45.4469 270.271 44.4859 271.174 43.2437 271.602L42.775 270.875C44.3336 270.371 45.4352 269.059 45.4352 267.594V267.312H43.0328V266.574H45.4352V265.215H46.3609V266.574H48.7398V267.312H46.3492V267.594ZM60.8734 265.836V266.75C60.8734 267.74 60.8734 268.812 60.5805 270.312H62.1273V271.074H57.8266V275.598H56.9008V271.074H52.6352V270.312H59.643C59.9594 268.812 59.9594 267.717 59.9594 266.75V266.598H53.8305V265.836H60.8734ZM70.8508 265.168V268.602H72.4211V269.375H70.8508V272.973H69.9367V265.168H70.8508ZM68.9406 266.445V267.195H62.7297V266.445H65.3781V265.168H66.2922V266.445H68.9406ZM65.8352 267.77C67.3234 267.77 68.3312 268.531 68.343 269.715C68.3312 270.887 67.3234 271.637 65.8352 271.637C64.3352 271.637 63.3156 270.887 63.3273 269.715C63.3156 268.531 64.3352 267.77 65.8352 267.77ZM65.8352 268.496C64.8508 268.496 64.1945 268.977 64.2062 269.715C64.1945 270.453 64.8508 270.922 65.8352 270.91C66.8078 270.922 67.4641 270.453 67.4758 269.715C67.4641 268.977 66.8078 268.496 65.8352 268.496ZM71.3312 274.578V275.352H64.3352V272.352H65.2375V274.578H71.3312ZM77.0664 266.434V267.172H74.0664V269.234H76.5859V269.973H74.0664V272.316C75.5605 272.299 76.4746 272.246 77.6055 272.035L77.6875 272.785C76.4805 273.031 75.4961 273.055 73.8438 273.066H73.1875V266.434H77.0664ZM81.6953 265.156V275.574H80.8047V265.156H81.6953ZM79.5625 265.414V275.035H78.6836V269.879H77.1484V269.117H78.6836V265.414H79.5625ZM89.1227 267.125C89.1227 268.578 90.1773 269.949 91.7008 270.5L91.1852 271.215C90.0426 270.758 89.1344 269.85 88.6891 268.719C88.2438 269.979 87.2945 270.98 86.0641 271.473L85.5719 270.723C87.1305 270.148 88.2086 268.695 88.2203 267.09V265.801H89.1227V267.125ZM94.1969 265.168V272.973H93.2711V268.391H90.9508V267.617H93.2711V265.168H94.1969ZM94.4313 274.578V275.352H87.4586V272.082H88.3844V274.578H94.4313ZM105.123 269.562V270.312H100.823V271.344H103.905V273.676H97.7172V274.73H104.221V275.457H96.8031V272.984H103.002V272.059H96.7797V271.344H99.9086V270.312H95.6312V269.562H105.123ZM103.893 265.508V268.684H96.8617V265.508H103.893ZM97.7758 266.246V267.945H102.979V266.246H97.7758ZM113.847 265.121V267.652H115.429V268.414H113.847V270.887H112.933V265.121H113.847ZM113.847 271.426V273.734H108.128V274.754H114.234V275.457H107.226V273.055H112.933V272.117H107.202V271.426H113.847ZM111.937 266.105V266.844H105.726V266.105H108.374V265.051H109.288V266.105H111.937ZM108.831 267.312C110.343 267.312 111.327 267.969 111.339 269.023C111.327 270.078 110.343 270.734 108.831 270.734C107.308 270.734 106.312 270.078 106.323 269.023C106.312 267.969 107.308 267.312 108.831 267.312ZM108.831 267.992C107.847 267.992 107.191 268.402 107.202 269.023C107.191 269.656 107.847 270.043 108.831 270.043C109.816 270.043 110.46 269.656 110.472 269.023C110.46 268.402 109.816 267.992 108.831 267.992ZM128.177 266.984V267.746H126.63V269.188H128.177V269.961H126.63V271.883H125.716V265.156H126.63V266.984H128.177ZM123.337 271.953C125.458 271.953 126.747 272.621 126.747 273.758C126.747 274.895 125.458 275.551 123.337 275.551C121.216 275.551 119.915 274.895 119.927 273.758C119.915 272.621 121.216 271.953 123.337 271.953ZM123.337 272.68C121.778 272.68 120.829 273.066 120.841 273.758C120.829 274.438 121.778 274.836 123.337 274.836C124.895 274.836 125.833 274.438 125.833 273.758C125.833 273.066 124.895 272.68 123.337 272.68ZM124.72 266.352V267.078H118.509V266.352H121.157V265.074H122.071V266.352H124.72ZM121.614 267.617C123.114 267.617 124.11 268.344 124.122 269.457C124.11 270.582 123.114 271.297 121.614 271.297C120.102 271.297 119.095 270.582 119.106 269.457C119.095 268.344 120.102 267.617 121.614 267.617ZM121.614 268.309C120.63 268.32 119.973 268.777 119.985 269.457C119.973 270.137 120.63 270.582 121.614 270.582C122.587 270.582 123.243 270.137 123.255 269.457C123.243 268.777 122.587 268.32 121.614 268.309ZM133.783 266.129C133.783 267.594 135.705 268.871 137.58 269.129L137.205 269.879C135.588 269.609 133.988 268.713 133.314 267.43C132.646 268.719 131.041 269.609 129.423 269.879L129.048 269.129C130.923 268.871 132.834 267.617 132.834 266.129V265.531H133.783V266.129ZM138.048 271.027V271.801H133.736V275.574H132.834V271.801H128.556V271.027H138.048ZM149.964 265.168V275.586H149.027V273.02H146.624V272.293H149.027V265.168H149.964ZM141.292 270.688C143.366 270.676 145.945 270.652 148.218 270.418L148.277 271.109C147.251 271.244 146.179 271.332 145.136 271.379V275.258H144.21V271.426C143.226 271.461 142.277 271.473 141.421 271.473L141.292 270.688ZM147.304 265.754V269.492H142.218V265.754H147.304ZM143.12 266.504V268.73H146.402V266.504H143.12ZM159.473 265.156V269.398H161.16V270.172H159.473V275.574H158.559V265.156H159.473ZM156.777 266.281C156.777 269.234 155.395 271.918 151.996 273.594L151.48 272.867C154.176 271.525 155.641 269.521 155.852 267.055H151.961V266.281H156.777ZM169.384 268.262V269.492H173.72V270.254H164.181V269.492H168.482V268.262H169.384ZM172.841 265.484V266.211H169.548C169.625 267.277 171.371 268.057 173.181 268.203L172.877 268.895C171.142 268.73 169.507 268.057 168.951 266.961C168.382 268.057 166.748 268.73 165.002 268.895L164.697 268.203C166.496 268.057 168.242 267.277 168.341 266.211H165.06V265.484H172.841ZM172.818 271.637V272.363H165.084V271.637H168.482V270.652H169.396V271.637H172.818ZM168.939 272.879C170.943 272.879 172.091 273.348 172.091 274.25C172.091 275.164 170.943 275.633 168.939 275.633C166.912 275.633 165.798 275.164 165.798 274.25C165.798 273.348 166.912 272.879 168.939 272.879ZM168.939 273.523C167.533 273.535 166.724 273.77 166.724 274.25C166.724 274.73 167.533 275 168.939 274.988C170.357 275 171.142 274.73 171.154 274.25C171.142 273.77 170.357 273.535 168.939 273.523ZM179.01 265.344C181.33 265.344 182.69 265.977 182.69 267.137C182.69 268.32 181.33 268.953 179.01 268.965C176.69 268.953 175.319 268.32 175.319 267.137C175.319 265.977 176.69 265.344 179.01 265.344ZM179.01 266.035C177.276 266.035 176.268 266.457 176.28 267.137C176.268 267.863 177.276 268.262 179.01 268.262C180.733 268.262 181.752 267.863 181.752 267.137C181.752 266.457 180.733 266.035 179.01 266.035ZM183.756 269.668V270.418H174.264V269.668H183.756ZM182.538 271.32V273.652H176.35V274.73H182.854V275.457H175.436V272.973H181.635V272.023H175.413V271.32H182.538ZM192.585 265.156V269.457H194.167V270.23H192.585V275.574H191.659V265.156H192.585ZM187.499 266.293C187.488 268.777 186.925 271.215 185.038 273.219L184.3 272.691C185.876 271.08 186.509 269.141 186.632 267.066H184.628V266.293H187.499ZM190.359 266.293C190.347 268.766 189.984 271.637 188.038 273.91L187.288 273.395C188.917 271.555 189.409 269.24 189.491 267.066H187.827V266.293H190.359ZM203.945 273.465V274.238H194.406V273.465H196.773V270.652C195.883 270.189 195.344 269.439 195.344 268.496C195.344 266.879 196.926 265.824 199.152 265.812C201.379 265.824 202.961 266.879 202.961 268.496C202.961 269.422 202.439 270.166 201.578 270.629V273.465H203.945ZM199.152 266.574C197.441 266.562 196.234 267.336 196.234 268.496C196.234 269.656 197.441 270.441 199.152 270.441C200.852 270.441 202.07 269.656 202.07 268.496C202.07 267.336 200.852 266.562 199.152 266.574ZM197.676 273.465H200.652V270.98C200.201 271.104 199.697 271.168 199.152 271.168C198.619 271.168 198.121 271.109 197.676 270.992V273.465ZM206.141 272.176C206.153 270.605 206.634 270.125 207.442 269.633C207.923 269.34 208.298 268.871 208.298 268.215C208.298 267.418 207.677 266.914 206.903 266.914C206.235 266.914 205.567 267.312 205.497 268.273H204.43C204.489 266.855 205.567 266.023 206.903 266.023C208.368 266.023 209.329 266.973 209.329 268.262C209.329 269.176 208.895 269.82 208.169 270.266C207.442 270.711 207.173 271.156 207.149 272.176V272.234H206.141V272.176ZM206.68 274.695C206.27 274.695 205.919 274.355 205.93 273.934C205.919 273.523 206.27 273.184 206.68 273.184C207.091 273.184 207.43 273.523 207.43 273.934C207.43 274.355 207.091 274.695 206.68 274.695Z" fill="black"/>
<path d="M30.3008 311.354V312.115H26.7656V314.84H25.8477V312.115H22.3223V311.354H30.3008ZM29.5391 307.135V307.887H26.7754C26.8291 308.854 28.1475 309.796 29.8125 310.006L29.4805 310.748C28.0742 310.553 26.8779 309.894 26.3164 309C25.7451 309.903 24.5391 310.553 23.1328 310.748L22.791 310.006C24.4561 309.796 25.7842 308.873 25.8477 307.887H23.0742V307.135H25.8477V306.08H26.7656V307.135H29.5391ZM33.7312 308.16C33.7312 309.264 34.5516 310.279 35.8992 310.699L35.45 311.432C34.4441 311.114 33.6824 310.45 33.2918 309.596C32.9012 310.514 32.1443 311.227 31.1141 311.568L30.6648 310.846C32.0027 310.416 32.8133 309.342 32.8133 308.16V307.955H30.909V307.203H32.8133V306.139H33.741V307.203H35.6355V307.955H33.7312V308.16ZM37.9598 306.09V312.604H37.032V309.488H35.3328V308.736H37.032V306.09H37.9598ZM38.1941 313.893V314.645H32.2762V312.027H33.2039V313.893H38.1941Z" fill="#BBBBBB"/>
<path d="M30.8594 324.053V324.827H27.625V327.604H31.9609V328.366H22.4219V327.604H26.7109V324.827H23.5938V320.198H24.5312V324.053H30.8594ZM40.9305 324.944V325.694H33.7234V320.21H40.8133V320.983H34.6609V322.53H40.5906V323.268H34.6609V324.944H40.9305ZM42.032 327.604V328.366H32.493V327.604H42.032ZM52.0914 324.147V324.874H42.5523V324.147H52.0914ZM50.8961 325.706V327.921H44.6383V328.917H51.2359V329.585H43.7125V327.288H49.982V326.397H43.7008V325.706H50.8961ZM50.8609 319.624V321.78H44.7086V322.694H51.0484V323.362H43.7945V321.147H49.9352V320.292H43.7594V319.624H50.8609ZM63.5852 319.987V320.901C63.5852 321.891 63.5852 322.964 63.2922 324.464H64.8391V325.225H60.5383V329.749H59.6125V325.225H55.3469V324.464H62.3547C62.6711 322.964 62.6711 321.868 62.6711 320.901V320.749H56.5422V319.987H63.5852ZM74.9453 324.827V325.577H70.7031V327.616H69.7891V325.577H65.4062V324.827H74.9453ZM73.8789 328.729V329.503H66.625V326.655H67.5391V328.729H73.8789ZM67.5977 319.647V320.983H72.7539V319.647H73.668V323.807H66.6836V319.647H67.5977ZM67.5977 323.057H72.7539V321.686H67.5977V323.057ZM83.5516 319.307V323.608H85.2977V324.37H83.5516V329.725H82.6375V319.307H83.5516ZM81.6297 320.983V321.745H75.4305V320.983H78.1141V319.436H79.0281V320.983H81.6297ZM78.5828 322.612C80.0594 322.612 81.1258 323.596 81.1375 325.003C81.1258 326.409 80.0594 327.393 78.5828 327.393C77.0945 327.393 76.0164 326.409 76.0281 325.003C76.0164 323.596 77.0945 322.612 78.5828 322.612ZM78.5828 323.385C77.6102 323.385 76.8953 324.065 76.907 325.003C76.8953 325.952 77.6102 326.62 78.5828 326.608C79.5438 326.62 80.2469 325.952 80.2586 325.003C80.2469 324.065 79.5438 323.385 78.5828 323.385ZM93.9859 322.471V323.21H86.8492V319.694H87.7633V322.471H93.9859ZM95.0875 324.628V325.378H85.5484V324.628H95.0875ZM94.0445 328.706V329.468H86.7906V326.444H87.7047V328.706H94.0445ZM107.835 324.464V325.225H98.343V324.464H100.698V322.999C99.8664 322.677 99.3977 322.143 99.3977 321.44C99.3977 320.21 100.804 319.507 103.089 319.507C105.351 319.507 106.769 320.21 106.769 321.44C106.769 322.137 106.306 322.671 105.48 322.987V324.464H107.835ZM103.089 326.022C105.327 326.022 106.663 326.667 106.675 327.862C106.663 329.046 105.327 329.702 103.089 329.702C100.827 329.702 99.4914 329.046 99.4914 327.862C99.4914 326.667 100.827 326.022 103.089 326.022ZM103.089 326.725C101.413 326.737 100.417 327.147 100.429 327.862C100.417 328.565 101.413 328.987 103.089 328.987C104.741 328.987 105.749 328.565 105.749 327.862C105.749 327.147 104.741 326.737 103.089 326.725ZM103.089 320.233C101.39 320.233 100.335 320.69 100.347 321.44C100.335 322.202 101.39 322.647 103.089 322.647C104.777 322.647 105.831 322.202 105.831 321.44C105.831 320.69 104.777 320.233 103.089 320.233ZM101.613 324.464H104.566V323.245C104.126 323.321 103.634 323.362 103.089 323.362C102.544 323.362 102.052 323.321 101.613 323.245V324.464ZM111.215 320.116C112.633 320.128 113.652 321.341 113.805 323.292H116.137V319.307H117.051V329.749H116.137V324.053H113.816C113.705 326.093 112.668 327.37 111.215 327.37C109.68 327.37 108.602 325.964 108.602 323.749C108.602 321.534 109.68 320.128 111.215 320.116ZM111.215 320.936C110.184 320.948 109.48 322.05 109.48 323.749C109.48 325.448 110.184 326.55 111.215 326.55C112.234 326.55 112.949 325.448 112.949 323.749C112.949 322.05 112.234 320.948 111.215 320.936ZM127.989 323.69V324.428H118.485V323.69H127.989ZM126.852 322.085V322.835H119.751V319.671H126.747V320.409H120.677V322.085H126.852ZM126.759 325.366V327.78H120.571V328.858H127.075V329.608H119.657V327.089H125.856V326.081H119.634V325.366H126.759ZM137.146 319.307V329.749H136.22V319.307H137.146ZM131.603 320.116C133.15 320.128 134.263 321.534 134.263 323.749C134.263 325.964 133.15 327.37 131.603 327.37C130.045 327.37 128.943 325.964 128.943 323.749C128.943 321.534 130.045 320.128 131.603 320.116ZM131.603 320.936C130.56 320.948 129.834 322.05 129.834 323.749C129.834 325.448 130.56 326.55 131.603 326.55C132.646 326.55 133.373 325.448 133.373 323.749C133.373 322.05 132.646 320.948 131.603 320.936ZM144.14 320.116C145.558 320.128 146.577 321.341 146.73 323.292H149.062V319.307H149.976V329.749H149.062V324.053H146.741C146.63 326.093 145.593 327.37 144.14 327.37C142.605 327.37 141.527 325.964 141.527 323.749C141.527 321.534 142.605 320.128 144.14 320.116ZM144.14 320.936C143.109 320.948 142.405 322.05 142.405 323.749C142.405 325.448 143.109 326.55 144.14 326.55C145.159 326.55 145.874 325.448 145.874 323.749C145.874 322.05 145.159 320.948 144.14 320.936ZM160.035 319.307V329.749H159.121V325.307H156.953V324.534H159.121V322.46H157.035V321.686H159.121V319.307H160.035ZM156.355 320.257V323.96H152.723V326.526C154.287 326.52 155.582 326.462 157.164 326.221L157.246 326.995C155.582 327.253 154.246 327.311 152.582 327.311H151.809V323.21H155.453V321.018H151.773V320.257H156.355ZM170.106 319.319V329.737H169.169V327.147H166.766V326.444H169.169V319.319H170.106ZM161.434 324.803C163.427 324.803 166.063 324.792 168.36 324.464L168.419 325.155C167.387 325.331 166.315 325.436 165.278 325.495V329.409H164.352V325.542C163.35 325.583 162.401 325.589 161.563 325.589L161.434 324.803ZM164.868 319.835C166.415 319.835 167.493 320.667 167.493 321.885C167.493 323.128 166.415 323.925 164.868 323.925C163.309 323.925 162.231 323.128 162.231 321.885C162.231 320.667 163.309 319.835 164.868 319.835ZM164.868 320.55C163.813 320.55 163.087 321.1 163.098 321.885C163.087 322.682 163.813 323.21 164.868 323.21C165.887 323.21 166.626 322.682 166.626 321.885C166.626 321.1 165.887 320.55 164.868 320.55ZM181.091 327.616V328.389H171.552V327.616H173.92V324.803C173.029 324.341 172.49 323.591 172.49 322.647C172.49 321.03 174.072 319.975 176.298 319.964C178.525 319.975 180.107 321.03 180.107 322.647C180.107 323.573 179.586 324.317 178.724 324.78V327.616H181.091ZM176.298 320.725C174.587 320.714 173.38 321.487 173.38 322.647C173.38 323.807 174.587 324.593 176.298 324.593C177.998 324.593 179.216 323.807 179.216 322.647C179.216 321.487 177.998 320.714 176.298 320.725ZM174.822 327.616H177.798V325.132C177.347 325.255 176.843 325.319 176.298 325.319C175.765 325.319 175.267 325.26 174.822 325.143V327.616Z" fill="black"/>
<path d="M25.3691 360.658C25.3691 362.045 26.2773 363.588 27.6055 364.213L27.0781 364.936C26.0967 364.462 25.3203 363.476 24.9297 362.328C24.5244 363.583 23.7041 364.662 22.7031 365.16L22.1562 364.428C23.4844 363.793 24.4512 362.143 24.4512 360.658V359.73H22.4785V358.959H27.2734V359.73H25.3691V360.658ZM29.1387 358.08V361.547H30.5449V362.328H29.1387V366.83H28.2109V358.08H29.1387ZM38.6629 363.021V363.783H36.6316V366.83H35.6941V363.783H33.6043V366.83H32.6473V363.783H30.6551V363.021H38.6629ZM34.6395 358.412C36.4852 358.412 37.7547 359.164 37.7547 360.346C37.7547 361.508 36.4852 362.25 34.6395 362.24C32.784 362.25 31.5242 361.508 31.5242 360.346C31.5242 359.164 32.784 358.412 34.6395 358.412ZM34.6395 359.154C33.3406 359.164 32.4715 359.613 32.4812 360.346C32.4715 361.059 33.3406 361.508 34.6395 361.508C35.9383 361.508 36.8074 361.059 36.8074 360.346C36.8074 359.613 35.9383 359.164 34.6395 359.154Z" fill="#BBBBBB"/>
<path d="M31.0117 371.502V381.944H30.0859V371.502H31.0117ZM25.4688 372.311C27.0156 372.323 28.1289 373.729 28.1289 375.944C28.1289 378.158 27.0156 379.565 25.4688 379.565C23.9102 379.565 22.8086 378.158 22.8086 375.944C22.8086 373.729 23.9102 372.323 25.4688 372.311ZM25.4688 373.131C24.4258 373.143 23.6992 374.244 23.6992 375.944C23.6992 377.643 24.4258 378.744 25.4688 378.744C26.5117 378.744 27.2383 377.643 27.2383 375.944C27.2383 374.244 26.5117 373.143 25.4688 373.131ZM37.5555 372.24V375.287H33.8523V376.963C35.8152 376.963 37.0105 376.91 38.4227 376.67L38.5047 377.444C37.0281 377.678 35.7977 377.725 33.7234 377.725H32.9266V374.537H36.6414V372.99H32.9031V372.24H37.5555ZM41.1297 371.514V379.166H40.2039V375.03H38.2234V374.233H40.2039V371.514H41.1297ZM41.4461 380.924V381.698H34.368V378.58H35.282V380.924H41.4461ZM48.7563 373.19C48.7563 374.608 49.8344 375.908 51.3461 376.424L50.8422 377.151C49.6879 376.729 48.7797 375.867 48.3227 374.783C47.8773 376.008 46.9516 376.975 45.7328 377.444L45.2406 376.705C46.7992 376.119 47.8422 374.725 47.8539 373.119V372.041H48.7563V373.19ZM53.4203 371.502V374.221H54.9906V374.994H53.4203V377.842H52.5063V371.502H53.4203ZM50.0805 378.112C52.225 378.112 53.5141 378.803 53.5141 379.998C53.5141 381.217 52.225 381.897 50.0805 381.897C47.9359 381.897 46.6234 381.217 46.6234 379.998C46.6234 378.803 47.9359 378.112 50.0805 378.112ZM50.0805 378.85C48.5102 378.85 47.5375 379.283 47.5492 379.998C47.5375 380.737 48.5102 381.158 50.0805 381.17C51.6625 381.158 52.6234 380.737 52.6234 379.998C52.6234 379.283 51.6625 378.85 50.0805 378.85ZM63.4797 371.514V374.655H65.0383V375.428H63.4797V378.58H62.5539V371.514H63.4797ZM60.1164 378.709C62.2844 378.698 63.5383 379.272 63.55 380.315C63.5383 381.358 62.2844 381.908 60.1164 381.92C57.9367 381.908 56.6945 381.358 56.6945 380.315C56.6945 379.272 57.9367 378.698 60.1164 378.709ZM60.1164 379.401C58.5109 379.389 57.6086 379.729 57.6203 380.315C57.6086 380.877 58.5109 381.217 60.1164 381.217C61.7102 381.217 62.6125 380.877 62.6125 380.315C62.6125 379.729 61.7102 379.389 60.1164 379.401ZM55.3 377.362C56.1379 377.362 57.1105 377.356 58.1242 377.326V376.494C56.9055 376.395 56.132 375.85 56.132 375.03C56.132 374.104 57.093 373.553 58.5695 373.553C60.0578 373.553 61.007 374.104 61.0187 375.03C61.007 375.844 60.257 376.389 59.0383 376.494V377.28C60.0168 377.239 61.0012 377.162 61.9094 377.033L61.9914 377.678C59.7531 378.065 57.257 378.1 55.4055 378.1L55.3 377.362ZM61.593 372.405V373.119H55.5578V372.405H58.1242V371.42H59.0383V372.405H61.593ZM58.5695 374.198C57.6086 374.198 57.0109 374.526 57.0109 375.03C57.0109 375.557 57.6086 375.873 58.5695 375.873C59.5305 375.873 60.1398 375.557 60.1398 375.03C60.1398 374.526 59.5305 374.198 58.5695 374.198ZM74.3477 371.502V381.92H73.457V371.502H74.3477ZM72.25 371.725V381.393H71.3711V376.33H70.0352C69.9355 378.358 69.0742 379.623 67.7852 379.623C66.4258 379.623 65.5469 378.217 65.5469 376.002C65.5469 373.787 66.4258 372.381 67.7852 372.381C69.0508 372.381 69.9062 373.606 70.0234 375.569H71.3711V371.725H72.25ZM67.7852 373.248C66.9414 373.248 66.4023 374.303 66.4141 376.002C66.4023 377.69 66.9414 378.756 67.7852 378.744C68.6289 378.756 69.168 377.69 69.168 376.002C69.168 374.303 68.6289 373.248 67.7852 373.248ZM79.157 374.303C79.157 376.19 80.3641 378.088 81.8758 378.78L81.325 379.53C80.1414 378.92 79.1629 377.672 78.7 376.19C78.2371 377.748 77.2586 379.084 76.075 379.717L75.4773 378.979C77.0008 378.229 78.2195 376.225 78.2195 374.303V372.405H79.157V374.303ZM84.1258 371.502V381.944H83.2117V375.815H80.7391V375.065H83.2117V371.502H84.1258ZM91.0727 372.311C92.4906 372.323 93.5102 373.535 93.6625 375.487H95.9945V371.502H96.9086V381.944H95.9945V376.248H93.6742C93.5629 378.287 92.5258 379.565 91.0727 379.565C89.5375 379.565 88.4594 378.158 88.4594 375.944C88.4594 373.729 89.5375 372.323 91.0727 372.311ZM91.0727 373.131C90.0414 373.143 89.3383 374.244 89.3383 375.944C89.3383 377.643 90.0414 378.744 91.0727 378.744C92.0922 378.744 92.807 377.643 92.807 375.944C92.807 374.244 92.0922 373.143 91.0727 373.131ZM107.273 377.725V378.44H99.8078V377.725H103.089V376.717H104.003V377.725H107.273ZM103.523 378.92C105.398 378.932 106.488 379.459 106.488 380.42C106.488 381.393 105.398 381.908 103.523 381.92C101.659 381.908 100.558 381.393 100.57 380.42C100.558 379.459 101.659 378.932 103.523 378.92ZM103.523 379.588C102.269 379.6 101.53 379.893 101.53 380.42C101.53 380.959 102.269 381.252 103.523 381.24C104.777 381.252 105.515 380.959 105.515 380.42C105.515 379.893 104.777 379.6 103.523 379.588ZM101.249 372.03V372.768H99.5383V375.557C100.066 375.545 100.698 375.498 101.39 375.334L101.484 376.084C100.499 376.295 99.7141 376.307 99.0813 376.295H98.6359V372.03H101.249ZM104.741 372.03V372.768H102.749V375.569C103.646 375.557 104.343 375.51 105.152 375.323L105.234 376.073C104.273 376.283 103.499 376.307 102.351 376.295H101.835V372.03H104.741ZM107.073 371.502V377.057H106.171V374.408H104.249V373.682H106.171V371.502H107.073ZM117.332 371.502V381.92H116.453V371.502H117.332ZM115.141 371.783V381.393H114.262V376.53H112.059C111.42 377.742 110.418 378.815 108.965 379.67L108.426 379.002C110.693 377.66 111.83 375.78 112 373.6H108.871V372.838H112.914C112.908 373.864 112.744 374.854 112.398 375.78H114.262V371.783H115.141ZM129.259 371.502V375.803H131.005V376.565H129.259V381.92H128.345V371.502H129.259ZM127.338 373.178V373.94H121.138V373.178H123.822V371.631H124.736V373.178H127.338ZM124.291 374.807C125.767 374.807 126.834 375.791 126.845 377.198C126.834 378.604 125.767 379.588 124.291 379.588C122.802 379.588 121.724 378.604 121.736 377.198C121.724 375.791 122.802 374.807 124.291 374.807ZM124.291 375.58C123.318 375.58 122.603 376.26 122.615 377.198C122.603 378.147 123.318 378.815 124.291 378.803C125.252 378.815 125.955 378.147 125.966 377.198C125.955 376.26 125.252 375.58 124.291 375.58ZM134.971 374.303C134.959 376.201 136.26 378.123 137.795 378.815L137.233 379.541C136.049 378.961 135.024 377.737 134.526 376.248C134.039 377.824 133.014 379.137 131.795 379.752L131.209 378.979C132.756 378.264 134.045 376.283 134.057 374.303V372.405H134.971V374.303ZM139.858 371.502V381.944H138.932V371.502H139.858ZM151.089 375.662V376.436H149.402V381.92H148.488V371.502H149.402V375.662H151.089ZM142.687 372.533V378.498C144.21 378.492 145.763 378.375 147.48 378.018L147.597 378.803C145.804 379.166 144.187 379.272 142.605 379.272H141.773V372.533H142.687ZM160.949 379.811V380.584H151.41V379.811H153.777V376.998C152.887 376.535 152.348 375.785 152.348 374.842C152.348 373.225 153.93 372.17 156.156 372.158C158.383 372.17 159.965 373.225 159.965 374.842C159.965 375.768 159.443 376.512 158.582 376.975V379.811H160.949ZM156.156 372.92C154.445 372.908 153.238 373.682 153.238 374.842C153.238 376.002 154.445 376.787 156.156 376.787C157.855 376.787 159.074 376.002 159.074 374.842C159.074 373.682 157.855 372.908 156.156 372.92ZM154.68 379.811H157.656V377.326C157.205 377.449 156.701 377.514 156.156 377.514C155.623 377.514 155.125 377.455 154.68 377.338V379.811ZM163.145 378.522C163.157 376.951 163.637 376.471 164.446 375.979C164.927 375.686 165.302 375.217 165.302 374.561C165.302 373.764 164.68 373.26 163.907 373.26C163.239 373.26 162.571 373.658 162.501 374.619H161.434C161.493 373.201 162.571 372.369 163.907 372.369C165.372 372.369 166.333 373.319 166.333 374.608C166.333 375.522 165.899 376.166 165.173 376.612C164.446 377.057 164.177 377.502 164.153 378.522V378.58H163.145V378.522ZM163.684 381.041C163.274 381.041 162.923 380.701 162.934 380.28C162.923 379.869 163.274 379.53 163.684 379.53C164.095 379.53 164.434 379.869 164.434 380.28C164.434 380.701 164.095 381.041 163.684 381.041Z" fill="black"/>
<rect x="12.5" y="397.5" width="232" height="46" rx="9.5" fill="white" stroke="#BBBBBB"/>
<path d="M25.3691 410.658C25.3691 412.045 26.2773 413.588 27.6055 414.213L27.0781 414.936C26.0967 414.462 25.3203 413.476 24.9297 412.328C24.5244 413.583 23.7041 414.662 22.7031 415.16L22.1562 414.428C23.4844 413.793 24.4512 412.143 24.4512 410.658V409.73H22.4785V408.959H27.2734V409.73H25.3691V410.658ZM29.1387 408.08V411.547H30.5449V412.328H29.1387V416.83H28.2109V408.08H29.1387ZM38.6629 413.021V413.783H36.6316V416.83H35.6941V413.783H33.6043V416.83H32.6473V413.783H30.6551V413.021H38.6629ZM34.6395 408.412C36.4852 408.412 37.7547 409.164 37.7547 410.346C37.7547 411.508 36.4852 412.25 34.6395 412.24C32.784 412.25 31.5242 411.508 31.5242 410.346C31.5242 409.164 32.784 408.412 34.6395 408.412ZM34.6395 409.154C33.3406 409.164 32.4715 409.613 32.4812 410.346C32.4715 411.059 33.3406 411.508 34.6395 411.508C35.9383 411.508 36.8074 411.059 36.8074 410.346C36.8074 409.613 35.9383 409.164 34.6395 409.154Z" fill="#BBBBBB"/>
<path d="M22.7969 431.319L22.7852 430.545L25.6797 427.499C26.6875 426.432 27.168 425.858 27.168 425.073C27.168 424.206 26.4297 423.631 25.4805 423.631C24.4727 423.631 23.8281 424.276 23.8281 425.225H22.832C22.8203 423.725 23.9805 422.717 25.5156 422.717C27.0508 422.717 28.1523 423.749 28.1523 425.073C28.1523 426.022 27.707 426.76 26.207 428.307L24.2617 430.311V430.381H28.3047V431.319H22.7969ZM32.3172 431.436C30.4305 431.436 29.3523 429.854 29.3523 427.077C29.3523 424.323 30.4539 422.717 32.3172 422.717C34.1805 422.717 35.282 424.323 35.282 427.077C35.282 429.854 34.1922 431.436 32.3172 431.436ZM32.3172 430.499C33.5359 430.499 34.2508 429.268 34.2508 427.077C34.2508 424.885 33.5359 423.631 32.3172 423.631C31.0984 423.631 30.3719 424.885 30.3719 427.077C30.3719 429.268 31.0867 430.499 32.3172 430.499ZM39.5055 423.045C39.5055 424.452 40.5719 425.67 42.0953 426.151L41.6031 426.866C40.4371 426.461 39.5289 425.665 39.0836 424.616C38.6324 425.817 37.6715 426.731 36.4234 427.182L35.9547 426.444C37.525 425.905 38.6031 424.604 38.6031 423.045V422.213H39.5055V423.045ZM44.1578 421.85V424.135H45.7281V424.909H44.1578V427.299H43.2437V421.85H44.1578ZM44.1578 427.768V430.252H38.4391V431.401H44.5445V432.151H37.5367V429.549H43.2437V428.506H37.5133V427.768H44.1578ZM54.6859 421.85V427.44H53.7719V421.85H54.6859ZM48.85 427.967V429.233H53.7719V427.967H54.6859V432.127H47.9359V427.967H48.85ZM48.85 431.377H53.7719V429.971H48.85V431.377ZM49.0609 422.366C50.643 422.354 51.7914 423.327 51.7914 424.756C51.7914 426.174 50.643 427.147 49.0609 427.147C47.4789 427.147 46.3305 426.174 46.3305 424.756C46.3305 423.327 47.4789 422.354 49.0609 422.366ZM49.0609 423.139C47.9945 423.127 47.2211 423.807 47.2328 424.756C47.2211 425.706 47.9945 426.385 49.0609 426.385C50.1156 426.385 50.8891 425.706 50.8891 424.756C50.8891 423.807 50.1156 423.127 49.0609 423.139ZM64.7453 421.85V432.268H63.8312V421.85H64.7453ZM57.7375 422.881V428.788C59.3254 428.782 60.9719 428.653 62.718 428.284L62.8469 429.069C60.9953 429.456 59.343 429.584 57.6789 429.584H56.8352V422.881H57.7375ZM74.2891 421.85V425.975H76.0352V426.749H74.2891V432.292H73.375V421.85H74.2891ZM71.5469 422.87V423.631H67.5977V428.905C69.4844 428.905 70.8203 428.817 72.3672 428.53L72.4844 429.327C70.8555 429.62 69.4844 429.678 67.5039 429.678H66.6836V422.87H71.5469ZM77.3992 431.389C76.9891 431.389 76.6375 431.049 76.6492 430.627C76.6375 430.217 76.9891 429.877 77.3992 429.877C77.8094 429.877 78.1492 430.217 78.1492 430.627C78.1492 431.049 77.8094 431.389 77.3992 431.389ZM84.5336 422.659C85.9516 422.67 86.9711 423.883 87.1234 425.834H89.4555V421.85H90.3695V432.292H89.4555V426.596H87.1352C87.0238 428.635 85.9867 429.913 84.5336 429.913C82.9984 429.913 81.9203 428.506 81.9203 426.292C81.9203 424.077 82.9984 422.67 84.5336 422.659ZM84.5336 423.479C83.5023 423.491 82.7992 424.592 82.7992 426.292C82.7992 427.991 83.5023 429.092 84.5336 429.092C85.5531 429.092 86.268 427.991 86.268 426.292C86.268 424.592 85.5531 423.491 84.5336 423.479ZM101.331 427.627V428.389H91.7922V427.627H101.331ZM100.323 431.272V432.045H93.0578V429.209H93.9836V431.272H100.323ZM100.101 422.213V424.78H93.9484V425.94H100.323V426.667H93.0344V424.088H99.175V422.952H92.9992V422.213H100.101ZM110.465 421.85V432.292H109.539V421.85H110.465ZM104.922 422.659C106.469 422.67 107.582 424.077 107.582 426.292C107.582 428.506 106.469 429.913 104.922 429.913C103.363 429.913 102.262 428.506 102.262 426.292C102.262 424.077 103.363 422.67 104.922 422.659ZM104.922 423.479C103.879 423.491 103.152 424.592 103.152 426.292C103.152 427.991 103.879 429.092 104.922 429.092C105.965 429.092 106.691 427.991 106.691 426.292C106.691 424.592 105.965 423.491 104.922 423.479ZM117.22 422.764V423.69H119.657V421.862H120.583V429.467H119.657V426.69H117.22V427.627H112.438V422.764H117.22ZM113.352 423.526V426.889H116.317V423.526H113.352ZM120.817 431.272V432.045H113.845V428.788H114.77V431.272H120.817ZM117.22 425.928H119.657V424.463H117.22V425.928ZM134.42 423.678V424.44H132.873V425.881H134.42V426.655H132.873V428.577H131.959V421.85H132.873V423.678H134.42ZM129.58 428.647C131.702 428.647 132.991 429.315 132.991 430.452C132.991 431.588 131.702 432.245 129.58 432.245C127.459 432.245 126.159 431.588 126.17 430.452C126.159 429.315 127.459 428.647 129.58 428.647ZM129.58 429.374C128.022 429.374 127.073 429.76 127.084 430.452C127.073 431.131 128.022 431.53 129.58 431.53C131.139 431.53 132.077 431.131 132.077 430.452C132.077 429.76 131.139 429.374 129.58 429.374ZM130.963 423.045V423.772H124.752V423.045H127.401V421.768H128.315V423.045H130.963ZM127.858 424.311C129.358 424.311 130.354 425.038 130.366 426.151C130.354 427.276 129.358 427.991 127.858 427.991C126.346 427.991 125.338 427.276 125.35 426.151C125.338 425.038 126.346 424.311 127.858 424.311ZM127.858 425.002C126.873 425.014 126.217 425.471 126.229 426.151C126.217 426.831 126.873 427.276 127.858 427.276C128.83 427.276 129.487 426.831 129.498 426.151C129.487 425.471 128.83 425.014 127.858 425.002ZM140.027 422.823C140.027 424.288 141.948 425.565 143.823 425.823L143.448 426.573C141.831 426.303 140.232 425.407 139.558 424.124C138.89 425.413 137.284 426.303 135.667 426.573L135.292 425.823C137.167 425.565 139.077 424.311 139.077 422.823V422.225H140.027V422.823ZM144.292 427.721V428.495H139.98V432.268H139.077V428.495H134.8V427.721H144.292ZM155.997 422.319V422.764C155.997 423.409 155.997 424.487 155.692 425.928L154.79 425.811C155.048 424.586 155.089 423.696 155.095 423.069H152.47V422.319H155.997ZM157.075 426.807V427.569H147.595V426.807H152.083V424.709H152.997V426.807H157.075ZM155.891 428.682V432.209H154.954V429.432H148.626V428.682H155.891ZM151.591 422.319V422.67C151.591 423.268 151.591 424.405 151.11 425.94L150.231 425.811C150.595 424.575 150.671 423.672 150.688 423.069H148.415V422.319H151.591ZM169.155 421.85V432.268H168.229V426.444H166.377V425.635H168.229V421.85H169.155ZM162.721 425.167C162.709 426.209 162.914 427.75 163.764 428.788C164.59 427.78 164.772 426.268 164.772 425.167V422.788H165.663V425.167C165.651 426.526 166.002 428.319 167.303 429.233L166.717 429.901C165.926 429.333 165.469 428.407 165.229 427.393C164.989 428.43 164.549 429.403 163.752 429.983C162.95 429.397 162.504 428.413 162.276 427.393C162.024 428.389 161.579 429.309 160.834 429.877L160.213 429.233C161.479 428.295 161.842 426.479 161.854 425.167V422.788H162.721V425.167ZM173.226 422.659C174.761 422.67 175.851 424.077 175.863 426.292C175.851 428.506 174.761 429.913 173.226 429.913C171.679 429.913 170.601 428.506 170.601 426.292C170.601 424.077 171.679 422.67 173.226 422.659ZM173.226 423.479C172.195 423.491 171.468 424.592 171.468 426.292C171.468 427.991 172.195 429.092 173.226 429.092C174.269 429.092 174.972 427.991 174.972 426.292C174.972 424.592 174.269 423.491 173.226 423.479ZM180.187 424.475V425.26H178.499V427.581H180.187V428.354H178.499V432.268H177.585V421.85H178.499V424.475H180.187ZM188.57 421.85V426.151H190.316V426.913H188.57V432.268H187.656V421.85H188.57ZM186.648 423.526V424.288H180.449V423.526H183.133V421.979H184.047V423.526H186.648ZM183.602 425.155C185.078 425.155 186.145 426.139 186.156 427.545C186.145 428.952 185.078 429.936 183.602 429.936C182.113 429.936 181.035 428.952 181.047 427.545C181.035 426.139 182.113 425.155 183.602 425.155ZM183.602 425.928C182.629 425.928 181.914 426.608 181.926 427.545C181.914 428.495 182.629 429.163 183.602 429.151C184.562 429.163 185.266 428.495 185.277 427.545C185.266 426.608 184.562 425.928 183.602 425.928ZM200.329 426.01V426.784H198.641V432.268H197.727V421.85H198.641V426.01H200.329ZM191.927 422.881V428.846C193.45 428.84 195.003 428.723 196.72 428.366L196.837 429.151C195.044 429.514 193.427 429.62 191.845 429.62H191.012V422.881H191.927ZM210.189 430.159V430.932H200.65V430.159H203.017V427.346C202.127 426.883 201.587 426.133 201.587 425.19C201.587 423.573 203.17 422.518 205.396 422.506C207.623 422.518 209.205 423.573 209.205 425.19C209.205 426.116 208.683 426.86 207.822 427.323V430.159H210.189ZM205.396 423.268C203.685 423.256 202.478 424.03 202.478 425.19C202.478 426.35 203.685 427.135 205.396 427.135C207.095 427.135 208.314 426.35 208.314 425.19C208.314 424.03 207.095 423.256 205.396 423.268ZM203.92 430.159H206.896V427.674C206.445 427.797 205.941 427.862 205.396 427.862C204.863 427.862 204.365 427.803 203.92 427.686V430.159ZM212.385 428.87C212.397 427.299 212.877 426.819 213.686 426.327C214.166 426.034 214.541 425.565 214.541 424.909C214.541 424.112 213.92 423.608 213.147 423.608C212.479 423.608 211.811 424.006 211.741 424.967H210.674C210.733 423.549 211.811 422.717 213.147 422.717C214.612 422.717 215.573 423.667 215.573 424.956C215.573 425.87 215.139 426.514 214.413 426.959C213.686 427.405 213.416 427.85 213.393 428.87V428.928H212.385V428.87ZM212.924 431.389C212.514 431.389 212.163 431.049 212.174 430.627C212.163 430.217 212.514 429.877 212.924 429.877C213.334 429.877 213.674 430.217 213.674 430.627C213.674 431.049 213.334 431.389 212.924 431.389Z" fill="black"/>
<path d="M13.1997 84V72.6875H14.9184V77.5938H20.5434V72.6875H22.2622V84H20.5434V79.0625H14.9184V84H13.1997ZM24.1667 84V72.6875H28.1979C30.8229 72.6875 32.1198 74.2656 32.1198 76.3594C32.1198 78.4375 30.8229 80.0312 28.1979 80.0312H25.8854V84H24.1667ZM25.8854 78.5625H28.0261C29.6979 78.5625 30.3854 77.625 30.3854 76.3594C30.3854 75.0781 29.6979 74.1562 28.0261 74.1562H25.8854V78.5625ZM36.9306 84.1719C34.4306 84.1719 32.8993 82.4531 32.8993 79.8125C32.8993 77.2031 34.4618 75.4062 36.8212 75.4062C38.7587 75.4062 40.5868 76.6094 40.5868 79.6719V80.2656H34.5556C34.6024 81.875 35.5478 82.7969 36.9462 82.7969C37.8993 82.7969 38.5087 82.3906 38.7899 81.875H40.4774C40.1024 83.25 38.7899 84.1719 36.9306 84.1719ZM34.5712 79.0156H38.9462C38.9462 77.7188 38.1181 76.7812 36.8368 76.7812C35.5009 76.7812 34.6337 77.8125 34.5712 79.0156ZM45.0069 84.1719C42.9601 84.1719 41.4601 82.5156 41.4601 79.7812C41.4601 77.0156 42.9757 75.4062 45.0226 75.4062C46.6007 75.4062 47.1788 76.3594 47.4757 76.8906H47.5538V72.6875H49.2257V84H47.6007V82.6719H47.4757C47.1632 83.2344 46.5538 84.1719 45.0069 84.1719ZM45.3819 82.75C46.8038 82.75 47.6007 81.5312 47.6007 79.75C47.6007 77.9844 46.8194 76.8281 45.3819 76.8281C43.8976 76.8281 43.1632 78.0781 43.1632 79.75C43.1632 81.4531 43.9288 82.75 45.3819 82.75ZM50.9896 84V75.5156H52.6614V84H50.9896ZM51.8333 74.2031C51.2552 74.2031 50.7708 73.7656 50.7708 73.2188C50.7708 72.6719 51.2552 72.2344 51.8333 72.2344C52.3958 72.2344 52.8802 72.6719 52.8802 73.2188C52.8802 73.7656 52.3958 74.2031 51.8333 74.2031ZM53.8941 81.6094C53.8941 79.6719 55.5347 79.1719 57.0659 79.0625C57.6284 79.0234 58.9019 78.9531 59.3003 78.9375L59.2847 78.2656C59.2847 77.3125 58.7066 76.75 57.5659 76.75C56.5816 76.75 55.9878 77.2031 55.8159 77.8281H54.1597C54.3159 76.4219 55.6284 75.4062 57.6284 75.4062C58.9722 75.4062 60.9566 75.9062 60.9566 78.3594V84H59.3316V82.8438H59.2691C58.9409 83.4844 58.1597 84.1875 56.7534 84.1875C55.1441 84.1875 53.8941 83.2656 53.8941 81.6094ZM55.5191 81.625C55.5191 82.4375 56.1909 82.8594 57.1284 82.8594C58.4878 82.8594 59.3003 81.9531 59.3003 80.9375V80.1562L57.3003 80.2969C56.2066 80.375 55.5191 80.7812 55.5191 81.625Z" fill="black"/>
<path d="M92 97.375H167V184.875H92V97.375Z" fill="black"/>
<path d="M110.965 111.477V112.531H107.836V115.098H112.031V116.152H102.352V115.098H106.523V112.531H103.465V107.668H104.801V111.477H110.965ZM121.036 112.379V113.41H113.606V107.656H120.942V108.711H114.93V109.988H120.696V111.008H114.93V112.379H121.036ZM122.102 115.062V116.129H112.423V115.062H122.102Z" fill="white"/>
<path d="M104.052 156.75L102.279 150.917H103.257L104.503 155.364H104.557L105.792 150.917H106.78L107.994 155.343H108.059L109.305 150.917H110.271L108.499 156.75H107.586L106.318 152.303H106.232L104.976 156.75H104.052ZM113.183 156.868C111.594 156.868 110.519 155.676 110.519 153.86C110.519 152.045 111.594 150.842 113.183 150.842C114.762 150.842 115.826 152.045 115.826 153.86C115.826 155.676 114.762 156.868 113.183 156.868ZM113.183 156.052C114.354 156.052 114.902 155.021 114.902 153.86C114.902 152.7 114.354 151.658 113.183 151.658C111.991 151.658 111.443 152.7 111.443 153.86C111.443 155.021 111.991 156.052 113.183 156.052ZM119.125 156.868C117.535 156.868 116.461 155.676 116.461 153.86C116.461 152.045 117.535 150.842 119.125 150.842C120.704 150.842 121.767 152.045 121.767 153.86C121.767 155.676 120.704 156.868 119.125 156.868ZM119.125 156.052C120.296 156.052 120.843 155.021 120.843 153.86C120.843 152.7 120.296 151.658 119.125 151.658C117.932 151.658 117.384 152.7 117.384 153.86C117.384 155.021 117.932 156.052 119.125 156.052ZM124.883 156.868C123.433 156.868 122.402 155.697 122.402 153.85C122.402 152.002 123.433 150.842 124.894 150.842C126.022 150.842 126.387 151.529 126.58 151.841H126.645V148.973H127.579V156.75H126.677V155.858H126.58C126.376 156.181 126 156.868 124.883 156.868ZM125.012 156.041C126.076 156.041 126.677 155.139 126.677 153.828C126.677 152.539 126.097 151.669 125.012 151.669C123.895 151.669 123.336 152.614 123.336 153.828C123.336 155.074 123.906 156.041 125.012 156.041ZM129.471 158.941C129.267 158.941 129.073 158.931 128.955 158.92V158.093C129.052 158.104 129.267 158.114 129.406 158.114C129.782 158.114 130.094 158.082 130.405 157.233L130.577 156.793L128.418 150.917H129.428L131.018 155.547H131.082L132.672 150.917H133.682L131.211 157.588C130.867 158.501 130.298 158.941 129.471 158.941ZM111.12 170.549V171.258H107.135V174.62H106.308V171.258H102.376V170.549H111.12ZM106.727 165.457C108.735 165.457 110.089 166.263 110.089 167.562C110.089 168.83 108.735 169.636 106.727 169.636C104.718 169.636 103.364 168.83 103.364 167.562C103.364 166.263 104.718 165.457 106.727 165.457ZM106.727 166.145C105.233 166.145 104.224 166.703 104.234 167.562C104.224 168.411 105.233 168.959 106.727 168.959C108.209 168.959 109.229 168.411 109.229 167.562C109.229 166.703 108.209 166.145 106.727 166.145ZM119.468 165.07V174.642H118.619V165.07H119.468ZM116.761 165.983V166.692H113.065V171.537C114.924 171.537 116.148 171.478 117.577 171.226L117.663 171.935C116.18 172.203 114.924 172.257 112.99 172.268H112.217V165.983H116.761Z" fill="white"/>
<path d="M213.549 225.571V231.938H212.777V228.608H210.99V227.973H212.777V225.571H213.549ZM213.793 233.412V234.057H207.973V231.362H208.744V233.412H213.793ZM209.369 227.358C209.369 228.481 210.238 229.575 211.508 230.004L211.107 230.62C210.126 230.268 209.369 229.536 208.998 228.637C208.622 229.638 207.821 230.439 206.791 230.825L206.391 230.2C207.67 229.75 208.598 228.608 208.598 227.358V226.909H206.635V226.274H211.312V226.909H209.369V227.358ZM217.233 228.237C217.233 229.633 217.946 231.059 219.128 231.694L218.688 232.27C217.824 231.801 217.199 230.903 216.882 229.858C216.569 230.971 215.949 231.938 215.085 232.465L214.626 231.879C215.807 231.196 216.501 229.672 216.511 228.237V227.807H214.86V227.172H216.511V225.883H217.243V227.172H218.864V227.807H217.233V228.237ZM222.116 225.561V234.243H221.384V225.561H222.116ZM220.358 225.776V233.793H219.636V229.643H218.268V228.989H219.636V225.776H220.358ZM230.986 232.495V233.129H223.037V232.495H226.611V230.62H223.974V226.176H224.746V227.748H229.257V226.176H230.009V230.62H227.363V232.495H230.986ZM224.746 229.995H229.257V228.373H224.746V229.995ZM238.557 225.561V234.243H237.786V225.561H238.557ZM235.989 226.508C235.979 229.008 234.817 231.215 231.907 232.612L231.487 231.987C233.835 230.873 235.032 229.208 235.207 227.133H231.887V226.508H235.989Z" fill="black"/>
<path d="M23.8786 28.7231C26.4352 28.7231 28.6599 30.541 28.6599 34.8574V34.874C28.6599 38.9082 26.842 41.2988 23.8288 41.2988C21.6291 41.2988 19.9855 39.9956 19.6037 38.1611L19.5871 38.0698H21.6955L21.7204 38.1528C22.0358 38.9912 22.7746 39.5391 23.8288 39.5391C25.7297 39.5391 26.5349 37.6797 26.6262 35.3887C26.6262 35.2974 26.6345 35.2061 26.6345 35.1147H26.4684C26.0285 36.061 24.9826 36.8994 23.3391 36.8994C21.0397 36.8994 19.4294 35.2227 19.4294 32.9482V32.9316C19.4294 30.4995 21.2805 28.7231 23.8786 28.7231ZM23.8703 35.2559C25.2233 35.2559 26.2609 34.2764 26.2609 32.9233V32.9067C26.2609 31.5371 25.2233 30.4663 23.8952 30.4663C22.5754 30.4663 21.5212 31.5205 21.5212 32.8569V32.8735C21.5212 34.2598 22.509 35.2559 23.8703 35.2559ZM32.0204 33.2388C31.265 33.2388 30.7006 32.6577 30.7006 31.9272C30.7006 31.1885 31.265 30.6157 32.0204 30.6157C32.7841 30.6157 33.3402 31.1885 33.3402 31.9272C33.3402 32.6577 32.7841 33.2388 32.0204 33.2388ZM32.0204 39.3979C31.265 39.3979 30.7006 38.8252 30.7006 38.0864C30.7006 37.3477 31.265 36.7749 32.0204 36.7749C32.7841 36.7749 33.3402 37.3477 33.3402 38.0864C33.3402 38.8252 32.7841 39.3979 32.0204 39.3979ZM41.1915 41V38.7007H35.3312V36.9492C36.8834 34.2515 38.5851 31.4956 40.212 29.022H43.2418V36.9326H44.8522V38.7007H43.2418V41H41.1915ZM37.3233 36.9824H41.2247V30.7319H41.1002C39.8717 32.6079 38.4855 34.8242 37.3233 36.8579V36.9824ZM49.408 41V31.1304H49.2669L46.2869 33.2388V31.2217L49.4163 29.022H51.5496V41H49.408Z" fill="black"/>
<path opacity="0.35" d="M222.163 31.8108C222.163 29.893 223.718 28.3383 225.636 28.3383H241.69C243.607 28.3383 245.162 29.893 245.162 31.8108V36.3188C245.162 38.2366 243.607 39.7912 241.69 39.7912H225.636C223.718 39.7912 222.163 38.2366 222.163 36.3188V31.8108Z" stroke="black" stroke-width="1.05509"/>
<path opacity="0.4" d="M246.651 32.6216V36.6822C247.468 36.3383 248 35.5383 248 34.6519C248 33.7655 247.468 32.9655 246.651 32.6216Z" fill="black"/>
<path d="M223.56 31.7351C223.56 30.6305 224.455 29.7351 225.56 29.7351H241.765C242.869 29.7351 243.765 30.6305 243.765 31.7351V36.3945C243.765 37.499 242.869 38.3945 241.765 38.3945H225.56C224.455 38.3945 223.56 37.499 223.56 36.3945V31.7351Z" fill="black"/>
<path fill-rule="evenodd" clip-rule="evenodd" d="M206.723 31.2625C209.096 31.2627 211.378 32.1935 213.098 33.8626C213.228 33.9914 213.435 33.9898 213.562 33.8589L214.8 32.5835C214.865 32.5171 214.901 32.4272 214.901 32.3336C214.9 32.2401 214.863 32.1506 214.798 32.085C210.283 27.6689 203.161 27.6689 198.647 32.085C198.582 32.1506 198.545 32.24 198.544 32.3336C198.543 32.4271 198.579 32.5171 198.644 32.5835L199.882 33.8589C200.01 33.99 200.217 33.9916 200.346 33.8626C202.067 32.1933 204.349 31.2625 206.723 31.2625ZM206.757 35.1928C208.061 35.1927 209.318 35.6874 210.285 36.5808C210.415 36.7076 210.621 36.7048 210.749 36.5746L211.985 35.2992C212.051 35.2323 212.087 35.1415 212.086 35.0472C212.085 34.9529 212.047 34.8629 211.98 34.7974C209.037 32.0027 204.479 32.0027 201.536 34.7974C201.469 34.8629 201.431 34.953 201.431 35.0473C201.43 35.1416 201.466 35.2324 201.531 35.2992L202.767 36.5746C202.895 36.7048 203.101 36.7076 203.232 36.5808C204.197 35.688 205.454 35.1933 206.757 35.1928ZM209.272 37.762C209.274 37.8566 209.237 37.9478 209.171 38.014L207.032 40.2176C206.969 40.2824 206.884 40.3188 206.794 40.3188C206.705 40.3188 206.62 40.2824 206.557 40.2176L204.418 38.014C204.351 37.9477 204.315 37.8565 204.317 37.762C204.319 37.6674 204.359 37.5778 204.428 37.5145C205.794 36.335 207.795 36.335 209.161 37.5145C209.23 37.5779 209.27 37.6675 209.272 37.762Z" fill="black"/>
<path d="M183.15 31.6594C183.15 31.128 183.581 30.6973 184.112 30.6973H185.074C185.606 30.6973 186.036 31.128 186.036 31.6594V39.3566C186.036 39.888 185.606 40.3188 185.074 40.3188H184.112C183.581 40.3188 183.15 39.888 183.15 39.3566V31.6594Z" fill="black"/>
<path d="M187.961 29.7351C187.961 29.2037 188.391 28.7729 188.923 28.7729H189.885C190.416 28.7729 190.847 29.2037 190.847 29.7351V39.3566C190.847 39.888 190.416 40.3188 189.885 40.3188H188.923C188.391 40.3188 187.961 39.888 187.961 39.3566V29.7351Z" fill="black"/>
<path d="M178.339 35.0269C178.339 34.4956 178.77 34.0648 179.301 34.0648H180.263C180.795 34.0648 181.226 34.4956 181.226 35.0269V39.3566C181.226 39.888 180.795 40.3188 180.263 40.3188H179.301C178.77 40.3188 178.339 39.888 178.339 39.3566V35.0269Z" fill="black"/>
<path d="M173.528 37.4323C173.528 36.9009 173.959 36.4702 174.49 36.4702H175.453C175.984 36.4702 176.415 36.9009 176.415 37.4323V39.3566C176.415 39.888 175.984 40.3188 175.453 40.3188H174.49C173.959 40.3188 173.528 39.888 173.528 39.3566V37.4323Z" fill="black"/>
<defs>
<filter id="filter0_d_3365_3228" x="0" y="0" width="293" height="500" filterUnits="userSpaceOnUse" color-interpolation-filters="sRGB">
<feFlood flood-opacity="0" result="BackgroundImageFix"/>
<feColorMatrix in="SourceAlpha" type="matrix" values="0 0 0 0 0 0 0 0 0 0 0 0 0 0 0 0 0 0 127 0" result="hardAlpha"/>
<feOffset dx="20" dy="20"/>
<feGaussianBlur stdDeviation="7.5"/>
<feComposite in2="hardAlpha" operator="out"/>
<feColorMatrix type="matrix" values="0 0 0 0 0 0 0 0 0 0 0 0 0 0 0 0 0 0 0.05 0"/>
<feBlend mode="normal" in2="BackgroundImageFix" result="effect1_dropShadow_3365_3228"/>
<feBlend mode="normal" in="SourceGraphic" in2="effect1_dropShadow_3365_3228" result="shape"/>
</filter>
</defs>
</svg>
