<svg width="200" height="100" viewBox="0 0 200 100" fill="none" xmlns="http://www.w3.org/2000/svg">
<path d="M34.1382 55.1814H32.3461V50.5847H27.7142V55.1814H25.915V44.8168H27.7142V49.1313H32.3461V44.8168H34.1382V55.1814Z" fill="black"/>
<path d="M74.1397 44.8168L77.1277 52.7614L80.1087 44.8168H82.437V55.1814H80.6449V51.7665L80.8213 47.1981L77.7592 55.1849H76.4715L73.4165 47.2051L73.5929 51.7665V55.1814H71.8008V44.8168H74.1361H74.1397Z" fill="black"/>
<path d="M128.379 50.2708C128.379 51.2868 128.203 52.1758 127.854 52.9448C127.501 53.7103 127 54.2995 126.347 54.7087C125.695 55.1179 124.943 55.3261 124.093 55.3261C123.243 55.3261 122.505 55.1214 121.846 54.7087C121.19 54.2995 120.682 53.7139 120.322 52.9554C119.962 52.1969 119.782 51.322 119.778 50.3272V49.7451C119.778 48.7326 119.958 47.8437 120.315 47.0675C120.671 46.2914 121.179 45.7023 121.832 45.2931C122.484 44.8839 123.232 44.6757 124.079 44.6757C124.925 44.6757 125.673 44.8803 126.326 45.2825C126.979 45.6882 127.483 46.2703 127.839 47.0323C128.196 47.7943 128.376 48.6797 128.379 49.6922V50.2672V50.2708ZM126.58 49.731C126.58 48.5845 126.361 47.7025 125.927 47.0887C125.493 46.4749 124.876 46.1715 124.079 46.1715C123.282 46.1715 122.692 46.4749 122.255 47.0852C121.818 47.6955 121.592 48.5563 121.581 49.671V50.2672C121.581 51.4067 121.803 52.2851 122.248 52.9095C122.692 53.5304 123.306 53.8409 124.096 53.8409C124.887 53.8409 125.508 53.5375 125.938 52.9307C126.368 52.3239 126.584 51.4349 126.584 50.2672V49.7275L126.58 49.731Z" fill="black"/>
<path d="M171.362 52.7684H167.347L166.507 55.1814H164.634L168.55 44.8168H170.166L174.089 55.1814H172.208L171.362 52.7684ZM167.851 51.315H170.854L169.351 47.0146L167.848 51.315H167.851Z" fill="black"/>
</svg>
