<svg width="12" height="12" viewBox="0 0 12 12" fill="none" xmlns="http://www.w3.org/2000/svg">
<g clip-path="url(#clip0_2680_3948)">
<path d="M6 11.3317L5.5 10.8817C4.41111 9.88166 3.51111 9.02877 2.8 8.32299C2.08889 7.61766 1.52511 6.99544 1.10867 6.45633C0.691778 5.91766 0.402667 5.42877 0.241333 4.98966C0.0804444 4.55099 0 4.10944 0 3.66499C0 2.82055 0.288889 2.10944 0.866667 1.53166C1.44444 0.953882 2.15556 0.664993 3 0.664993C3.58889 0.664993 4.13889 0.814993 4.65 1.11499C5.16111 1.41499 5.61111 1.85388 6 2.43166C6.38889 1.85388 6.83889 1.41499 7.35 1.11499C7.86111 0.814993 8.41111 0.664993 9 0.664993C9.84445 0.664993 10.5556 0.953882 11.1333 1.53166C11.7111 2.10944 12 2.82055 12 3.66499C12 4.10944 11.9196 4.55099 11.7587 4.98966C11.5973 5.42877 11.3084 5.91766 10.892 6.45633C10.4751 6.99544 9.91378 7.61766 9.208 8.32299C8.50267 9.02877 7.6 9.88166 6.5 10.8817L6 11.3317ZM6 10.4317C7.06667 9.46499 7.94444 8.63722 8.63333 7.94833C9.32222 7.25944 9.86667 6.66211 10.2667 6.15633C10.6667 5.65099 10.9444 5.20388 11.1 4.81499C11.2556 4.42611 11.3333 4.04277 11.3333 3.66499C11.3333 2.99833 11.1111 2.44277 10.6667 1.99833C10.2222 1.55388 9.66667 1.33166 9 1.33166C8.46667 1.33166 7.97511 1.48433 7.52533 1.78966C7.07511 2.09544 6.67778 2.54833 6.33333 3.14833H5.66667C5.31111 2.53722 4.91111 2.08166 4.46667 1.78166C4.02222 1.48166 3.53333 1.33166 3 1.33166C2.34444 1.33166 1.79178 1.55388 1.342 1.99833C0.891778 2.44277 0.666667 2.99833 0.666667 3.66499C0.666667 4.04277 0.744444 4.42611 0.9 4.81499C1.05556 5.20388 1.33333 5.65099 1.73333 6.15633C2.13333 6.66211 2.67778 7.25655 3.36667 7.93966C4.05556 8.62322 4.93333 9.45388 6 10.4317Z" fill="black"/>
</g>
<defs>
<clipPath id="clip0_2680_3948">
<rect width="12" height="12" fill="white"/>
</clipPath>
</defs>
</svg>
