<svg width="21" height="20" viewBox="0 0 21 20" fill="none" xmlns="http://www.w3.org/2000/svg">
<path d="M15.5 18.5V1.5C15.9667 1.5 16.3333 1.62083 16.6 1.8625C16.8667 2.10417 17 2.48333 17 3V17C17 17.5167 16.8667 17.8958 16.6 18.1375C16.3333 18.3792 15.9667 18.5 15.5 18.5ZM1.5 20C1.08333 20 0.729167 19.8542 0.4375 19.5625C0.145833 19.2708 0 18.9167 0 18.5V1.5C0 1.08333 0.145833 0.729167 0.4375 0.4375C0.729167 0.145833 1.08333 0 1.5 0H11.5C11.9167 0 12.2708 0.145833 12.5625 0.4375C12.8542 0.729167 13 1.08333 13 1.5V18.5C13 18.9167 12.8542 19.2708 12.5625 19.5625C12.2708 19.8542 11.9167 20 11.5 20H1.5ZM19.5 16.975V3.05C19.8333 3.05 20.0833 3.12083 20.25 3.2625C20.4167 3.40417 20.5 3.66667 20.5 4.05V15.975C20.5 16.3583 20.4167 16.6208 20.25 16.7625C20.0833 16.9042 19.8333 16.975 19.5 16.975Z" fill="#BBBBBB"/>
</svg>
