<svg width="24" height="24" viewBox="0 0 24 24" fill="none" xmlns="http://www.w3.org/2000/svg">
<path d="M14.3333 15L4.66667 15V13.6667L14.3333 13.6667V15ZM19.3333 11H4.66667V9.66667H19.3333V11ZM19.3333 7H4.66667V5.66667H19.3333V7ZM24 23.7667V3.16667C24 2.54444 23.7942 2.02756 23.3827 1.616C22.972 1.20533 22.4556 1 21.8333 1H2.16667C1.54445 1 1.02755 1.20533 0.615999 1.616C0.205332 2.02756 0 2.54444 0 3.16667V17.5C0 18.1222 0.205332 18.6391 0.615999 19.0507C1.02755 19.4613 1.54445 19.6667 2.16667 19.6667H19.9L24 23.7667ZM22.6667 20.5333L20.4667 18.3333H2.16667C1.92222 18.3333 1.72222 18.2556 1.56667 18.1C1.41111 17.9444 1.33333 17.7444 1.33333 17.5V3.16667C1.33333 2.92222 1.41111 2.72222 1.56667 2.56667C1.72222 2.41111 1.92222 2.33333 2.16667 2.33333H21.8333C22.0778 2.33333 22.2778 2.41111 22.4333 2.56667C22.5889 2.72222 22.6667 2.92222 22.6667 3.16667V20.5333Z" fill="black"/>
</svg>
