<svg width="56" height="56" viewBox="0 0 56 56" fill="none" xmlns="http://www.w3.org/2000/svg">
<circle cx="28" cy="28" r="28" fill="black"/>
<path d="M22.6694 19.6235C21.8283 18.7824 20.4646 18.7824 19.6234 19.6235C18.7823 20.4646 18.7823 21.8284 19.6234 22.6695L24.9539 28L19.6234 33.3305C18.7823 34.1716 18.7823 35.5354 19.6234 36.3765C20.4646 37.2176 21.8283 37.2176 22.6694 36.3765L27.9999 31.046L33.3304 36.3765C34.1716 37.2176 35.5353 37.2176 36.3764 36.3765C37.2176 35.5354 37.2176 34.1716 36.3764 33.3305L31.0459 28L36.3764 22.6695C37.2176 21.8284 37.2176 20.4646 36.3764 19.6235C35.5353 18.7824 34.1716 18.7824 33.3304 19.6235L27.9999 24.954L22.6694 19.6235Z" fill="white"/>
</svg>
